G04 Layer: TopSolderMaskLayer*
G04 EasyEDA v6.5.9, 2022-10-13 02:00:02*
G04 e360aac8450f43158dbdd5a42fdb8d84,1d9ebe74aaba41f0b176b6c48231f753,10*
G04 Gerber Generator version 0.2*
G04 Scale: 100 percent, Rotated: No, Reflected: No *
G04 Dimensions in millimeters *
G04 leading zeros omitted , absolute positions ,4 integer and 5 decimal *
%FSLAX45Y45*%
%MOMM*%

%ADD10C,1.6764*%
%ADD11C,1.6256*%
%ADD12R,1.6764X1.6764*%

%LPD*%
D10*
G01*
X2667000Y4064000D03*
G01*
X2413000Y4064000D03*
G01*
X2159000Y4064000D03*
G01*
X1905000Y4064000D03*
G01*
X1651000Y4064000D03*
G36*
X1313179Y3980179D02*
G01*
X1313179Y4147820D01*
X1480820Y4147820D01*
X1480820Y3980179D01*
G37*
G01*
X2667000Y8636000D03*
G01*
X2413000Y8636000D03*
G01*
X2159000Y8636000D03*
G01*
X1905000Y8636000D03*
G01*
X1651000Y8636000D03*
G36*
X1313179Y8552179D02*
G01*
X1313179Y8719820D01*
X1480820Y8719820D01*
X1480820Y8552179D01*
G37*
G01*
X5461000Y4064000D03*
G01*
X5207000Y4064000D03*
G01*
X4953000Y4064000D03*
G01*
X4699000Y4064000D03*
G01*
X4445000Y4064000D03*
G36*
X4107179Y3980179D02*
G01*
X4107179Y4147820D01*
X4274820Y4147820D01*
X4274820Y3980179D01*
G37*
G01*
X5461000Y8636000D03*
G01*
X5207000Y8636000D03*
G01*
X4953000Y8636000D03*
G01*
X4699000Y8636000D03*
G01*
X4445000Y8636000D03*
G36*
X4107179Y8552179D02*
G01*
X4107179Y8719820D01*
X4274820Y8719820D01*
X4274820Y8552179D01*
G37*
G01*
X8255000Y4064000D03*
G01*
X8001000Y4064000D03*
G01*
X7747000Y4064000D03*
G01*
X7493000Y4064000D03*
G01*
X7239000Y4064000D03*
G36*
X6901179Y3980179D02*
G01*
X6901179Y4147820D01*
X7068820Y4147820D01*
X7068820Y3980179D01*
G37*
G01*
X8255000Y8636000D03*
G01*
X8001000Y8636000D03*
G01*
X7747000Y8636000D03*
G01*
X7493000Y8636000D03*
G01*
X7239000Y8636000D03*
G36*
X6901179Y8552179D02*
G01*
X6901179Y8719820D01*
X7068820Y8719820D01*
X7068820Y8552179D01*
G37*
G01*
X11049000Y4064000D03*
G01*
X10795000Y4064000D03*
G01*
X10541000Y4064000D03*
G01*
X10287000Y4064000D03*
G01*
X10033000Y4064000D03*
G36*
X9695179Y3980179D02*
G01*
X9695179Y4147820D01*
X9862820Y4147820D01*
X9862820Y3980179D01*
G37*
G01*
X11049000Y8636000D03*
G01*
X10795000Y8636000D03*
G01*
X10541000Y8636000D03*
G01*
X10287000Y8636000D03*
G01*
X10033000Y8636000D03*
G36*
X9695179Y8552179D02*
G01*
X9695179Y8719820D01*
X9862820Y8719820D01*
X9862820Y8552179D01*
G37*
G01*
X2667000Y1524000D03*
G01*
X2413000Y1524000D03*
G01*
X2159000Y1524000D03*
G01*
X1905000Y1524000D03*
G01*
X1651000Y1524000D03*
G36*
X1313179Y1440179D02*
G01*
X1313179Y1607820D01*
X1480820Y1607820D01*
X1480820Y1440179D01*
G37*
G01*
X2667000Y6096000D03*
G01*
X2413000Y6096000D03*
G01*
X2159000Y6096000D03*
G01*
X1905000Y6096000D03*
G01*
X1651000Y6096000D03*
G36*
X1313179Y6012179D02*
G01*
X1313179Y6179820D01*
X1480820Y6179820D01*
X1480820Y6012179D01*
G37*
G01*
X5461000Y1524000D03*
G01*
X5207000Y1524000D03*
G01*
X4953000Y1524000D03*
G01*
X4699000Y1524000D03*
G01*
X4445000Y1524000D03*
G36*
X4107179Y1440179D02*
G01*
X4107179Y1607820D01*
X4274820Y1607820D01*
X4274820Y1440179D01*
G37*
G01*
X5461000Y6096000D03*
G01*
X5207000Y6096000D03*
G01*
X4953000Y6096000D03*
G01*
X4699000Y6096000D03*
G01*
X4445000Y6096000D03*
G36*
X4107179Y6012179D02*
G01*
X4107179Y6179820D01*
X4274820Y6179820D01*
X4274820Y6012179D01*
G37*
G01*
X8255000Y1524000D03*
G01*
X8001000Y1524000D03*
G01*
X7747000Y1524000D03*
G01*
X7493000Y1524000D03*
G01*
X7239000Y1524000D03*
G36*
X6901179Y1440179D02*
G01*
X6901179Y1607820D01*
X7068820Y1607820D01*
X7068820Y1440179D01*
G37*
G01*
X8229600Y6096000D03*
G01*
X7975600Y6096000D03*
G01*
X7721600Y6096000D03*
G01*
X7467600Y6096000D03*
G01*
X7213600Y6096000D03*
G36*
X6875779Y6012179D02*
G01*
X6875779Y6179820D01*
X7043420Y6179820D01*
X7043420Y6012179D01*
G37*
G01*
X11049000Y1524000D03*
G01*
X10795000Y1524000D03*
G01*
X10541000Y1524000D03*
G01*
X10287000Y1524000D03*
G01*
X10033000Y1524000D03*
G36*
X9695179Y1440179D02*
G01*
X9695179Y1607820D01*
X9862820Y1607820D01*
X9862820Y1440179D01*
G37*
G01*
X11049000Y6096000D03*
G01*
X10795000Y6096000D03*
G01*
X10541000Y6096000D03*
G01*
X10287000Y6096000D03*
G01*
X10033000Y6096000D03*
G36*
X9695179Y6012179D02*
G01*
X9695179Y6179820D01*
X9862820Y6179820D01*
X9862820Y6012179D01*
G37*
G01*
X7645400Y-304800D03*
G01*
X7391400Y-304800D03*
G01*
X7137400Y-304800D03*
G01*
X6883400Y-304800D03*
G01*
X6629400Y-304800D03*
G01*
X6375400Y-304800D03*
G01*
X6121400Y-304800D03*
G01*
X5867400Y-304800D03*
G01*
X5613400Y-304800D03*
G01*
X5359400Y-304800D03*
G01*
X5105400Y-304800D03*
G01*
X4851400Y-304800D03*
G01*
X4597400Y-304800D03*
G01*
X4343400Y-304800D03*
G36*
X4005579Y-388620D02*
G01*
X4005579Y-220979D01*
X4173220Y-220979D01*
X4173220Y-388620D01*
G37*
D11*
G01*
X7899400Y-304800D03*
D10*
G01*
X12217400Y4740275D03*
G01*
X12217400Y4486275D03*
G01*
X12217400Y4232275D03*
G01*
X12217400Y3978275D03*
G01*
X12217400Y3724275D03*
G01*
X12217400Y3470275D03*
G01*
X12217400Y3216275D03*
G01*
X12217400Y2962275D03*
G01*
X12217400Y2708275D03*
G01*
X12217400Y2454275D03*
G01*
X12217400Y2200275D03*
G01*
X12217400Y1946275D03*
G01*
X12217400Y1692275D03*
G01*
X12217400Y1438275D03*
G36*
X12133579Y1100328D02*
G01*
X12133579Y1267968D01*
X12301220Y1267968D01*
X12301220Y1100328D01*
G37*
G01*
X14262100Y1184275D03*
G01*
X14262100Y1438275D03*
G01*
X14262100Y1692275D03*
G01*
X14262100Y1946275D03*
G01*
X14262100Y2200275D03*
G01*
X14262100Y2454275D03*
G01*
X14262100Y2708275D03*
G01*
X14262100Y2962275D03*
G01*
X14262100Y3216275D03*
G01*
X14262100Y3470275D03*
G01*
X14262100Y3724275D03*
G01*
X14262100Y3978275D03*
G01*
X14262100Y4232275D03*
G01*
X14262100Y4486275D03*
G36*
X14178279Y4656328D02*
G01*
X14178279Y4823968D01*
X14345920Y4823968D01*
X14345920Y4656328D01*
G37*
G01*
X12217400Y5016500D03*
G01*
X12217400Y5270500D03*
G01*
X12217400Y5524500D03*
G01*
X12217400Y5778500D03*
G01*
X12217400Y6032500D03*
G01*
X12217400Y6286500D03*
G01*
X12217400Y6540500D03*
G01*
X12217400Y6794500D03*
G01*
X12217400Y7048500D03*
G01*
X12217400Y7302500D03*
G01*
X12217400Y7556500D03*
G01*
X12217400Y7810500D03*
G01*
X12217400Y8064500D03*
G01*
X12217400Y8318500D03*
G36*
X12133579Y8488679D02*
G01*
X12133579Y8656320D01*
X12301220Y8656320D01*
X12301220Y8488679D01*
G37*
G01*
X14262100Y8572500D03*
G01*
X14262100Y8318500D03*
G01*
X14262100Y8064500D03*
G01*
X14262100Y7810500D03*
G01*
X14262100Y7556500D03*
G01*
X14262100Y7302500D03*
G01*
X14262100Y7048500D03*
G01*
X14262100Y6794500D03*
G01*
X14262100Y6540500D03*
G01*
X14262100Y6286500D03*
G01*
X14262100Y6032500D03*
G01*
X14262100Y5778500D03*
G01*
X14262100Y5524500D03*
G01*
X14262100Y5270500D03*
D12*
G01*
X14262100Y5016500D03*
G36*
X5364479Y9326879D02*
G01*
X5364479Y9494520D01*
X5532120Y9494520D01*
X5532120Y9326879D01*
G37*
D10*
G01*
X5702300Y9410700D03*
G01*
X5956300Y9410700D03*
G01*
X6210300Y9410700D03*
G01*
X6464300Y9410700D03*
G01*
X6718300Y9410700D03*
G01*
X6972300Y9410700D03*
G01*
X7226300Y9410700D03*
M02*
