%TF.GenerationSoftware,Altium Limited,Altium Designer,22.11.1 (43)*%
G04 Layer_Color=255*
%FSLAX45Y45*%
%MOMM*%
%TF.SameCoordinates,8E6B7D1E-C15C-42CD-BC71-5E9529DE4995*%
%TF.FilePolarity,Positive*%
%TF.FileFunction,Pads,Bot*%
%TF.Part,Single*%
G01*
G75*
%TA.AperFunction,ComponentPad*%
%ADD12R,1.50000X1.50000*%
%ADD13C,1.50000*%
%ADD14C,1.45000*%
%ADD15C,1.33800*%
D12*
X7249998Y15525999D02*
D03*
X3249996Y10750001D02*
D03*
X7249998Y10376002D02*
D03*
X3250001Y5624002D02*
D03*
X7249998Y5250002D02*
D03*
X3250001Y474000D02*
D03*
D13*
X7249998Y15271999D02*
D03*
Y15017999D02*
D03*
Y14763998D02*
D03*
Y14509999D02*
D03*
Y14256000D02*
D03*
Y14001999D02*
D03*
Y13748000D02*
D03*
Y13493999D02*
D03*
Y13239999D02*
D03*
Y12985999D02*
D03*
Y12731999D02*
D03*
Y12477999D02*
D03*
Y12223999D02*
D03*
Y11969999D02*
D03*
Y11715999D02*
D03*
Y11461999D02*
D03*
Y11207999D02*
D03*
Y10953999D02*
D03*
Y10699999D02*
D03*
X3249996Y11004001D02*
D03*
Y11258001D02*
D03*
Y11512001D02*
D03*
Y11766001D02*
D03*
Y12020001D02*
D03*
Y12274001D02*
D03*
Y12528001D02*
D03*
Y12782001D02*
D03*
Y13036002D02*
D03*
Y13290001D02*
D03*
Y13544000D02*
D03*
Y13798001D02*
D03*
Y14052000D02*
D03*
Y14306001D02*
D03*
Y14560001D02*
D03*
Y14814001D02*
D03*
Y15068001D02*
D03*
Y15322002D02*
D03*
Y15576001D02*
D03*
X7249998Y10122002D02*
D03*
Y9868002D02*
D03*
Y9614002D02*
D03*
Y9360002D02*
D03*
Y9106002D02*
D03*
Y8852002D02*
D03*
Y8598002D02*
D03*
Y8344002D02*
D03*
Y8090002D02*
D03*
Y7836002D02*
D03*
Y7582002D02*
D03*
Y7328002D02*
D03*
Y7074002D02*
D03*
Y6820002D02*
D03*
Y6566002D02*
D03*
Y6312002D02*
D03*
Y6058002D02*
D03*
Y5804002D02*
D03*
Y5550002D02*
D03*
X3250001Y5878002D02*
D03*
Y6132002D02*
D03*
Y6386002D02*
D03*
Y6640002D02*
D03*
Y6894002D02*
D03*
Y7148002D02*
D03*
Y7402002D02*
D03*
Y7656002D02*
D03*
Y7910002D02*
D03*
Y8164002D02*
D03*
Y8418002D02*
D03*
Y8672002D02*
D03*
Y8926002D02*
D03*
Y9180002D02*
D03*
Y9434002D02*
D03*
Y9688002D02*
D03*
Y9942002D02*
D03*
Y10196002D02*
D03*
Y10450002D02*
D03*
X7249998Y4996002D02*
D03*
Y4742002D02*
D03*
Y4488002D02*
D03*
Y4234002D02*
D03*
Y3980002D02*
D03*
Y3726002D02*
D03*
Y3472002D02*
D03*
Y3218002D02*
D03*
Y2964002D02*
D03*
Y2710002D02*
D03*
Y2456002D02*
D03*
Y2202002D02*
D03*
Y1948002D02*
D03*
Y1694002D02*
D03*
Y1440002D02*
D03*
Y1186002D02*
D03*
Y932002D02*
D03*
Y678002D02*
D03*
Y424002D02*
D03*
X3250001Y728000D02*
D03*
Y982000D02*
D03*
Y1236000D02*
D03*
Y1490000D02*
D03*
Y1744000D02*
D03*
Y1998000D02*
D03*
Y2252000D02*
D03*
Y2506000D02*
D03*
Y2760000D02*
D03*
Y3014000D02*
D03*
Y3268000D02*
D03*
Y3522000D02*
D03*
Y3776000D02*
D03*
Y4030000D02*
D03*
Y4284000D02*
D03*
Y4538000D02*
D03*
Y4792000D02*
D03*
Y5046000D02*
D03*
Y5300000D02*
D03*
D14*
X5399994Y5545999D02*
D03*
Y10625999D02*
D03*
D15*
X5249997Y5396001D02*
D03*
Y10776001D02*
D03*
%TF.MD5,9a17ea5dd1847fb9c77ef97b98c6e914*%
M02*
