G04*
G04 #@! TF.GenerationSoftware,Altium Limited,Altium Designer,23.0.1 (38)*
G04*
G04 Layer_Physical_Order=2*
G04 Layer_Color=16711680*
%FSLAX44Y44*%
%MOMM*%
G71*
G04*
G04 #@! TF.SameCoordinates,C093C058-C0E8-49C4-9D07-7802162F4E86*
G04*
G04*
G04 #@! TF.FilePolarity,Positive*
G04*
G01*
G75*
%ADD20C,0.3000*%
%ADD21C,1.0000*%
%ADD22R,1.0000X1.0000*%
%ADD23C,1.4500*%
%ADD24C,1.3380*%
%ADD25C,1.2700*%
D20*
X300000Y434100D02*
X303500Y437600D01*
X384975D01*
X387375Y440000D01*
X390000D01*
X300000Y1091200D02*
X326834D01*
X408916Y1009118D01*
Y987322D02*
Y1009118D01*
Y987322D02*
X420878Y975360D01*
X457454D01*
X513588Y949990D02*
Y989330D01*
Y949990D02*
X516643Y946936D01*
X552590D01*
X560186Y954532D01*
X611124D01*
X614172Y957580D01*
Y1084580D01*
X611124Y1087628D02*
X614172Y1084580D01*
X608072Y1087628D02*
X611124D01*
X605000Y1090700D02*
X608072Y1087628D01*
X300000Y1078500D02*
X323657D01*
X398526Y1003630D01*
X393537Y989847D02*
X395224Y988160D01*
X383377Y989847D02*
X393537D01*
X307424Y1065800D02*
X383377Y989847D01*
X300000Y1065800D02*
X307424D01*
X352806Y955040D02*
X370840Y973074D01*
X293370Y955040D02*
X352806D01*
X290830Y957580D02*
X293370Y955040D01*
X290830Y957580D02*
Y1049290D01*
X294640Y1053100D01*
X300000D01*
X595654Y1027200D02*
X605000D01*
X525780Y957326D02*
X595654Y1027200D01*
X401942Y769620D02*
X457708D01*
X307722Y675400D02*
X401942Y769620D01*
X300000Y675400D02*
X307722D01*
X536194Y716280D02*
X578274Y674200D01*
X605000D01*
X418846Y799592D02*
X452882D01*
X309118Y689864D02*
X418846Y799592D01*
X299720Y689864D02*
X309118D01*
X290830Y680974D02*
X299720Y689864D01*
X290830Y657352D02*
Y680974D01*
Y657352D02*
X300000Y650000D01*
X596308Y636100D02*
X605000D01*
X561594Y670814D02*
X596308Y636100D01*
X300000Y624600D02*
X323864D01*
X415544Y716280D01*
X460224Y667258D02*
X580282Y547200D01*
X605000D01*
X588180Y521800D02*
X605000D01*
X465582Y644398D02*
X588180Y521800D01*
X415544Y528320D02*
Y639572D01*
X397524Y510300D02*
X415544Y528320D01*
X300000Y510300D02*
X397524D01*
X460502Y726694D02*
X576606D01*
X604601Y698700D01*
X605000D01*
X585978Y474726D02*
X601274D01*
X605000Y471000D01*
X595800Y572600D02*
X605000D01*
X505894Y662506D02*
X595800Y572600D01*
X300000Y1180100D02*
X339582D01*
X436372Y1083310D01*
X483870Y445600D02*
X605000D01*
X455676Y496400D02*
X605000D01*
X457454Y1029970D02*
X467360D01*
X497610Y999720D01*
X549378D01*
X594868Y1045210D01*
Y1106428D01*
X604540Y1116100D01*
X605000D01*
X599210Y1128800D02*
X605000D01*
X588010Y1117600D02*
X599210Y1128800D01*
X588010Y1060196D02*
Y1117600D01*
X545846Y1018032D02*
X588010Y1060196D01*
X503936Y1018032D02*
X545846D01*
X408777Y958088D02*
X453366D01*
X383377Y983488D02*
X408777Y958088D01*
X349758Y983488D02*
X383377D01*
X305546Y1027700D02*
X349758Y983488D01*
X300000Y1027700D02*
X305546D01*
X457454Y931672D02*
X575310D01*
X549910Y963168D02*
X598424Y1011682D01*
Y1014500D01*
X605000D01*
X419862Y997712D02*
Y1006242D01*
X322204Y1103900D02*
X419862Y1006242D01*
X300000Y1103900D02*
X322204D01*
X589280Y1154200D02*
X605000D01*
X568198Y1133118D02*
X589280Y1154200D01*
X568198Y1081470D02*
Y1133118D01*
D21*
X605000Y963700D02*
D03*
Y976400D02*
D03*
Y989100D02*
D03*
Y1001800D02*
D03*
Y1014500D02*
D03*
Y1027200D02*
D03*
Y1039900D02*
D03*
Y1052600D02*
D03*
Y1065300D02*
D03*
Y1078000D02*
D03*
Y1090700D02*
D03*
Y1103400D02*
D03*
Y1116100D02*
D03*
Y1128800D02*
D03*
Y1141500D02*
D03*
Y1154200D02*
D03*
Y1166900D02*
D03*
Y1179600D02*
D03*
Y1192300D02*
D03*
X300000Y1205500D02*
D03*
Y1192800D02*
D03*
Y1180100D02*
D03*
Y1167400D02*
D03*
Y1154700D02*
D03*
Y1142000D02*
D03*
Y1129300D02*
D03*
Y1116600D02*
D03*
Y1103900D02*
D03*
Y1091200D02*
D03*
Y1078500D02*
D03*
Y1065800D02*
D03*
Y1053100D02*
D03*
Y1040400D02*
D03*
Y1027700D02*
D03*
Y1015000D02*
D03*
Y1002300D02*
D03*
Y989600D02*
D03*
Y976900D02*
D03*
X605000Y698700D02*
D03*
Y711400D02*
D03*
Y724100D02*
D03*
Y736800D02*
D03*
Y749500D02*
D03*
Y762200D02*
D03*
Y774900D02*
D03*
Y787600D02*
D03*
Y800300D02*
D03*
Y813000D02*
D03*
Y825700D02*
D03*
Y838400D02*
D03*
Y851100D02*
D03*
Y863800D02*
D03*
Y876500D02*
D03*
Y889200D02*
D03*
Y901900D02*
D03*
Y914600D02*
D03*
Y927300D02*
D03*
X300000Y940400D02*
D03*
Y927700D02*
D03*
Y915000D02*
D03*
Y902300D02*
D03*
Y889600D02*
D03*
Y876900D02*
D03*
Y864200D02*
D03*
Y851500D02*
D03*
Y838800D02*
D03*
Y826100D02*
D03*
Y813400D02*
D03*
Y800700D02*
D03*
Y788000D02*
D03*
Y775300D02*
D03*
Y762600D02*
D03*
Y749900D02*
D03*
Y737200D02*
D03*
Y724500D02*
D03*
Y711800D02*
D03*
X605000Y432900D02*
D03*
Y445600D02*
D03*
Y458300D02*
D03*
Y471000D02*
D03*
Y483700D02*
D03*
Y496400D02*
D03*
Y509100D02*
D03*
Y521800D02*
D03*
Y534500D02*
D03*
Y547200D02*
D03*
Y559900D02*
D03*
Y572600D02*
D03*
Y585300D02*
D03*
Y598000D02*
D03*
Y610700D02*
D03*
Y623400D02*
D03*
Y636100D02*
D03*
Y648800D02*
D03*
Y661500D02*
D03*
X300000Y675400D02*
D03*
Y662700D02*
D03*
Y650000D02*
D03*
Y637300D02*
D03*
Y624600D02*
D03*
Y611900D02*
D03*
Y599200D02*
D03*
Y586500D02*
D03*
Y573800D02*
D03*
Y561100D02*
D03*
Y548400D02*
D03*
Y535700D02*
D03*
Y523000D02*
D03*
Y510300D02*
D03*
Y497600D02*
D03*
Y484900D02*
D03*
Y472200D02*
D03*
Y459500D02*
D03*
Y446800D02*
D03*
D22*
X605000Y1205000D02*
D03*
X300000Y964200D02*
D03*
X605000Y940000D02*
D03*
X300000Y699100D02*
D03*
X605000Y674200D02*
D03*
X300000Y434100D02*
D03*
D23*
X472500Y576000D02*
D03*
Y1084000D02*
D03*
D24*
X457500Y561000D02*
D03*
Y1099000D02*
D03*
D25*
X390000Y440000D02*
D03*
X457454Y975360D02*
D03*
X513588Y989330D02*
D03*
X398526Y1003630D02*
D03*
X395224Y988160D02*
D03*
X370840Y973074D02*
D03*
X525780Y957326D02*
D03*
X457708Y769620D02*
D03*
X536194Y716280D02*
D03*
X452882Y799592D02*
D03*
X561594Y670814D02*
D03*
X415544Y716280D02*
D03*
X460224Y667258D02*
D03*
X465582Y644398D02*
D03*
X415544Y639572D02*
D03*
X460502Y726694D02*
D03*
X585978Y474726D02*
D03*
X505894Y662506D02*
D03*
X436372Y1083310D02*
D03*
X483870Y445600D02*
D03*
X455676Y496400D02*
D03*
X457454Y1029970D02*
D03*
X503936Y1018032D02*
D03*
X453366Y958088D02*
D03*
X457454Y931672D02*
D03*
X575310D02*
D03*
X549910Y963168D02*
D03*
X419862Y997712D02*
D03*
X568198Y1081470D02*
D03*
M02*
