%TF.GenerationSoftware,Altium Limited,Altium Designer,22.11.1 (43)*%
G04 Layer_Color=16711935*
%FSLAX45Y45*%
%MOMM*%
%TF.SameCoordinates,8E6B7D1E-C15C-42CD-BC71-5E9529DE4995*%
%TF.FilePolarity,Negative*%
%TF.FileFunction,Soldermask,Bot*%
%TF.Part,Single*%
G01*
G75*
%TA.AperFunction,ComponentPad*%
%ADD20R,1.70320X1.70320*%
%ADD21C,1.70320*%
%ADD22C,1.65320*%
%ADD23C,1.54120*%
%TA.AperFunction,ViaPad*%
%ADD24C,1.47320*%
D20*
X7249998Y15525999D02*
D03*
X3249996Y10750001D02*
D03*
X7249998Y10376002D02*
D03*
X3250001Y5624002D02*
D03*
X7249998Y5250002D02*
D03*
X3250001Y474000D02*
D03*
D21*
X7249998Y15271999D02*
D03*
Y15017999D02*
D03*
Y14763998D02*
D03*
Y14509999D02*
D03*
Y14256000D02*
D03*
Y14001999D02*
D03*
Y13748000D02*
D03*
Y13493999D02*
D03*
Y13239999D02*
D03*
Y12985999D02*
D03*
Y12731999D02*
D03*
Y12477999D02*
D03*
Y12223999D02*
D03*
Y11969999D02*
D03*
Y11715999D02*
D03*
Y11461999D02*
D03*
Y11207999D02*
D03*
Y10953999D02*
D03*
Y10699999D02*
D03*
X3249996Y11004001D02*
D03*
Y11258001D02*
D03*
Y11512001D02*
D03*
Y11766001D02*
D03*
Y12020001D02*
D03*
Y12274001D02*
D03*
Y12528001D02*
D03*
Y12782001D02*
D03*
Y13036002D02*
D03*
Y13290001D02*
D03*
Y13544000D02*
D03*
Y13798001D02*
D03*
Y14052000D02*
D03*
Y14306001D02*
D03*
Y14560001D02*
D03*
Y14814001D02*
D03*
Y15068001D02*
D03*
Y15322002D02*
D03*
Y15576001D02*
D03*
X7249998Y10122002D02*
D03*
Y9868002D02*
D03*
Y9614002D02*
D03*
Y9360002D02*
D03*
Y9106002D02*
D03*
Y8852002D02*
D03*
Y8598002D02*
D03*
Y8344002D02*
D03*
Y8090002D02*
D03*
Y7836002D02*
D03*
Y7582002D02*
D03*
Y7328002D02*
D03*
Y7074002D02*
D03*
Y6820002D02*
D03*
Y6566002D02*
D03*
Y6312002D02*
D03*
Y6058002D02*
D03*
Y5804002D02*
D03*
Y5550002D02*
D03*
X3250001Y5878002D02*
D03*
Y6132002D02*
D03*
Y6386002D02*
D03*
Y6640002D02*
D03*
Y6894002D02*
D03*
Y7148002D02*
D03*
Y7402002D02*
D03*
Y7656002D02*
D03*
Y7910002D02*
D03*
Y8164002D02*
D03*
Y8418002D02*
D03*
Y8672002D02*
D03*
Y8926002D02*
D03*
Y9180002D02*
D03*
Y9434002D02*
D03*
Y9688002D02*
D03*
Y9942002D02*
D03*
Y10196002D02*
D03*
Y10450002D02*
D03*
X7249998Y4996002D02*
D03*
Y4742002D02*
D03*
Y4488002D02*
D03*
Y4234002D02*
D03*
Y3980002D02*
D03*
Y3726002D02*
D03*
Y3472002D02*
D03*
Y3218002D02*
D03*
Y2964002D02*
D03*
Y2710002D02*
D03*
Y2456002D02*
D03*
Y2202002D02*
D03*
Y1948002D02*
D03*
Y1694002D02*
D03*
Y1440002D02*
D03*
Y1186002D02*
D03*
Y932002D02*
D03*
Y678002D02*
D03*
Y424002D02*
D03*
X3250001Y728000D02*
D03*
Y982000D02*
D03*
Y1236000D02*
D03*
Y1490000D02*
D03*
Y1744000D02*
D03*
Y1998000D02*
D03*
Y2252000D02*
D03*
Y2506000D02*
D03*
Y2760000D02*
D03*
Y3014000D02*
D03*
Y3268000D02*
D03*
Y3522000D02*
D03*
Y3776000D02*
D03*
Y4030000D02*
D03*
Y4284000D02*
D03*
Y4538000D02*
D03*
Y4792000D02*
D03*
Y5046000D02*
D03*
Y5300000D02*
D03*
D22*
X5399994Y5545999D02*
D03*
Y10625999D02*
D03*
D23*
X5249997Y5396001D02*
D03*
Y10776001D02*
D03*
D24*
X5328920Y13705840D02*
D03*
X5331460Y9766300D02*
D03*
X4363837Y9646001D02*
D03*
X5753100Y9720580D02*
D03*
X3868420Y9484330D02*
D03*
X4482658Y9359422D02*
D03*
X4848860Y9406001D02*
D03*
X7653020Y11566977D02*
D03*
X4126057Y8554720D02*
D03*
X5168900Y8986571D02*
D03*
X6731000Y10134600D02*
D03*
X5323840Y9433560D02*
D03*
X3134360Y7782560D02*
D03*
X5250180D02*
D03*
X5291282Y8766002D02*
D03*
X5247640Y7584222D02*
D03*
X3997960Y7193280D02*
D03*
X6017260Y6971909D02*
D03*
X5173980Y7327900D02*
D03*
X5331460Y7132320D02*
D03*
X6058332Y6733540D02*
D03*
X3647440Y4770120D02*
D03*
X4605498Y6216010D02*
D03*
X5623560Y6635201D02*
D03*
X4744720Y6151880D02*
D03*
X5321838Y6687820D02*
D03*
X5181600Y6542141D02*
D03*
X5188458Y6315202D02*
D03*
X4577080Y5849620D02*
D03*
X4686300Y5445760D02*
D03*
X3812540Y3141980D02*
D03*
X4663440Y5605780D02*
D03*
X4919980Y5456763D02*
D03*
X5328920Y7396480D02*
D03*
X5311699Y6852920D02*
D03*
X5214620Y7006001D02*
D03*
X5851083Y8735060D02*
D03*
X5983524Y8816340D02*
D03*
X6771640Y9448800D02*
D03*
X5621020Y8841740D02*
D03*
X5696382Y9006002D02*
D03*
X6830060Y10431780D02*
D03*
X5793740Y9466580D02*
D03*
X6382619Y9356806D02*
D03*
X4403090Y8710930D02*
D03*
X5232400Y8402320D02*
D03*
X4897120Y6286500D02*
D03*
X5135880Y1610360D02*
D03*
X5168900Y9246001D02*
D03*
X4711360Y9753600D02*
D03*
X4790440Y9093200D02*
D03*
X4820920Y8940800D02*
D03*
X5224780Y12666980D02*
D03*
X5458460Y13959840D02*
D03*
%TF.MD5,04ab02611f752aa443f5578e7f968291*%
M02*
