G04*
G04 #@! TF.GenerationSoftware,Altium Limited,Altium Designer,23.0.1 (38)*
G04*
G04 Layer_Physical_Order=1*
G04 Layer_Color=255*
%FSLAX44Y44*%
%MOMM*%
G71*
G04*
G04 #@! TF.SameCoordinates,C093C058-C0E8-49C4-9D07-7802162F4E86*
G04*
G04*
G04 #@! TF.FilePolarity,Positive*
G04*
G01*
G75*
%ADD13R,1.1000X0.5000*%
%ADD20C,0.3000*%
%ADD21C,1.0000*%
%ADD22R,1.0000X1.0000*%
%ADD23C,1.4500*%
%ADD24C,1.3380*%
%ADD25C,1.2700*%
D13*
X435000Y1066000D02*
D03*
X480000D02*
D03*
X435000Y1058000D02*
D03*
X480000D02*
D03*
X435000Y1050000D02*
D03*
X480000D02*
D03*
X435000Y1042000D02*
D03*
X480000D02*
D03*
X435000Y1034000D02*
D03*
X480000D02*
D03*
X435000Y1026000D02*
D03*
X480000D02*
D03*
X435000Y1018000D02*
D03*
X480000D02*
D03*
X435000Y1010000D02*
D03*
X480000D02*
D03*
X435000Y1002000D02*
D03*
X480000D02*
D03*
X435000Y994000D02*
D03*
X480000D02*
D03*
X435000Y986000D02*
D03*
X480000D02*
D03*
X435000Y978000D02*
D03*
X480000D02*
D03*
X435000Y970000D02*
D03*
X480000D02*
D03*
X435000Y962000D02*
D03*
X480000D02*
D03*
X435000Y954000D02*
D03*
X480000D02*
D03*
X435000Y946000D02*
D03*
X480000D02*
D03*
X435000Y938000D02*
D03*
X480000D02*
D03*
X435000Y930000D02*
D03*
X480000D02*
D03*
X435000Y922000D02*
D03*
X480000D02*
D03*
X435000Y914000D02*
D03*
X480000D02*
D03*
X435000Y906000D02*
D03*
X480000D02*
D03*
X435000Y898000D02*
D03*
X480000D02*
D03*
X435000Y890000D02*
D03*
X480000D02*
D03*
X435000Y882000D02*
D03*
X480000D02*
D03*
X435000Y874000D02*
D03*
X480000D02*
D03*
X435000Y866000D02*
D03*
X480000D02*
D03*
X435000Y858000D02*
D03*
X480000D02*
D03*
X435000Y850000D02*
D03*
X480000D02*
D03*
X435000Y842000D02*
D03*
X480000D02*
D03*
X435000Y834000D02*
D03*
X480000D02*
D03*
X435000Y826000D02*
D03*
X480000D02*
D03*
X435000Y818000D02*
D03*
X480000D02*
D03*
X435000Y810000D02*
D03*
X480000D02*
D03*
X435000Y802000D02*
D03*
X480000D02*
D03*
X435000Y794000D02*
D03*
X480000D02*
D03*
X435000Y786000D02*
D03*
X480000D02*
D03*
X435000Y778000D02*
D03*
X480000D02*
D03*
X435000Y770000D02*
D03*
X480000D02*
D03*
X435000Y762000D02*
D03*
X480000D02*
D03*
X435000Y754000D02*
D03*
X480000D02*
D03*
X435000Y746000D02*
D03*
X480000D02*
D03*
X435000Y738000D02*
D03*
X480000D02*
D03*
X435000Y730000D02*
D03*
X480000D02*
D03*
X435000Y722000D02*
D03*
X480000D02*
D03*
X435000Y714000D02*
D03*
X480000D02*
D03*
X435000Y706000D02*
D03*
X480000D02*
D03*
X435000Y698000D02*
D03*
X480000D02*
D03*
X435000Y690000D02*
D03*
X480000D02*
D03*
X435000Y682000D02*
D03*
X480000D02*
D03*
X435000Y674000D02*
D03*
X480000D02*
D03*
X435000Y666000D02*
D03*
X480000D02*
D03*
X435000Y658000D02*
D03*
X480000D02*
D03*
X435000Y650000D02*
D03*
X480000D02*
D03*
X435000Y642000D02*
D03*
X480000D02*
D03*
X435000Y634000D02*
D03*
X480000D02*
D03*
X435000Y626000D02*
D03*
X480000D02*
D03*
X435000Y618000D02*
D03*
X480000D02*
D03*
X435000Y610000D02*
D03*
X480000D02*
D03*
X435000Y602000D02*
D03*
X480000D02*
D03*
X435000Y594000D02*
D03*
X480000D02*
D03*
D20*
X446532Y1136532D02*
X553076Y1243076D01*
X446532Y1092862D02*
Y1136532D01*
X553076Y1243076D02*
X609600D01*
X290830Y1211326D02*
X299504Y1220000D01*
X385000D02*
X425752Y1179248D01*
X299504Y1220000D02*
X385000D01*
X425752Y1078690D02*
Y1179248D01*
X420211Y1069340D02*
X423552Y1066000D01*
X414671Y1056589D02*
Y1157494D01*
Y1056589D02*
X429260Y1042000D01*
X374500Y1205500D02*
X420211Y1159789D01*
X425752Y1078690D02*
X431800Y1072642D01*
X404766Y1167400D02*
X414671Y1157494D01*
X420211Y1069340D02*
Y1159789D01*
X300000Y1205500D02*
X374500D01*
X300000Y1167400D02*
X404766D01*
X458440Y416560D02*
X604012D01*
X432308Y442692D02*
Y560070D01*
Y442692D02*
X458440Y416560D01*
X294132Y423418D02*
X388418D01*
X404368Y439368D01*
Y548822D01*
X390000Y440000D02*
Y552000D01*
X336167Y484900D02*
X365443Y514175D01*
X370983Y508346D02*
Y572216D01*
X390000Y552000D02*
X432000Y594000D01*
X365443Y514175D02*
Y574831D01*
X334836Y472200D02*
X370983Y508346D01*
X382063Y495172D02*
Y563711D01*
X337326Y497600D02*
X359902Y520176D01*
X331786Y523000D02*
X354362Y545576D01*
Y579420D01*
X333691Y446800D02*
X382063Y495172D01*
X359902Y520176D02*
Y577126D01*
X376523Y501067D02*
Y566952D01*
X334956Y459500D02*
X376523Y501067D01*
X432000Y594000D02*
X435000D01*
X483830Y890000D02*
Y890331D01*
X423552Y1066000D02*
X435000D01*
X429260Y1042000D02*
X435000D01*
X429260Y1034000D02*
X435000D01*
X308560Y1154700D02*
X429260Y1034000D01*
X300000Y1154700D02*
X308560D01*
X424178Y1026000D02*
X435000D01*
X308178Y1142000D02*
X424178Y1026000D01*
X300000Y1142000D02*
X308178D01*
X419656Y1018000D02*
X435000D01*
X308356Y1129300D02*
X419656Y1018000D01*
X300000Y1129300D02*
X308356D01*
X480000Y1002000D02*
X529449D01*
X587550Y1060100D01*
Y1092756D01*
X598194Y1103400D01*
X605000D01*
X457454Y975360D02*
Y988666D01*
X452120Y994000D02*
X457454Y988666D01*
X435000Y994000D02*
X452120D01*
X480000D02*
X508918D01*
X513588Y989330D01*
X398526Y1003630D02*
X416156Y986000D01*
X435000D01*
X599388Y1072388D02*
X605000Y1078000D01*
X598932Y1072388D02*
X599388D01*
X595884Y1069340D02*
X598932Y1072388D01*
X595884Y1060274D02*
Y1069340D01*
X584804Y1049193D02*
X595884Y1060274D01*
X584804Y1041254D02*
Y1049193D01*
X522448Y978898D02*
X584804Y1041254D01*
X493794Y978898D02*
X522448D01*
X486692Y986000D02*
X493794Y978898D01*
X480000Y986000D02*
X486692D01*
X405384Y978000D02*
X435000D01*
X395224Y988160D02*
X405384Y978000D01*
X373914Y970000D02*
X435000D01*
X370840Y973074D02*
X373914Y970000D01*
X361364Y962000D02*
X435000D01*
X359382Y963982D02*
X361364Y962000D01*
X359382Y963982D02*
Y1021870D01*
X340852Y1040400D02*
X359382Y1021870D01*
X300000Y1040400D02*
X340852D01*
X522454Y954000D02*
X525780Y957326D01*
X480000Y954000D02*
X522454D01*
X366513Y946000D02*
X435000D01*
X353842Y958672D02*
X366513Y946000D01*
X353842Y958672D02*
Y987678D01*
X326520Y1015000D02*
X353842Y987678D01*
X300000Y1015000D02*
X326520D01*
X365341Y938000D02*
X435000D01*
X348302Y955040D02*
X365341Y938000D01*
X348302Y955040D02*
Y969418D01*
X315420Y1002300D02*
X348302Y969418D01*
X300000Y1002300D02*
X315420D01*
X600774Y997573D02*
X605000Y1001800D01*
X599047Y997573D02*
X600774D01*
X539474Y938000D02*
X599047Y997573D01*
X480000Y938000D02*
X539474D01*
X361503Y930000D02*
X435000D01*
X342761Y948742D02*
X361503Y930000D01*
X342761Y948742D02*
Y955040D01*
X308202Y989600D02*
X342761Y955040D01*
X300000Y989600D02*
X308202D01*
X480000Y930000D02*
X539309D01*
X598409Y989100D01*
X605000D01*
X353723Y922000D02*
X435000D01*
X320606Y955118D02*
X353723Y922000D01*
X320606Y955118D02*
Y967952D01*
X311658Y976900D02*
X320606Y967952D01*
X300000Y976900D02*
X311658D01*
X480000Y914000D02*
X542594D01*
X592294Y963700D01*
X605000D01*
X480000Y906000D02*
X565386D01*
X599386Y940000D01*
X605000D01*
X480000Y898000D02*
X570086D01*
X599386Y927300D01*
X605000D01*
X480000Y890000D02*
X483830D01*
Y890331D02*
X575117D01*
X599386Y914600D01*
X605000D01*
X480000Y882000D02*
X488554D01*
X491344Y884790D01*
X586848D01*
X599440Y897382D01*
X600482D01*
X605000Y901900D01*
X480000Y874000D02*
X489698D01*
X493522Y877824D01*
X590042D01*
X599440Y887222D01*
X603022D01*
X605000Y889200D01*
X480000Y842000D02*
X601400D01*
X605000Y838400D01*
X300000Y800700D02*
X386558D01*
X403858Y818000D01*
X435000D01*
X515814Y800300D02*
X605000D01*
X498114Y818000D02*
X515814Y800300D01*
X480000Y818000D02*
X498114D01*
X403726Y810000D02*
X435000D01*
X381726Y788000D02*
X403726Y810000D01*
X300000Y788000D02*
X381726D01*
X480000Y810000D02*
X498024D01*
X520425Y787600D01*
X605000D01*
X408043Y802000D02*
X435000D01*
X381343Y775300D02*
X408043Y802000D01*
X300000Y775300D02*
X381343D01*
X521829Y774900D02*
X605000D01*
X494729Y802000D02*
X521829Y774900D01*
X480000Y802000D02*
X494729D01*
X408069Y794000D02*
X435000D01*
X376669Y762600D02*
X408069Y794000D01*
X300000Y762600D02*
X376669D01*
X480000Y794000D02*
X488735D01*
X520535Y762200D01*
X605000D01*
X300000Y749900D02*
X378194D01*
X414294Y786000D01*
X435000D01*
X480000D02*
X488900D01*
X520576Y754324D01*
X600176D01*
X605000Y749500D01*
X418336Y778000D02*
X435000D01*
X377536Y737200D02*
X418336Y778000D01*
X300000Y737200D02*
X377536D01*
X480000Y778000D02*
X489065D01*
X518281Y748783D01*
X576335D01*
X588318Y736800D01*
X605000D01*
X300000Y724500D02*
X378344D01*
X423844Y770000D01*
X435000D01*
X480000D02*
X489230D01*
X515987Y743243D01*
X569877D01*
X589020Y724100D01*
X605000D01*
X435000Y746000D02*
X441077D01*
X457708Y762631D01*
Y769620D01*
X480000Y746000D02*
X493657D01*
X523377Y716280D01*
X536194D01*
X435000Y730000D02*
X447040D01*
X457962Y740922D01*
Y754888D01*
X468122Y765048D01*
Y784352D01*
X452882Y799592D02*
X468122Y784352D01*
X480000Y730000D02*
X493987D01*
X541965Y682022D01*
X571166D01*
X598256Y654932D01*
Y648800D02*
Y654932D01*
Y648800D02*
X605000D01*
X545338Y670814D02*
X561594D01*
X494152Y722000D02*
X545338Y670814D01*
X480000Y722000D02*
X494152D01*
X415544Y716280D02*
X417824Y714000D01*
X435000D01*
X300000Y599200D02*
X309740D01*
X324835Y614295D01*
Y632134D01*
X377453Y684752D01*
X395292D01*
X404619Y694079D01*
X420521D01*
X424442Y698000D01*
X435000D01*
X300000Y586500D02*
X306472D01*
X330375Y610403D01*
Y625865D01*
X382993Y678482D01*
X398454D01*
X407550Y687578D01*
X423028D01*
X435000Y690000D01*
X300000Y573800D02*
X308891D01*
X361879Y626787D01*
Y646962D01*
X387584Y672668D01*
X402398D01*
X411731Y682000D01*
X435000D01*
X416021Y674000D02*
X435000D01*
X408641Y666621D02*
X416021Y674000D01*
X391160Y666621D02*
X408641D01*
X368661Y644122D02*
X391160Y666621D01*
X368661Y622800D02*
Y644122D01*
X306961Y561100D02*
X368661Y622800D01*
X300000Y561100D02*
X306961D01*
X480000Y674000D02*
X490220D01*
X495300Y668920D01*
Y644906D02*
Y668920D01*
Y644906D02*
X580306Y559900D01*
X605000D01*
X300000Y548400D02*
X305341D01*
X343282Y586340D01*
Y587883D01*
X374239Y618841D01*
Y638026D01*
X397294Y661081D01*
X413713D01*
X418632Y666000D01*
X435000D01*
X461481D02*
X480000D01*
X460224Y667258D02*
X461481Y666000D01*
X419253Y658000D02*
X435000D01*
X416793Y655540D02*
X419253Y658000D01*
X402374Y655540D02*
X416793D01*
X399614Y652780D02*
X402374Y655540D01*
X399614Y635212D02*
Y652780D01*
X348822Y584420D02*
X399614Y635212D01*
X348822Y569562D02*
Y584420D01*
X314960Y535700D02*
X348822Y569562D01*
X300000Y535700D02*
X314960D01*
X409239Y650000D02*
X435000D01*
X405154Y645915D02*
X409239Y650000D01*
X405154Y630212D02*
Y645915D01*
X354362Y579420D02*
X405154Y630212D01*
X300000Y523000D02*
X331786D01*
X465582Y644398D02*
X471184Y650000D01*
X480000D01*
X417972Y642000D02*
X435000D01*
X415544Y639572D02*
X417972Y642000D01*
X599440Y509100D02*
X605000D01*
X595800Y512740D02*
X599440Y509100D01*
X595800Y512740D02*
Y532125D01*
X485925Y642000D02*
X595800Y532125D01*
X480000Y642000D02*
X485925D01*
X300000Y497600D02*
X337326D01*
X359902Y577126D02*
X411935Y629158D01*
X420608D01*
X425450Y634000D01*
X435000D01*
X419571Y610000D02*
X435000D01*
X376523Y566952D02*
X419571Y610000D01*
X300000Y459500D02*
X334956D01*
X420353Y602000D02*
X435000D01*
X382063Y563711D02*
X420353Y602000D01*
X300000Y446800D02*
X333691D01*
X469230Y658000D02*
X480000D01*
X468098Y656868D02*
X469230Y658000D01*
X456970Y656868D02*
X468098D01*
X450342Y650240D02*
X456970Y656868D01*
X450342Y578104D02*
Y650240D01*
X432308Y560070D02*
X450342Y578104D01*
X604012Y416560D02*
X614172Y426720D01*
Y530860D01*
X610532Y534500D02*
X614172Y530860D01*
X605000Y534500D02*
X610532D01*
X472440Y754000D02*
X480000D01*
X466090Y747650D02*
X472440Y754000D01*
X466090Y732282D02*
Y747650D01*
X460502Y726694D02*
X466090Y732282D01*
X480000Y610000D02*
X488296D01*
X496062Y602234D01*
Y546100D02*
Y602234D01*
Y546100D02*
X583862Y458300D01*
X605000D01*
X417202Y706000D02*
X435000D01*
X411445Y700243D02*
X417202Y706000D01*
X397257Y700243D02*
X411445D01*
X387831Y690816D02*
X397257Y700243D01*
X373107Y690816D02*
X387831D01*
X319295Y637005D02*
X373107Y690816D01*
X319295Y630705D02*
Y637005D01*
X305809Y617220D02*
X319295Y630705D01*
X305320Y617220D02*
X305809D01*
X300000Y611900D02*
X305320Y617220D01*
X480000Y618000D02*
X489440D01*
X508732Y598708D01*
Y551972D02*
Y598708D01*
Y551972D02*
X585978Y474726D01*
X300000Y662700D02*
X329463D01*
X363966Y697203D01*
X379907D01*
X420704Y738000D01*
X435000D01*
X300000Y711800D02*
X374742D01*
X424942Y762000D01*
X435000D01*
X294370Y1192800D02*
X300000D01*
X290830Y1196340D02*
X294370Y1192800D01*
X290830Y1196340D02*
Y1211326D01*
X431800Y1072642D02*
X442214D01*
X444541Y1070315D01*
Y1060581D02*
Y1070315D01*
X441960Y1058000D02*
X444541Y1060581D01*
X435000Y1058000D02*
X441960D01*
X599513Y585300D02*
X605000D01*
X494812Y690000D02*
X599513Y585300D01*
X480000Y690000D02*
X494812D01*
X594647Y598000D02*
X605000D01*
X494647Y698000D02*
X594647Y598000D01*
X480000Y698000D02*
X494647D01*
X589782Y610700D02*
X605000D01*
X494482Y706000D02*
X589782Y610700D01*
X480000Y706000D02*
X494482D01*
X584917Y623400D02*
X605000D01*
X494317Y714000D02*
X584917Y623400D01*
X480000Y714000D02*
X494317D01*
X505894Y662506D02*
Y670390D01*
X494284Y682000D02*
X505894Y670390D01*
X480000Y682000D02*
X494284D01*
X298210Y637300D02*
X300000D01*
X290830Y629920D02*
X298210Y637300D01*
X290830Y426720D02*
Y629920D01*
Y426720D02*
X294132Y423418D01*
X404368Y548822D02*
X444572Y589026D01*
Y719389D01*
X441960Y722000D02*
X444572Y719389D01*
X435000Y722000D02*
X441960D01*
X300000Y472200D02*
X334836D01*
X370983Y572216D02*
X416624Y617858D01*
X429133D01*
X429276Y618000D01*
X435000D01*
X300000Y484900D02*
X336167D01*
X365443Y574831D02*
X414009Y623398D01*
X424262D01*
X426864Y626000D01*
X435000D01*
X300000Y699100D02*
X357599D01*
X361242Y702743D01*
X376353D01*
X427610Y754000D01*
X435000D01*
X436372Y1083310D02*
X447548D01*
X452628Y1078230D01*
Y1055588D02*
Y1078230D01*
X447040Y1050000D02*
X452628Y1055588D01*
X435000Y1050000D02*
X447040D01*
X406917Y1010000D02*
X435000D01*
X400838Y1016079D02*
X406917Y1010000D01*
X400838Y1016079D02*
Y1027150D01*
X311388Y1116600D02*
X400838Y1027150D01*
X300000Y1116600D02*
X311388D01*
X605000Y1166900D02*
X612164D01*
X619760Y1174496D01*
Y1232916D01*
X609600Y1243076D02*
X619760Y1232916D01*
X446532Y1092862D02*
X463296Y1076098D01*
Y1051144D02*
Y1076098D01*
Y1051144D02*
X472440Y1042000D01*
X480000D01*
X511803Y813000D02*
X605000D01*
X498803Y826000D02*
X511803Y813000D01*
X480000Y826000D02*
X498803D01*
X472968Y602000D02*
X480000D01*
X470408Y599440D02*
X472968Y602000D01*
X470408Y587290D02*
Y599440D01*
Y587290D02*
X477520D01*
X483870Y580940D01*
Y445600D02*
Y580940D01*
X467360Y634000D02*
X480000D01*
X461264Y627904D02*
X467360Y634000D01*
X461264Y579939D02*
Y627904D01*
X446770Y565445D02*
X461264Y579939D01*
X446770Y505306D02*
Y565445D01*
Y505306D02*
X455676Y496400D01*
X480000Y738000D02*
X493822D01*
X526040Y705782D01*
X564706D01*
X587248Y683240D01*
X614040D01*
Y665160D02*
Y683240D01*
X608660Y665160D02*
X614040D01*
X605000Y661500D02*
X608660Y665160D01*
X580444Y711400D02*
X605000D01*
X558873Y732971D02*
X580444Y711400D01*
X516544Y732971D02*
X558873D01*
X487515Y762000D02*
X516544Y732971D01*
X480000Y762000D02*
X487515D01*
X480000Y626000D02*
X494090D01*
X581914Y538176D01*
Y495130D02*
Y538176D01*
Y495130D02*
X593344Y483700D01*
X605000D01*
X576242Y432900D02*
X605000D01*
X490514Y518628D02*
X576242Y432900D01*
X490514Y518628D02*
Y591166D01*
X487680Y594000D02*
X490514Y591166D01*
X480000Y594000D02*
X487680D01*
X425450Y874000D02*
X435000D01*
X423150Y876300D02*
X425450Y874000D01*
X323180Y876300D02*
X423150D01*
X309880Y889600D02*
X323180Y876300D01*
X300000Y889600D02*
X309880D01*
X378092Y866000D02*
X435000D01*
X373888Y870204D02*
X378092Y866000D01*
X319532Y870204D02*
X373888D01*
X312836Y876900D02*
X319532Y870204D01*
X300000Y876900D02*
X312836D01*
X480000Y962000D02*
X515331D01*
X521149Y967818D01*
X533400D01*
X544220Y978638D01*
X571409D01*
X595884Y1003114D01*
Y1031240D01*
X600964Y1036320D01*
X601420D01*
X605000Y1039900D01*
X473868Y1010000D02*
X480000D01*
X457454Y1026414D02*
X473868Y1010000D01*
X457454Y1026414D02*
Y1029970D01*
X503904Y1018000D02*
X503936Y1018032D01*
X480000Y1018000D02*
X503904D01*
X601420Y1137920D02*
X605000Y1141500D01*
X601040Y1137920D02*
X601420D01*
X595960Y1132840D02*
X601040Y1137920D01*
X595960Y1119454D02*
Y1132840D01*
X579138Y1102632D02*
X595960Y1119454D01*
X579138Y1064534D02*
Y1102632D01*
X543026Y1028422D02*
X579138Y1064534D01*
X493546Y1028422D02*
X543026D01*
X491124Y1026000D02*
X493546Y1028422D01*
X480000Y1026000D02*
X491124D01*
X480000Y922000D02*
X542759D01*
X597159Y976400D01*
X605000D01*
X435000Y954000D02*
X449278D01*
X453366Y958088D01*
X473048Y978000D02*
X480000D01*
X470408Y975360D02*
X473048Y978000D01*
X470408Y944626D02*
Y975360D01*
X457454Y931672D02*
X470408Y944626D01*
X575310Y931672D02*
X593630Y949993D01*
X609124D01*
X614172Y955040D01*
Y1056640D01*
X609092Y1061720D02*
X614172Y1056640D01*
X608580Y1061720D02*
X609092D01*
X605000Y1065300D02*
X608580Y1061720D01*
X480000Y946000D02*
X532742D01*
X549910Y963168D01*
X597686Y1052600D02*
X605000D01*
X590344Y1045258D02*
X597686Y1052600D01*
X590344Y1020112D02*
Y1045258D01*
X554410Y984178D02*
X590344Y1020112D01*
X538808Y984178D02*
X554410D01*
X527988Y973358D02*
X538808Y984178D01*
X509791Y973358D02*
X527988D01*
X506433Y970000D02*
X509791Y973358D01*
X480000Y970000D02*
X506433D01*
X424150Y1002000D02*
X435000D01*
X419862Y997712D02*
X424150Y1002000D01*
X520728Y1034000D02*
X568198Y1081470D01*
X480000Y1034000D02*
X520728D01*
X480000Y1050000D02*
X514997D01*
X590419Y1125422D01*
Y1165480D01*
X604540Y1179600D01*
X605000D01*
X480000Y1066000D02*
X497654D01*
X584200Y1152546D01*
Y1189760D01*
X599440Y1205000D01*
X605000D01*
Y1192300D02*
X610132D01*
X614172Y1196340D01*
Y1214120D01*
X609092Y1219200D02*
X614172Y1214120D01*
X581441Y1219200D02*
X609092D01*
X500123Y1137882D02*
X581441Y1219200D01*
X500123Y1086356D02*
Y1137882D01*
X486410Y1072642D02*
X500123Y1086356D01*
X470408Y1072642D02*
X486410D01*
X470408Y1061720D02*
Y1072642D01*
Y1061720D02*
X474128Y1058000D01*
X480000D01*
X403234Y826000D02*
X435000D01*
X390634Y813400D02*
X403234Y826000D01*
X300000Y813400D02*
X390634D01*
X516307Y825700D02*
X605000D01*
X508007Y834000D02*
X516307Y825700D01*
X480000Y834000D02*
X508007D01*
X371374D02*
X435000D01*
X363474Y826100D02*
X371374Y834000D01*
X300000Y826100D02*
X363474D01*
X480000Y866000D02*
X493014D01*
X499091Y872077D01*
X600578D01*
X605000Y876500D01*
X300000Y902300D02*
X305562D01*
X325862Y882000D01*
X435000D01*
X339745Y890000D02*
X435000D01*
X314745Y915000D02*
X339745Y890000D01*
X300000Y915000D02*
X314745D01*
X300000Y940400D02*
X306486D01*
X340886Y906000D01*
X435000D01*
X350200Y914000D02*
X435000D01*
X300000Y964200D02*
X350200Y914000D01*
X339580Y898000D02*
X435000D01*
X309880Y927700D02*
X339580Y898000D01*
X300000Y927700D02*
X309880D01*
X370436Y858000D02*
X435000D01*
X364236Y864200D02*
X370436Y858000D01*
X300000Y864200D02*
X364236D01*
X545295Y863800D02*
X605000D01*
X539496Y858000D02*
X545295Y863800D01*
X480000Y858000D02*
X539496D01*
X368022Y850000D02*
X435000D01*
X366522Y851500D02*
X368022Y850000D01*
X300000Y851500D02*
X366522D01*
X542881Y851100D02*
X605000D01*
X541782Y850000D02*
X542881Y851100D01*
X480000Y850000D02*
X541782D01*
X368960Y842000D02*
X435000D01*
X365760Y838800D02*
X368960Y842000D01*
X300000Y838800D02*
X365760D01*
D21*
X605000Y963700D02*
D03*
Y976400D02*
D03*
Y989100D02*
D03*
Y1001800D02*
D03*
Y1014500D02*
D03*
Y1027200D02*
D03*
Y1039900D02*
D03*
Y1052600D02*
D03*
Y1065300D02*
D03*
Y1078000D02*
D03*
Y1090700D02*
D03*
Y1103400D02*
D03*
Y1116100D02*
D03*
Y1128800D02*
D03*
Y1141500D02*
D03*
Y1154200D02*
D03*
Y1166900D02*
D03*
Y1179600D02*
D03*
Y1192300D02*
D03*
X300000Y1205500D02*
D03*
Y1192800D02*
D03*
Y1180100D02*
D03*
Y1167400D02*
D03*
Y1154700D02*
D03*
Y1142000D02*
D03*
Y1129300D02*
D03*
Y1116600D02*
D03*
Y1103900D02*
D03*
Y1091200D02*
D03*
Y1078500D02*
D03*
Y1065800D02*
D03*
Y1053100D02*
D03*
Y1040400D02*
D03*
Y1027700D02*
D03*
Y1015000D02*
D03*
Y1002300D02*
D03*
Y989600D02*
D03*
Y976900D02*
D03*
X605000Y698700D02*
D03*
Y711400D02*
D03*
Y724100D02*
D03*
Y736800D02*
D03*
Y749500D02*
D03*
Y762200D02*
D03*
Y774900D02*
D03*
Y787600D02*
D03*
Y800300D02*
D03*
Y813000D02*
D03*
Y825700D02*
D03*
Y838400D02*
D03*
Y851100D02*
D03*
Y863800D02*
D03*
Y876500D02*
D03*
Y889200D02*
D03*
Y901900D02*
D03*
Y914600D02*
D03*
Y927300D02*
D03*
X300000Y940400D02*
D03*
Y927700D02*
D03*
Y915000D02*
D03*
Y902300D02*
D03*
Y889600D02*
D03*
Y876900D02*
D03*
Y864200D02*
D03*
Y851500D02*
D03*
Y838800D02*
D03*
Y826100D02*
D03*
Y813400D02*
D03*
Y800700D02*
D03*
Y788000D02*
D03*
Y775300D02*
D03*
Y762600D02*
D03*
Y749900D02*
D03*
Y737200D02*
D03*
Y724500D02*
D03*
Y711800D02*
D03*
X605000Y432900D02*
D03*
Y445600D02*
D03*
Y458300D02*
D03*
Y471000D02*
D03*
Y483700D02*
D03*
Y496400D02*
D03*
Y509100D02*
D03*
Y521800D02*
D03*
Y534500D02*
D03*
Y547200D02*
D03*
Y559900D02*
D03*
Y572600D02*
D03*
Y585300D02*
D03*
Y598000D02*
D03*
Y610700D02*
D03*
Y623400D02*
D03*
Y636100D02*
D03*
Y648800D02*
D03*
Y661500D02*
D03*
X300000Y675400D02*
D03*
Y662700D02*
D03*
Y650000D02*
D03*
Y637300D02*
D03*
Y624600D02*
D03*
Y611900D02*
D03*
Y599200D02*
D03*
Y586500D02*
D03*
Y573800D02*
D03*
Y561100D02*
D03*
Y548400D02*
D03*
Y535700D02*
D03*
Y523000D02*
D03*
Y510300D02*
D03*
Y497600D02*
D03*
Y484900D02*
D03*
Y472200D02*
D03*
Y459500D02*
D03*
Y446800D02*
D03*
D22*
X605000Y1205000D02*
D03*
X300000Y964200D02*
D03*
X605000Y940000D02*
D03*
X300000Y699100D02*
D03*
X605000Y674200D02*
D03*
X300000Y434100D02*
D03*
D23*
X472500Y576000D02*
D03*
Y1084000D02*
D03*
D24*
X457500Y561000D02*
D03*
Y1099000D02*
D03*
D25*
X390000Y440000D02*
D03*
X457454Y975360D02*
D03*
X513588Y989330D02*
D03*
X398526Y1003630D02*
D03*
X395224Y988160D02*
D03*
X370840Y973074D02*
D03*
X525780Y957326D02*
D03*
X457708Y769620D02*
D03*
X536194Y716280D02*
D03*
X452882Y799592D02*
D03*
X561594Y670814D02*
D03*
X415544Y716280D02*
D03*
X460224Y667258D02*
D03*
X465582Y644398D02*
D03*
X415544Y639572D02*
D03*
X460502Y726694D02*
D03*
X585978Y474726D02*
D03*
X505894Y662506D02*
D03*
X436372Y1083310D02*
D03*
X483870Y445600D02*
D03*
X455676Y496400D02*
D03*
X457454Y1029970D02*
D03*
X503936Y1018032D02*
D03*
X453366Y958088D02*
D03*
X457454Y931672D02*
D03*
X575310D02*
D03*
X549910Y963168D02*
D03*
X419862Y997712D02*
D03*
X568198Y1081470D02*
D03*
M02*
