M48
;Layer_Color=9474304
;FILE_FORMAT=4:2
METRIC,LZ
;TYPE=PLATED
T1F00S00C0.71
T2F00S00C0.83
T3F00S00C0.90
;TYPE=NON_PLATED
T4F00S00C1.45
%
T01
X003813Y003142
X005136Y00161
X00492Y005457
X004686Y005446
X004663Y005606
X004577Y00585
X004605Y006216
X004745Y006152
X004897Y006287
X005188Y006315
X005182Y006542
X005322Y006688
X005312Y006853
X005215Y007006
X005331Y007132
X005329Y007396
X005174Y007328
X005248Y007584
X00525Y007783
X005624Y006635
X006058Y006734
X006017Y006972
X003998Y007193
X003134Y007783
X003647Y00477
X003868Y009484
X004364Y009646
X004483Y009359
X004849Y009406
X00479Y009093
X004821Y008941
X005169Y008987
Y009246
X005324Y009434
X005331Y009766
X005753Y009721
X005794Y009467
X005696Y009006
X005621Y008842
X005851Y008735
X005984Y008816
X005291Y008766
X005232Y008402
X004403Y008711
X004126Y008555
X004711Y009754
X006383Y009357
X006772Y009449
X006731Y010135
X00683Y010432
X007653Y011567
X005225Y012667
X005329Y013706
X005458Y01396
T02
X00525Y005396
Y010776
T03
X00325Y000474
Y000728
Y000982
Y001236
Y00149
Y001744
Y001998
Y002252
Y002506
Y00276
Y003014
Y003268
Y003522
Y003776
X00725Y003726
Y003472
Y003218
Y002964
Y00271
Y002456
Y002202
Y001948
Y001694
Y00144
Y001186
Y000932
Y000678
Y000424
Y00398
Y004234
Y004488
Y004742
Y004996
Y00525
Y00555
Y005804
Y006058
Y006312
Y006566
Y00682
Y007074
Y007328
Y007582
Y007836
X00325Y00791
Y007656
Y007402
Y007148
Y006894
Y00664
Y006386
Y006132
Y005878
Y005624
Y0053
Y005046
Y004792
Y004538
Y004284
Y00403
Y008164
Y008418
Y008672
Y008926
Y00918
Y009434
Y009688
Y009942
Y010196
Y01045
X00325Y01075
Y011004
Y011258
Y011512
Y011766
X00725Y011716
Y011462
Y011208
Y010954
Y0107
Y010376
Y010122
Y009868
Y009614
Y00936
Y009106
Y008852
Y008598
Y008344
Y00809
Y01197
Y012224
Y012478
Y012732
Y012986
Y01324
Y013494
Y013748
Y014002
Y014256
Y01451
Y014764
Y015018
Y015272
Y015526
X00325Y015576
Y015322
Y015068
Y014814
Y01456
Y014306
Y014052
Y013798
Y013544
Y01329
Y013036
Y012782
Y012528
Y012274
Y01202
T04
X0054Y005546
Y010626
M30
