G04*
G04 #@! TF.GenerationSoftware,Altium Limited,Altium Designer,23.0.1 (38)*
G04*
G04 Layer_Color=65535*
%FSLAX44Y44*%
%MOMM*%
G71*
G04*
G04 #@! TF.SameCoordinates,C093C058-C0E8-49C4-9D07-7802162F4E86*
G04*
G04*
G04 #@! TF.FilePolarity,Positive*
G04*
G01*
G75*
%ADD10C,0.2000*%
%ADD11C,0.2540*%
D10*
X422900Y1066000D02*
G03*
X422900Y1066000I-1000J0D01*
G01*
X596000Y954700D02*
Y1214000D01*
Y954700D02*
X614000D01*
Y1214000D01*
X596000D02*
X614000D01*
X309000Y955200D02*
Y1214500D01*
X291000D02*
X309000D01*
X291000Y955200D02*
Y1214500D01*
Y955200D02*
X309000D01*
X429500Y552500D02*
X442500D01*
X472500D02*
X485500D01*
X429500D02*
Y587000D01*
Y1073000D02*
Y1091500D01*
X485500Y552500D02*
Y587000D01*
Y1073000D02*
Y1107500D01*
X429500Y1091500D02*
X445500Y1107500D01*
X472500D02*
X485500D01*
X596000Y689700D02*
Y949000D01*
Y689700D02*
X614000D01*
Y949000D01*
X596000D02*
X614000D01*
X309000Y690100D02*
Y949400D01*
X291000D02*
X309000D01*
X291000Y690100D02*
Y949400D01*
Y690100D02*
X309000D01*
X596000Y423900D02*
Y683199D01*
Y423900D02*
X614000D01*
Y683199D01*
X596000D02*
X614000D01*
X309000Y425100D02*
Y684400D01*
X291000D02*
X309000D01*
X291000Y425100D02*
Y684400D01*
Y425100D02*
X309000D01*
D11*
X597492Y1222502D02*
Y1237737D01*
X605109D01*
X607649Y1235198D01*
Y1230119D01*
X605109Y1227580D01*
X597492D01*
X622884Y1222502D02*
X612727D01*
X622884Y1232659D01*
Y1235198D01*
X620344Y1237737D01*
X615266D01*
X612727Y1235198D01*
X292608Y1223010D02*
Y1238245D01*
X300226D01*
X302765Y1235706D01*
Y1230628D01*
X300226Y1228088D01*
X292608D01*
X307843Y1223010D02*
X312921D01*
X310382D01*
Y1238245D01*
X307843Y1235706D01*
X432601Y1135883D02*
X427522D01*
X430061D01*
Y1123187D01*
X427522Y1120648D01*
X424983D01*
X422444Y1123187D01*
X437679Y1120648D02*
X442757D01*
X440218D01*
Y1135883D01*
X437679Y1133344D01*
X597492Y957580D02*
Y972815D01*
X605109D01*
X607649Y970276D01*
Y965198D01*
X605109Y962658D01*
X597492D01*
X620344Y957580D02*
Y972815D01*
X612727Y965198D01*
X622884D01*
X292608Y958088D02*
Y973323D01*
X300226D01*
X302765Y970784D01*
Y965705D01*
X300226Y963166D01*
X292608D01*
X307843Y970784D02*
X310382Y973323D01*
X315461D01*
X318000Y970784D01*
Y968245D01*
X315461Y965705D01*
X312921D01*
X315461D01*
X318000Y963166D01*
Y960627D01*
X315461Y958088D01*
X310382D01*
X307843Y960627D01*
X597492Y691896D02*
Y707131D01*
X605109D01*
X607649Y704592D01*
Y699513D01*
X605109Y696974D01*
X597492D01*
X622884Y707131D02*
X617805Y704592D01*
X612727Y699513D01*
Y694435D01*
X615266Y691896D01*
X620344D01*
X622884Y694435D01*
Y696974D01*
X620344Y699513D01*
X612727D01*
X292608Y692912D02*
Y708147D01*
X300226D01*
X302765Y705608D01*
Y700529D01*
X300226Y697990D01*
X292608D01*
X318000Y708147D02*
X307843D01*
Y700529D01*
X312921Y703069D01*
X315461D01*
X318000Y700529D01*
Y695451D01*
X315461Y692912D01*
X310382D01*
X307843Y695451D01*
M02*
