G04*
G04 #@! TF.GenerationSoftware,Altium Limited,Altium Designer,23.0.1 (38)*
G04*
G04 Layer_Color=2752767*
%FSLAX44Y44*%
%MOMM*%
G71*
G04*
G04 #@! TF.SameCoordinates,C093C058-C0E8-49C4-9D07-7802162F4E86*
G04*
G04*
G04 #@! TF.FilePolarity,Positive*
G04*
G01*
G75*
%ADD28C,0.1270*%
%ADD29C,0.1693*%
D28*
X599920Y958620D02*
Y968780D01*
X610080D01*
Y958620D01*
X599920D01*
Y971320D02*
Y981480D01*
X610080D01*
Y971320D01*
X599920D01*
Y984020D02*
Y994180D01*
X610080D01*
Y984020D01*
X599920D01*
Y996720D02*
Y1006880D01*
X610080D01*
Y996720D01*
X599920D01*
Y1009420D02*
Y1019580D01*
X610080D01*
Y1009420D01*
X599920D01*
Y1022120D02*
Y1032280D01*
X610080D01*
Y1022120D01*
X599920D01*
Y1034820D02*
Y1044980D01*
X610080D01*
Y1034820D01*
X599920D01*
Y1047520D02*
Y1057680D01*
X610080D01*
Y1047520D01*
X599920D01*
Y1060220D02*
Y1070380D01*
X610080D01*
Y1060220D01*
X599920D01*
Y1072920D02*
Y1083080D01*
X610080D01*
Y1072920D01*
X599920D01*
Y1085620D02*
Y1095780D01*
X610080D01*
Y1085620D01*
X599920D01*
Y1098320D02*
Y1108480D01*
X610080D01*
Y1098320D01*
X599920D01*
Y1111020D02*
Y1121180D01*
X610080D01*
Y1111020D01*
X599920D01*
Y1123720D02*
Y1133880D01*
X610080D01*
Y1123720D01*
X599920D01*
Y1136420D02*
Y1146580D01*
X610080D01*
Y1136420D01*
X599920D01*
Y1149120D02*
Y1159280D01*
X610080D01*
Y1149120D01*
X599920D01*
Y1161820D02*
Y1171980D01*
X610080D01*
Y1161820D01*
X599920D01*
Y1174520D02*
Y1184680D01*
X610080D01*
Y1174520D01*
X599920D01*
Y1187220D02*
Y1197380D01*
X610080D01*
Y1187220D01*
X599920D01*
Y1199920D02*
Y1210080D01*
X610080D01*
Y1199920D01*
X599920D01*
X294920Y1200420D02*
Y1210580D01*
X305080D01*
Y1200420D01*
X294920D01*
Y1187720D02*
Y1197880D01*
X305080D01*
Y1187720D01*
X294920D01*
Y1175020D02*
Y1185180D01*
X305080D01*
Y1175020D01*
X294920D01*
Y1162320D02*
Y1172480D01*
X305080D01*
Y1162320D01*
X294920D01*
Y1149620D02*
Y1159780D01*
X305080D01*
Y1149620D01*
X294920D01*
Y1136920D02*
Y1147080D01*
X305080D01*
Y1136920D01*
X294920D01*
Y1124220D02*
Y1134380D01*
X305080D01*
Y1124220D01*
X294920D01*
Y1111520D02*
Y1121680D01*
X305080D01*
Y1111520D01*
X294920D01*
Y1098820D02*
Y1108980D01*
X305080D01*
Y1098820D01*
X294920D01*
Y1086120D02*
Y1096280D01*
X305080D01*
Y1086120D01*
X294920D01*
Y1073420D02*
Y1083580D01*
X305080D01*
Y1073420D01*
X294920D01*
Y1060720D02*
Y1070880D01*
X305080D01*
Y1060720D01*
X294920D01*
Y1048020D02*
Y1058180D01*
X305080D01*
Y1048020D01*
X294920D01*
Y1035320D02*
Y1045480D01*
X305080D01*
Y1035320D01*
X294920D01*
Y1022620D02*
Y1032780D01*
X305080D01*
Y1022620D01*
X294920D01*
Y1009920D02*
Y1020080D01*
X305080D01*
Y1009920D01*
X294920D01*
Y997220D02*
Y1007380D01*
X305080D01*
Y997220D01*
X294920D01*
Y984520D02*
Y994680D01*
X305080D01*
Y984520D01*
X294920D01*
Y971820D02*
Y981980D01*
X305080D01*
Y971820D01*
X294920D01*
Y959120D02*
Y969280D01*
X305080D01*
Y959120D01*
X294920D01*
X457500Y555920D02*
X452420Y566080D01*
X462580D01*
X457500Y555920D01*
Y1093920D02*
X452420Y1104080D01*
X462580D01*
X457500Y1093920D01*
X599920Y693620D02*
Y703780D01*
X610080D01*
Y693620D01*
X599920D01*
Y706320D02*
Y716480D01*
X610080D01*
Y706320D01*
X599920D01*
Y719020D02*
Y729180D01*
X610080D01*
Y719020D01*
X599920D01*
Y731720D02*
Y741880D01*
X610080D01*
Y731720D01*
X599920D01*
Y744420D02*
Y754580D01*
X610080D01*
Y744420D01*
X599920D01*
Y757120D02*
Y767280D01*
X610080D01*
Y757120D01*
X599920D01*
Y769820D02*
Y779980D01*
X610080D01*
Y769820D01*
X599920D01*
Y782520D02*
Y792680D01*
X610080D01*
Y782520D01*
X599920D01*
Y795220D02*
Y805380D01*
X610080D01*
Y795220D01*
X599920D01*
Y807920D02*
Y818080D01*
X610080D01*
Y807920D01*
X599920D01*
Y820620D02*
Y830780D01*
X610080D01*
Y820620D01*
X599920D01*
Y833320D02*
Y843480D01*
X610080D01*
Y833320D01*
X599920D01*
Y846020D02*
Y856180D01*
X610080D01*
Y846020D01*
X599920D01*
Y858720D02*
Y868880D01*
X610080D01*
Y858720D01*
X599920D01*
Y871420D02*
Y881580D01*
X610080D01*
Y871420D01*
X599920D01*
Y884120D02*
Y894280D01*
X610080D01*
Y884120D01*
X599920D01*
Y896820D02*
Y906980D01*
X610080D01*
Y896820D01*
X599920D01*
Y909520D02*
Y919680D01*
X610080D01*
Y909520D01*
X599920D01*
Y922220D02*
Y932380D01*
X610080D01*
Y922220D01*
X599920D01*
Y934920D02*
Y945080D01*
X610080D01*
Y934920D01*
X599920D01*
X294920Y935320D02*
Y945480D01*
X305080D01*
Y935320D01*
X294920D01*
Y922620D02*
Y932780D01*
X305080D01*
Y922620D01*
X294920D01*
Y909920D02*
Y920080D01*
X305080D01*
Y909920D01*
X294920D01*
Y897220D02*
Y907380D01*
X305080D01*
Y897220D01*
X294920D01*
Y884520D02*
Y894680D01*
X305080D01*
Y884520D01*
X294920D01*
Y871820D02*
Y881980D01*
X305080D01*
Y871820D01*
X294920D01*
Y859120D02*
Y869280D01*
X305080D01*
Y859120D01*
X294920D01*
Y846420D02*
Y856580D01*
X305080D01*
Y846420D01*
X294920D01*
Y833720D02*
Y843880D01*
X305080D01*
Y833720D01*
X294920D01*
Y821020D02*
Y831180D01*
X305080D01*
Y821020D01*
X294920D01*
Y808320D02*
Y818480D01*
X305080D01*
Y808320D01*
X294920D01*
Y795620D02*
Y805780D01*
X305080D01*
Y795620D01*
X294920D01*
Y782920D02*
Y793080D01*
X305080D01*
Y782920D01*
X294920D01*
Y770220D02*
Y780380D01*
X305080D01*
Y770220D01*
X294920D01*
Y757520D02*
Y767680D01*
X305080D01*
Y757520D01*
X294920D01*
Y744820D02*
Y754980D01*
X305080D01*
Y744820D01*
X294920D01*
Y732120D02*
Y742280D01*
X305080D01*
Y732120D01*
X294920D01*
Y719420D02*
Y729580D01*
X305080D01*
Y719420D01*
X294920D01*
Y706720D02*
Y716880D01*
X305080D01*
Y706720D01*
X294920D01*
Y694020D02*
Y704180D01*
X305080D01*
Y694020D01*
X294920D01*
X599920Y427820D02*
Y437980D01*
X610080D01*
Y427820D01*
X599920D01*
Y440520D02*
Y450680D01*
X610080D01*
Y440520D01*
X599920D01*
Y453220D02*
Y463380D01*
X610080D01*
Y453220D01*
X599920D01*
Y465920D02*
Y476080D01*
X610080D01*
Y465920D01*
X599920D01*
Y478620D02*
Y488780D01*
X610080D01*
Y478620D01*
X599920D01*
Y491320D02*
Y501480D01*
X610080D01*
Y491320D01*
X599920D01*
Y504020D02*
Y514180D01*
X610080D01*
Y504020D01*
X599920D01*
Y516720D02*
Y526880D01*
X610080D01*
Y516720D01*
X599920D01*
Y529420D02*
Y539580D01*
X610080D01*
Y529420D01*
X599920D01*
Y542120D02*
Y552280D01*
X610080D01*
Y542120D01*
X599920D01*
Y554820D02*
Y564980D01*
X610080D01*
Y554820D01*
X599920D01*
Y567520D02*
Y577680D01*
X610080D01*
Y567520D01*
X599920D01*
Y580220D02*
Y590380D01*
X610080D01*
Y580220D01*
X599920D01*
Y592920D02*
Y603080D01*
X610080D01*
Y592920D01*
X599920D01*
Y605620D02*
Y615780D01*
X610080D01*
Y605620D01*
X599920D01*
Y618320D02*
Y628480D01*
X610080D01*
Y618320D01*
X599920D01*
Y631020D02*
Y641180D01*
X610080D01*
Y631020D01*
X599920D01*
Y643720D02*
Y653880D01*
X610080D01*
Y643720D01*
X599920D01*
Y656420D02*
Y666580D01*
X610080D01*
Y656420D01*
X599920D01*
Y669120D02*
Y679280D01*
X610080D01*
Y669120D01*
X599920D01*
X294920Y670320D02*
Y680480D01*
X305080D01*
Y670320D01*
X294920D01*
Y657620D02*
Y667780D01*
X305080D01*
Y657620D01*
X294920D01*
Y644920D02*
Y655080D01*
X305080D01*
Y644920D01*
X294920D01*
Y632220D02*
Y642380D01*
X305080D01*
Y632220D01*
X294920D01*
Y619520D02*
Y629680D01*
X305080D01*
Y619520D01*
X294920D01*
Y606820D02*
Y616980D01*
X305080D01*
Y606820D01*
X294920D01*
Y594120D02*
Y604280D01*
X305080D01*
Y594120D01*
X294920D01*
Y581420D02*
Y591580D01*
X305080D01*
Y581420D01*
X294920D01*
Y568720D02*
Y578880D01*
X305080D01*
Y568720D01*
X294920D01*
Y556020D02*
Y566180D01*
X305080D01*
Y556020D01*
X294920D01*
Y543320D02*
Y553480D01*
X305080D01*
Y543320D01*
X294920D01*
Y530620D02*
Y540780D01*
X305080D01*
Y530620D01*
X294920D01*
Y517920D02*
Y528080D01*
X305080D01*
Y517920D01*
X294920D01*
Y505220D02*
Y515380D01*
X305080D01*
Y505220D01*
X294920D01*
Y492520D02*
Y502680D01*
X305080D01*
Y492520D01*
X294920D01*
Y479820D02*
Y489980D01*
X305080D01*
Y479820D01*
X294920D01*
Y467120D02*
Y477280D01*
X305080D01*
Y467120D01*
X294920D01*
Y454420D02*
Y464580D01*
X305080D01*
Y454420D01*
X294920D01*
Y441720D02*
Y451880D01*
X305080D01*
Y441720D01*
X294920D01*
Y429020D02*
Y439180D01*
X305080D01*
Y429020D01*
X294920D01*
X390000Y434920D02*
X392540Y437460D01*
X395080D01*
X392540Y440000D01*
X395080Y442540D01*
X392540D01*
X390000Y445080D01*
X387460Y442540D01*
X384920D01*
X387460Y440000D01*
X384920Y437460D01*
X387460D01*
X390000Y434920D01*
X457454Y970280D02*
X459994Y972820D01*
X462534D01*
X459994Y975360D01*
X462534Y977900D01*
X459994D01*
X457454Y980440D01*
X454914Y977900D01*
X452374D01*
X454914Y975360D01*
X452374Y972820D01*
X454914D01*
X457454Y970280D01*
X513588Y984250D02*
X516128Y986790D01*
X518668D01*
X516128Y989330D01*
X518668Y991870D01*
X516128D01*
X513588Y994410D01*
X511048Y991870D01*
X508508D01*
X511048Y989330D01*
X508508Y986790D01*
X511048D01*
X513588Y984250D01*
X398526Y998550D02*
X401066Y1001090D01*
X403606D01*
X401066Y1003630D01*
X403606Y1006170D01*
X401066D01*
X398526Y1008710D01*
X395986Y1006170D01*
X393446D01*
X395986Y1003630D01*
X393446Y1001090D01*
X395986D01*
X398526Y998550D01*
X395224Y983080D02*
X397764Y985620D01*
X400304D01*
X397764Y988160D01*
X400304Y990700D01*
X397764D01*
X395224Y993240D01*
X392684Y990700D01*
X390144D01*
X392684Y988160D01*
X390144Y985620D01*
X392684D01*
X395224Y983080D01*
X370840Y967994D02*
X373380Y970534D01*
X375920D01*
X373380Y973074D01*
X375920Y975614D01*
X373380D01*
X370840Y978154D01*
X368300Y975614D01*
X365760D01*
X368300Y973074D01*
X365760Y970534D01*
X368300D01*
X370840Y967994D01*
X525780Y952246D02*
X528320Y954786D01*
X530860D01*
X528320Y957326D01*
X530860Y959866D01*
X528320D01*
X525780Y962406D01*
X523240Y959866D01*
X520700D01*
X523240Y957326D01*
X520700Y954786D01*
X523240D01*
X525780Y952246D01*
X457708Y764540D02*
X460248Y767080D01*
X462788D01*
X460248Y769620D01*
X462788Y772160D01*
X460248D01*
X457708Y774700D01*
X455168Y772160D01*
X452628D01*
X455168Y769620D01*
X452628Y767080D01*
X455168D01*
X457708Y764540D01*
X536194Y711200D02*
X538734Y713740D01*
X541274D01*
X538734Y716280D01*
X541274Y718820D01*
X538734D01*
X536194Y721360D01*
X533654Y718820D01*
X531114D01*
X533654Y716280D01*
X531114Y713740D01*
X533654D01*
X536194Y711200D01*
X452882Y794512D02*
X455422Y797052D01*
X457962D01*
X455422Y799592D01*
X457962Y802132D01*
X455422D01*
X452882Y804672D01*
X450342Y802132D01*
X447802D01*
X450342Y799592D01*
X447802Y797052D01*
X450342D01*
X452882Y794512D01*
X561594Y665734D02*
X564134Y668274D01*
X566674D01*
X564134Y670814D01*
X566674Y673354D01*
X564134D01*
X561594Y675894D01*
X559054Y673354D01*
X556514D01*
X559054Y670814D01*
X556514Y668274D01*
X559054D01*
X561594Y665734D01*
X415544Y711200D02*
X418084Y713740D01*
X420624D01*
X418084Y716280D01*
X420624Y718820D01*
X418084D01*
X415544Y721360D01*
X413004Y718820D01*
X410464D01*
X413004Y716280D01*
X410464Y713740D01*
X413004D01*
X415544Y711200D01*
X460224Y662178D02*
X462764Y664718D01*
X465304D01*
X462764Y667258D01*
X465304Y669798D01*
X462764D01*
X460224Y672338D01*
X457684Y669798D01*
X455144D01*
X457684Y667258D01*
X455144Y664718D01*
X457684D01*
X460224Y662178D01*
X465582Y639318D02*
X468122Y641858D01*
X470662D01*
X468122Y644398D01*
X470662Y646938D01*
X468122D01*
X465582Y649478D01*
X463042Y646938D01*
X460502D01*
X463042Y644398D01*
X460502Y641858D01*
X463042D01*
X465582Y639318D01*
X415544Y634492D02*
X418084Y637032D01*
X420624D01*
X418084Y639572D01*
X420624Y642112D01*
X418084D01*
X415544Y644652D01*
X413004Y642112D01*
X410464D01*
X413004Y639572D01*
X410464Y637032D01*
X413004D01*
X415544Y634492D01*
X460502Y721614D02*
X463042Y724154D01*
X465582D01*
X463042Y726694D01*
X465582Y729234D01*
X463042D01*
X460502Y731774D01*
X457962Y729234D01*
X455422D01*
X457962Y726694D01*
X455422Y724154D01*
X457962D01*
X460502Y721614D01*
X585978Y469646D02*
X588518Y472186D01*
X591058D01*
X588518Y474726D01*
X591058Y477266D01*
X588518D01*
X585978Y479806D01*
X583438Y477266D01*
X580898D01*
X583438Y474726D01*
X580898Y472186D01*
X583438D01*
X585978Y469646D01*
X505894Y657426D02*
X508434Y659966D01*
X510974D01*
X508434Y662506D01*
X510974Y665046D01*
X508434D01*
X505894Y667586D01*
X503354Y665046D01*
X500814D01*
X503354Y662506D01*
X500814Y659966D01*
X503354D01*
X505894Y657426D01*
X436372Y1078230D02*
X438912Y1080770D01*
X441452D01*
X438912Y1083310D01*
X441452Y1085850D01*
X438912D01*
X436372Y1088390D01*
X433832Y1085850D01*
X431292D01*
X433832Y1083310D01*
X431292Y1080770D01*
X433832D01*
X436372Y1078230D01*
X483870Y440520D02*
X486410Y443060D01*
X488950D01*
X486410Y445600D01*
X488950Y448140D01*
X486410D01*
X483870Y450680D01*
X481330Y448140D01*
X478790D01*
X481330Y445600D01*
X478790Y443060D01*
X481330D01*
X483870Y440520D01*
X455676Y491320D02*
X458216Y493860D01*
X460756D01*
X458216Y496400D01*
X460756Y498940D01*
X458216D01*
X455676Y501480D01*
X453136Y498940D01*
X450596D01*
X453136Y496400D01*
X450596Y493860D01*
X453136D01*
X455676Y491320D01*
X457454Y1024890D02*
X459994Y1027430D01*
X462534D01*
X459994Y1029970D01*
X462534Y1032510D01*
X459994D01*
X457454Y1035050D01*
X454914Y1032510D01*
X452374D01*
X454914Y1029970D01*
X452374Y1027430D01*
X454914D01*
X457454Y1024890D01*
X503936Y1012952D02*
X506476Y1015492D01*
X509016D01*
X506476Y1018032D01*
X509016Y1020572D01*
X506476D01*
X503936Y1023112D01*
X501396Y1020572D01*
X498856D01*
X501396Y1018032D01*
X498856Y1015492D01*
X501396D01*
X503936Y1012952D01*
X453366Y953008D02*
X455906Y955548D01*
X458446D01*
X455906Y958088D01*
X458446Y960628D01*
X455906D01*
X453366Y963168D01*
X450826Y960628D01*
X448286D01*
X450826Y958088D01*
X448286Y955548D01*
X450826D01*
X453366Y953008D01*
X457454Y926592D02*
X459994Y929132D01*
X462534D01*
X459994Y931672D01*
X462534Y934212D01*
X459994D01*
X457454Y936752D01*
X454914Y934212D01*
X452374D01*
X454914Y931672D01*
X452374Y929132D01*
X454914D01*
X457454Y926592D01*
X575310D02*
X577850Y929132D01*
X580390D01*
X577850Y931672D01*
X580390Y934212D01*
X577850D01*
X575310Y936752D01*
X572770Y934212D01*
X570230D01*
X572770Y931672D01*
X570230Y929132D01*
X572770D01*
X575310Y926592D01*
X549910Y958088D02*
X552450Y960628D01*
X554990D01*
X552450Y963168D01*
X554990Y965708D01*
X552450D01*
X549910Y968248D01*
X547370Y965708D01*
X544830D01*
X547370Y963168D01*
X544830Y960628D01*
X547370D01*
X549910Y958088D01*
X419862Y992632D02*
X422402Y995172D01*
X424942D01*
X422402Y997712D01*
X424942Y1000252D01*
X422402D01*
X419862Y1002792D01*
X417322Y1000252D01*
X414782D01*
X417322Y997712D01*
X414782Y995172D01*
X417322D01*
X419862Y992632D01*
X568198Y1076390D02*
X570738Y1078930D01*
X573278D01*
X570738Y1081470D01*
X573278Y1084010D01*
X570738D01*
X568198Y1086550D01*
X565658Y1084010D01*
X563118D01*
X565658Y1081470D01*
X563118Y1078930D01*
X565658D01*
X568198Y1076390D01*
D29*
X477580Y576000D02*
G03*
X477580Y576000I-5080J0D01*
G01*
Y1084000D02*
G03*
X477580Y1084000I-5080J0D01*
G01*
M02*
