M48
;Layer_Color=9474304
;FILE_FORMAT=4:4
METRIC,LZ
;TYPE=PLATED
T1F00S00C0.6000
T2F00S00C0.7112
T3F00S00C0.8300
;TYPE=NON_PLATED
T4F00S00C1.4500
%
T01
X00605Y004329
Y004456
Y004583
Y00471
Y004837
Y004964
Y005091
Y005218
Y005345
Y005472
Y005599
Y005726
Y005853
Y00598
Y006107
Y006234
Y006361
Y006488
Y006615
Y006742
Y006987
Y007114
Y007241
Y007368
Y007495
Y007622
Y007749
Y007876
X003Y00788
Y007753
Y007626
Y007499
Y007372
Y007245
Y007118
Y006991
Y006754
Y006627
Y0065
Y006373
Y006246
Y006119
Y005992
Y005865
Y005738
Y005611
Y005484
Y005357
Y00523
Y005103
Y004976
Y004849
Y004722
Y004595
Y004468
Y004341
Y008007
Y008134
Y008261
Y008388
Y008515
Y008642
Y008769
Y008896
Y009023
Y00915
Y009277
Y009404
Y009642
Y009769
Y009896
Y010023
Y01015
Y010277
Y010404
Y010531
Y010658
Y010785
Y010912
Y011039
Y011166
Y011293
Y01142
Y011547
Y011674
Y011801
X00605Y011796
Y011669
Y011542
Y011415
Y011288
Y011161
Y011034
Y010907
Y01078
Y010653
Y010526
Y010399
Y010272
Y010145
Y010018
Y009891
Y009764
Y009637
Y0094
Y009273
Y009146
Y009019
Y008892
Y008765
Y008638
Y008511
Y008384
Y008257
Y00813
Y008003
Y011923
Y01205
X003Y012055
Y011928
T02
X0048387Y004456
X00455676Y004964
X00585978Y00474726
X00561594Y00670814
X00505894Y00662506
X00460224Y00667258
X00465582Y00644398
X00415544Y00639572
Y0071628
X00460502Y00726694
X00457708Y0076962
X00536194Y0071628
X0039Y0044
X0037084Y00973074
X00395224Y0098816
X00398526Y0100363
X00419862Y00997712
X00457454Y0097536
X00453366Y00958088
X00457454Y00931672
X0052578Y00957326
X0054991Y00963168
X0057531Y00931672
X00513588Y0098933
X00503936Y01018032
X00457454Y0102997
X00436372Y0108331
X00568198Y0108147
X00452882Y00799592
T03
X004575Y00561
Y01099
T04
X004725Y00576
Y01084
M30
