%TF.GenerationSoftware,Altium Limited,Altium Designer,22.11.1 (43)*%
G04 Layer_Physical_Order=1*
G04 Layer_Color=255*
%FSLAX45Y45*%
%MOMM*%
%TF.SameCoordinates,8E6B7D1E-C15C-42CD-BC71-5E9529DE4995*%
%TF.FilePolarity,Positive*%
%TF.FileFunction,Copper,L1,Top,Signal*%
%TF.Part,Single*%
G01*
G75*
%TA.AperFunction,SMDPad,CuDef*%
%ADD10R,1.10000X0.50000*%
%TA.AperFunction,Conductor*%
%ADD11C,0.30000*%
%TA.AperFunction,ComponentPad*%
%ADD12R,1.50000X1.50000*%
%ADD13C,1.50000*%
%ADD14C,1.45000*%
%ADD15C,1.33800*%
%TA.AperFunction,ViaPad*%
%ADD16C,1.27000*%
D10*
X5024999Y10445999D02*
D03*
X5474995D02*
D03*
X5024999Y10365999D02*
D03*
X5474995D02*
D03*
X5024999Y10285999D02*
D03*
X5474995D02*
D03*
X5024999Y10205999D02*
D03*
X5474995D02*
D03*
X5024999Y10126000D02*
D03*
X5474995D02*
D03*
X5024999Y10046000D02*
D03*
X5474995D02*
D03*
X5024999Y9966000D02*
D03*
X5474995D02*
D03*
X5024999Y9886000D02*
D03*
X5474995D02*
D03*
X5024999Y9806000D02*
D03*
X5474995D02*
D03*
X5024999Y9726000D02*
D03*
X5474995D02*
D03*
X5024999Y9646001D02*
D03*
X5474995D02*
D03*
X5024999Y9566001D02*
D03*
X5474995D02*
D03*
X5024999Y9486001D02*
D03*
X5474995D02*
D03*
X5024999Y9406001D02*
D03*
X5474995D02*
D03*
X5024999Y9326001D02*
D03*
X5474995D02*
D03*
X5024999Y9246001D02*
D03*
X5474995D02*
D03*
X5024999Y9166001D02*
D03*
X5474995D02*
D03*
X5024999Y9086002D02*
D03*
X5474995D02*
D03*
X5024999Y9006002D02*
D03*
X5474995D02*
D03*
X5024999Y8926002D02*
D03*
X5474995D02*
D03*
X5024999Y8846002D02*
D03*
X5474995D02*
D03*
X5024999Y8766002D02*
D03*
X5474995D02*
D03*
X5024999Y8686002D02*
D03*
X5474995D02*
D03*
X5024999Y8606003D02*
D03*
X5474995D02*
D03*
X5024999Y8526003D02*
D03*
X5474995D02*
D03*
X5024999Y8446003D02*
D03*
X5474995D02*
D03*
X5024999Y8366003D02*
D03*
X5474995D02*
D03*
X5024999Y8286003D02*
D03*
X5474995D02*
D03*
X5024999Y8205998D02*
D03*
X5474995D02*
D03*
X5024999Y8125998D02*
D03*
X5474995D02*
D03*
X5024999Y8045999D02*
D03*
X5474995D02*
D03*
X5024999Y7965999D02*
D03*
X5474995D02*
D03*
X5024999Y7885999D02*
D03*
X5474995D02*
D03*
X5024999Y7805999D02*
D03*
X5474995D02*
D03*
X5024999Y7725999D02*
D03*
X5474995D02*
D03*
X5024999Y7645999D02*
D03*
X5474995D02*
D03*
X5024999Y7566000D02*
D03*
X5474995D02*
D03*
X5024999Y7486000D02*
D03*
X5474995D02*
D03*
X5024999Y7406000D02*
D03*
X5474995D02*
D03*
X5024999Y7326000D02*
D03*
X5474995D02*
D03*
X5024999Y7246000D02*
D03*
X5474995D02*
D03*
X5024999Y7166000D02*
D03*
X5474995D02*
D03*
X5024999Y7086001D02*
D03*
X5474995D02*
D03*
X5024999Y7006001D02*
D03*
X5474995D02*
D03*
X5024999Y6926001D02*
D03*
X5474995D02*
D03*
X5024999Y6846001D02*
D03*
X5474995D02*
D03*
X5024999Y6766001D02*
D03*
X5474995D02*
D03*
X5024999Y6686001D02*
D03*
X5474995D02*
D03*
X5024999Y6606002D02*
D03*
X5474995D02*
D03*
X5024999Y6526002D02*
D03*
X5474995D02*
D03*
X5024999Y6446002D02*
D03*
X5474995D02*
D03*
X5024999Y6366002D02*
D03*
X5474995D02*
D03*
X5024999Y6286002D02*
D03*
X5474995D02*
D03*
X5024999Y6206002D02*
D03*
X5474995D02*
D03*
X5024999Y6126002D02*
D03*
X5474995D02*
D03*
X5024999Y6046003D02*
D03*
X5474995D02*
D03*
X5024999Y5966003D02*
D03*
X5474995D02*
D03*
X5024999Y5886003D02*
D03*
X5474995D02*
D03*
X5024999Y5806003D02*
D03*
X5474995D02*
D03*
X5024999Y5725998D02*
D03*
X5474995D02*
D03*
D11*
X5524500Y9237980D02*
Y9246001D01*
X5514340Y2159660D02*
Y5725998D01*
X3860800Y10365999D02*
X5024999D01*
X3759200Y10467599D02*
X3860800Y10365999D01*
X3759200Y10467599D02*
Y14812798D01*
X3249996Y15322002D02*
X3759200Y14812798D01*
X3249996Y15068001D02*
X3587013Y14730984D01*
Y10458186D02*
Y14730984D01*
Y10458186D02*
X3759200Y10285999D01*
X5024999D01*
X5474995D02*
X5689600D01*
X5798820Y10395219D01*
Y13566821D01*
X7249998Y15017999D01*
X3609995Y10126000D02*
X5024999D01*
X3531611Y10204384D02*
X3609995Y10126000D01*
X3531611Y10204384D02*
Y12011884D01*
X3529645Y12013849D02*
X3531611Y12011884D01*
X3529645Y12013849D02*
Y14280351D01*
X3249996Y14560001D02*
X3529645Y14280351D01*
X5474995Y10126000D02*
X5823255D01*
X6858000Y11160745D01*
Y14118001D01*
X7249998Y14509999D01*
X7023791Y14029791D02*
X7249998Y14256000D01*
X7023791Y11115218D02*
Y14029791D01*
X5954573Y10046000D02*
X7023791Y11115218D01*
X5474995Y10046000D02*
X5954573D01*
X7079193Y13831194D02*
X7249998Y14001999D01*
X7079193Y11036905D02*
Y13831194D01*
X6008289Y9966000D02*
X7079193Y11036905D01*
X5474995Y9966000D02*
X6008289D01*
X5024999Y9806000D02*
X5181600D01*
X5232400Y9856800D01*
Y10641843D01*
X5142692Y10731551D02*
X5232400Y10641843D01*
X5142692Y10731551D02*
Y12422332D01*
X5328920Y12608560D01*
Y13705840D01*
X5371760Y9726000D02*
X5474995D01*
X5331460Y9766300D02*
X5371760Y9726000D01*
X4363837Y9646001D02*
X5024999D01*
X5474995D02*
X5678521D01*
X5753100Y9720580D01*
X3868420Y9484330D02*
X4450563D01*
X4538777Y9572544D01*
X4958060D01*
X5024999Y9566001D01*
X4940341Y9486001D02*
X5024999D01*
X4909200Y9517141D02*
X4940341Y9486001D01*
X4640377Y9517141D02*
X4909200D01*
X4482658Y9359422D02*
X4640377Y9517141D01*
X4848860Y9406001D02*
X5024999D01*
X4964821Y9326001D02*
X5024999D01*
X4892040Y9253220D02*
X4964821Y9326001D01*
X4262120Y9253220D02*
X4892040D01*
X4251960Y9243060D02*
X4262120Y9253220D01*
X3789680Y9243060D02*
X4251960D01*
X3736340Y9296400D02*
X3789680Y9243060D01*
X3736340Y9296400D02*
Y9543273D01*
X3365403Y9914209D02*
X3736340Y9543273D01*
X3365403Y9914209D02*
Y10261600D01*
X3314603Y10312400D02*
X3365403Y10261600D01*
X3159760Y10312400D02*
X3314603D01*
X3134360Y10337800D02*
X3159760Y10312400D01*
X3134360Y10337800D02*
Y11904365D01*
X3249996Y12020001D01*
X5474995Y9326001D02*
X5552440D01*
X5584581Y9293860D01*
X6024880D01*
X6075680Y9243060D01*
X6428740D01*
X6665793Y9480113D01*
Y9554647D01*
X7100966Y9989820D01*
X7620000D01*
X7653020Y10022840D01*
Y11566977D01*
X4894341Y9166001D02*
X5024999D01*
X4863241Y9197101D02*
X4894341Y9166001D01*
X4717639Y9197101D02*
X4863241D01*
X4126057Y8605520D02*
X4717639Y9197101D01*
X4126057Y8554720D02*
Y8605520D01*
X5168900Y8884102D02*
Y8986571D01*
X5130800Y8846002D02*
X5168900Y8884102D01*
X5024999Y8846002D02*
X5130800D01*
X6972402Y10376002D02*
X7249998D01*
X6731000Y10134600D02*
X6972402Y10376002D01*
X5323840Y8884920D02*
Y9433560D01*
Y8884920D02*
X5362758Y8846002D01*
X5474995D01*
X3134360Y10080361D02*
X3250001Y10196002D01*
X3134360Y7782560D02*
Y10080361D01*
X5250180Y7782560D02*
X5336931Y7869311D01*
Y8521309D01*
X5092238Y8766002D02*
X5336931Y8521309D01*
X5024999Y8766002D02*
X5092238D01*
X5291282D02*
X5474995D01*
X3250001Y9942002D02*
X3604260Y9587743D01*
Y8901496D02*
Y9587743D01*
Y8901496D02*
X4054937Y8450819D01*
X4184147D01*
X4267200Y8533872D01*
X4438706D01*
X4590837Y8686002D01*
X5024999D01*
X4689704Y8606003D02*
X5024999D01*
X4562170Y8478469D02*
X4689704Y8606003D01*
X4318000Y8478469D02*
X4562170D01*
X4234947Y8395416D02*
X4318000Y8478469D01*
X4004137Y8395416D02*
X4234947D01*
X3525520Y8874034D02*
X4004137Y8395416D01*
X3525520Y8874034D02*
Y9412483D01*
X3250001Y9688002D02*
X3525520Y9412483D01*
X6558676Y8414680D02*
X7249998Y9106002D01*
X5601767Y8414680D02*
X6558676D01*
X5570444Y8446003D02*
X5601767Y8414680D01*
X5474995Y8446003D02*
X5570444D01*
X4477558Y8366003D02*
X5024999D01*
X4396166Y8284611D02*
X4477558Y8366003D01*
X3802990Y8284611D02*
X4396166D01*
X3250001Y8837600D02*
X3802990Y8284611D01*
X3250001Y8837600D02*
Y8926002D01*
X4569968Y8125998D02*
X5024999D01*
X4562373Y8118404D02*
X4569968Y8125998D01*
X3601446Y8118404D02*
X4562373D01*
X3555848Y8164002D02*
X3601446Y8118404D01*
X3250001Y8164002D02*
X3555848D01*
X3733998Y7885999D02*
X5024999D01*
X3250001Y7402002D02*
X3733998Y7885999D01*
X5474995D02*
X5572760D01*
X5732079Y7726680D01*
X6851320D01*
X7249998Y7328002D01*
X3250001Y7148002D02*
X3667095D01*
X4325092Y7805999D01*
X5024999D01*
X5474995D02*
X5551861D01*
X5704840Y7653020D01*
X5989320D01*
X6568338Y7074002D01*
X7249998D01*
X3250001Y6894002D02*
X3523016D01*
X4336506Y7707493D01*
X4491853D01*
X5024999Y7725999D01*
X5247640Y7584222D02*
X5389418Y7725999D01*
X5474995D01*
X4450679Y7645999D02*
X5024999D01*
X3997960Y7193280D02*
X4450679Y7645999D01*
X4569003Y7566000D02*
X5024999D01*
X3389005Y6386002D02*
X4569003Y7566000D01*
X3250001Y6386002D02*
X3389005D01*
X3250001Y6132002D02*
X4603999Y7486000D01*
X5024999D01*
X3250001Y5878002D02*
X4777999Y7406000D01*
X5024999D01*
X3250001Y5624002D02*
X4951999Y7326000D01*
X5024999D01*
X5663169D02*
X6017260Y6971909D01*
X5474995Y7326000D02*
X5663169D01*
X5092080Y7246000D02*
X5173980Y7327900D01*
X5024999Y7246000D02*
X5092080D01*
X5474995D02*
X5565745D01*
X5962818Y6848927D01*
X6107420D01*
X6519652Y6436695D01*
Y6292093D02*
Y6436695D01*
Y6292093D02*
X7134845Y5676900D01*
X7315200D01*
X7421880Y5570220D01*
Y5421884D02*
Y5570220D01*
X7249998Y5250002D02*
X7421880Y5421884D01*
X5365140Y7166000D02*
X5474995D01*
X5331460Y7132320D02*
X5365140Y7166000D01*
X4848261Y7086001D02*
X5024999D01*
X3398520Y5636260D02*
X4848261Y7086001D01*
X3398520Y5232400D02*
Y5636260D01*
X3340100Y5173980D02*
X3398520Y5232400D01*
X3200400Y5173980D02*
X3340100D01*
X3134360Y5107940D02*
X3200400Y5173980D01*
X3134360Y4907641D02*
Y5107940D01*
Y4907641D02*
X3250001Y4792000D01*
X5966460Y6733540D02*
X6058332D01*
X5613999Y7086001D02*
X5966460Y6733540D01*
X5474995Y7086001D02*
X5613999D01*
X3250001Y4538000D02*
X3365500Y4653498D01*
Y5026660D01*
X3511306Y5172466D01*
Y5668056D01*
X4849251Y7006001D01*
X5024999D01*
X3250001Y4284000D02*
X3429000Y4462998D01*
Y4898111D01*
X3846576Y5315687D01*
Y5924977D01*
X4847600Y6926001D01*
X5024999D01*
X6615745Y4868255D02*
X7249998Y4234002D01*
X6615745Y4868255D02*
Y5936061D01*
X5625805Y6926001D02*
X6615745Y5936061D01*
X5474995Y6926001D02*
X5625805D01*
X4845949Y6846001D02*
X5024999D01*
X4308028Y6308080D02*
X4845949Y6846001D01*
X4308028Y5430708D02*
Y6308080D01*
X3647440Y4770120D02*
X4308028Y5430708D01*
X5474995Y6846001D02*
X5587299D01*
X6548120Y5885180D01*
Y4681880D02*
Y5885180D01*
Y4681880D02*
X7249998Y3980002D01*
X4605498Y6216010D02*
Y6366154D01*
X4925344Y6686001D01*
X5024999D01*
X5572760D02*
X5623560Y6635201D01*
X5474995Y6686001D02*
X5572760D01*
X4744720Y6151880D02*
Y6427028D01*
X4923693Y6606002D01*
X5024999D01*
X5403657D02*
X5474995D01*
X5321838Y6687820D02*
X5403657Y6606002D01*
X5024999Y6526002D02*
X5165461D01*
X5181600Y6542141D01*
X5474995Y6526002D02*
X5768172D01*
X6492718Y5801457D01*
Y3721283D02*
Y5801457D01*
Y3721283D02*
X7249998Y2964002D01*
X5474995Y6446002D02*
X5753461D01*
X6355080Y5844383D01*
Y3604920D02*
Y5844383D01*
Y3604920D02*
X7249998Y2710002D01*
X5137658Y6366002D02*
X5188458Y6315202D01*
X5024999Y6366002D02*
X5137658D01*
X5474995D02*
X5721538D01*
X6281420Y5806120D01*
Y3424580D02*
Y5806120D01*
Y3424580D02*
X7249998Y2456002D01*
X5024999Y6206002D02*
X5132558D01*
X5242560Y6096000D01*
Y5626100D02*
Y6096000D01*
X5079284Y5462824D02*
X5242560Y5626100D01*
X5079284Y3827282D02*
Y5462824D01*
X3250001Y1998000D02*
X5079284Y3827282D01*
X5929605Y3268396D02*
X7249998Y1948002D01*
X5929605Y3268396D02*
Y5959688D01*
X5683291Y6206002D02*
X5929605Y5959688D01*
X5474995Y6206002D02*
X5683291D01*
X5794370Y3149630D02*
X7249998Y1694002D01*
X5794370Y3149630D02*
Y6008619D01*
X5676986Y6126002D02*
X5794370Y6008619D01*
X5474995Y6126002D02*
X5676986D01*
X4773463Y6046003D02*
X5024999D01*
X4577080Y5849620D02*
X4773463Y6046003D01*
X4645660Y5405120D02*
X4686300Y5445760D01*
X4645660Y3975100D02*
Y5405120D01*
X3812540Y3141980D02*
X4645660Y3975100D01*
X5474995Y6046003D02*
X5621680D01*
X5738967Y5928716D01*
Y2951033D02*
Y5928716D01*
Y2951033D02*
X7249998Y1440002D01*
X4840783Y5966003D02*
X5024999D01*
X4490720Y5615940D02*
X4840783Y5966003D01*
X4490720Y4559300D02*
Y5615940D01*
X3581400Y3649980D02*
X4490720Y4559300D01*
X3098800Y3649980D02*
X3581400D01*
X3022600Y3573780D02*
X3098800Y3649980D01*
X3022600Y739140D02*
Y3573780D01*
Y739140D02*
X3149600Y612140D01*
X3302000D01*
X3365500Y675640D01*
Y1120501D01*
X3250001Y1236000D02*
X3365500Y1120501D01*
X5474995Y5966003D02*
X5590875D01*
X5683565Y5873313D01*
Y2752435D02*
Y5873313D01*
Y2752435D02*
X7249998Y1186002D01*
X4943663Y5886003D02*
X5024999D01*
X4663440Y5605780D02*
X4943663Y5886003D01*
X4967326Y5806003D02*
X5024999D01*
X4815749Y5654426D02*
X4967326Y5806003D01*
X4815749Y3790980D02*
Y5654426D01*
X4021968Y2997200D02*
X4815749Y3790980D01*
X3439160Y2997200D02*
X4021968D01*
X3304540Y3131820D02*
X3439160Y2997200D01*
X3149600Y3131820D02*
X3304540D01*
X3078480Y3060700D02*
X3149600Y3131820D01*
X3078480Y899521D02*
Y3060700D01*
Y899521D02*
X3250001Y728000D01*
X4919980Y5456763D02*
Y5677499D01*
X4968479Y5725998D01*
X5024999D01*
X5474995D02*
X5514340D01*
Y2159660D02*
X7249998Y424002D01*
X5328920Y7277760D02*
Y7396480D01*
X5217160Y7166000D02*
X5328920Y7277760D01*
X5024999Y7166000D02*
X5217160D01*
X5398618Y6766001D02*
X5474995D01*
X5311699Y6852920D02*
X5398618Y6766001D01*
X5214620Y7006001D02*
X5474995D01*
X5985007Y3466993D02*
X7249998Y2202002D01*
X5985007Y3466993D02*
Y6006622D01*
X5705627Y6286002D02*
X5985007Y6006622D01*
X5474995Y6286002D02*
X5705627D01*
X7053788Y6312002D02*
X7249998D01*
X5839460Y7526330D02*
X7053788Y6312002D01*
X5607350Y7526330D02*
X5839460D01*
X5567680Y7566000D02*
X5607350Y7526330D01*
X5474995Y7566000D02*
X5567680D01*
X6938000Y8286003D02*
X7249998Y8598002D01*
X5474995Y8286003D02*
X6938000D01*
X6912295Y9530298D02*
X7249998Y9868002D01*
X6912295Y9437055D02*
Y9530298D01*
X6060191Y8584951D02*
X6912295Y9437055D01*
X5786537Y8584951D02*
X6060191D01*
X5685485Y8686002D02*
X5786537Y8584951D01*
X5474995Y8686002D02*
X5685485D01*
X5474995Y9566001D02*
X5687060D01*
X5691779Y9570720D01*
X6316980D01*
X7005320Y10259060D01*
X7340600D01*
X7366000Y10284460D01*
Y12615997D01*
X7249998Y12731999D02*
X7366000Y12615997D01*
X5474995Y7406000D02*
X5776219D01*
X6809268Y6372951D01*
Y6244732D02*
Y6372951D01*
Y6244732D02*
X7249998Y5804002D01*
X6997598Y6566002D02*
X7249998D01*
X5966795Y7596805D02*
X6997598Y6566002D01*
X5644815Y7596805D02*
X5966795D01*
X5595620Y7645999D02*
X5644815Y7596805D01*
X5474995Y7645999D02*
X5595620D01*
X7062927Y6245073D02*
X7249998Y6058002D01*
X7023887Y6245073D02*
X7062927D01*
X5798033Y7470927D02*
X7023887Y6245073D01*
X5566867Y7470927D02*
X5798033D01*
X5551795Y7486000D02*
X5566867Y7470927D01*
X5474995Y7486000D02*
X5551795D01*
X5474995Y7965999D02*
X5659171D01*
X5824830Y7800340D01*
X7031660D01*
X7249998Y7582002D01*
X3559998Y7965999D02*
X5024999D01*
X3250001Y7656002D02*
X3559998Y7965999D01*
X7142480Y7836002D02*
X7249998D01*
X7107022Y7871460D02*
X7142480Y7836002D01*
X5836199Y7871460D02*
X7107022D01*
X5661660Y8045999D02*
X5836199Y7871460D01*
X5474995Y8045999D02*
X5661660D01*
X3385998D02*
X5024999D01*
X3250001Y7910002D02*
X3385998Y8045999D01*
X5474995Y8606003D02*
X5615457D01*
X5691911Y8529549D01*
X6165545D01*
X7249998Y9614002D01*
X6364143Y8474146D02*
X7249998Y9360002D01*
X5636260Y8474146D02*
X6364143D01*
X5584403Y8526003D02*
X5636260Y8474146D01*
X5474995Y8526003D02*
X5584403D01*
X5474995Y8366003D02*
X5567680D01*
X5574406Y8359277D01*
X6757274D01*
X7249998Y8852002D01*
X5474995Y8205998D02*
X7111995D01*
X7249998Y8344002D01*
X5851083Y8735060D02*
Y8999220D01*
X5740400Y9109903D02*
X5851083Y8999220D01*
X5616382Y9109903D02*
X5740400D01*
X5592481Y9086002D02*
X5616382Y9109903D01*
X5474995Y9086002D02*
X5592481D01*
X5983524Y8816340D02*
Y8973678D01*
X5791200Y9166001D02*
X5983524Y8973678D01*
X5474995Y9166001D02*
X5791200D01*
X5474995Y9246001D02*
X5524500D01*
Y9237980D02*
X5836920D01*
X5974080Y9100820D01*
X6423660D01*
X6771640Y9448800D01*
X5474995Y8926002D02*
X5536758D01*
X5621020Y8841740D01*
X5474995Y9006002D02*
X5696382D01*
X6830060Y10431780D02*
Y10534061D01*
X7249998Y10953999D01*
X5474995Y9486001D02*
X5774319D01*
X5793740Y9466580D01*
X5621955Y9356806D02*
X6382619D01*
X5572760Y9406001D02*
X5621955Y9356806D01*
X5474995Y9406001D02*
X5572760D01*
X7134596Y13378596D02*
X7249998Y13493999D01*
X7134596Y10916945D02*
Y13378596D01*
X6042370Y9824720D02*
X7134596Y10916945D01*
X5565140Y9824720D02*
X6042370D01*
X5546420Y9806000D02*
X5565140Y9824720D01*
X5474995Y9806000D02*
X5546420D01*
X3250001Y3776000D02*
X4363430Y4889429D01*
Y6279424D01*
X4850008Y6766001D01*
X5024999D01*
X3250001Y8672002D02*
X3636000Y8286003D01*
X3652937D01*
X3709731Y8229209D01*
X4451568D01*
X4508363Y8286003D01*
X5024999D01*
X4506971Y8205998D02*
X5024999D01*
X4474779Y8173806D02*
X4506971Y8205998D01*
X3683508Y8173806D02*
X4474779D01*
X3629198Y8228117D02*
X3683508Y8173806D01*
X3439886Y8228117D02*
X3629198D01*
X3250001Y8418002D02*
X3439886Y8228117D01*
X4899660Y8526003D02*
X5024999D01*
X4796297Y8422640D02*
X4899660Y8526003D01*
X4368800Y8422640D02*
X4796297D01*
X4286174Y8340014D02*
X4368800Y8422640D01*
X3869766Y8340014D02*
X4286174D01*
X3418840Y8790940D02*
X3869766Y8340014D01*
X3418840Y8790940D02*
Y9265163D01*
X3250001Y9434002D02*
X3418840Y9265163D01*
X4961062Y8926002D02*
X5024999D01*
X4864100Y8829040D02*
X4961062Y8926002D01*
X4521200Y8829040D02*
X4864100D01*
X4403090Y8710930D02*
X4521200Y8829040D01*
X5024999Y8446003D02*
X5188717D01*
X5232400Y8402320D01*
X3249996Y14052000D02*
X3418840Y13883157D01*
Y10366807D02*
Y13883157D01*
Y10366807D02*
X3420806Y10364841D01*
Y10050556D02*
Y10364841D01*
Y10050556D02*
X3505363Y9966000D01*
X5024999D01*
X3527913Y10046000D02*
X5024999D01*
X3476208Y10097704D02*
X3527913Y10046000D01*
X3476208Y10097704D02*
Y10422204D01*
X3474242Y10424170D02*
X3476208Y10422204D01*
X3474242Y10424170D02*
Y13906104D01*
X3402427Y13977921D02*
X3474242Y13906104D01*
X3402427Y13977921D02*
Y14153571D01*
X3249996Y14306001D02*
X3402427Y14153571D01*
X4897618Y6286002D02*
X5024999D01*
X4897120Y6286500D02*
X4897618Y6286002D01*
X5135880Y1610360D02*
Y5438140D01*
X5298440Y5600700D01*
Y6413500D01*
X5273700Y6438240D02*
X5298440Y6413500D01*
X5085461Y6438240D02*
X5273700D01*
X5077699Y6446002D02*
X5085461Y6438240D01*
X5024999Y6446002D02*
X5077699D01*
X3134360Y1859641D02*
X3250001Y1744000D01*
X3134360Y1859641D02*
Y2849880D01*
X3162300Y2877820D01*
X4036060D01*
X5023881Y3865641D01*
Y5584744D01*
X5128738Y5689600D01*
Y6096000D01*
X5098735Y6126002D02*
X5128738Y6096000D01*
X5024999Y6126002D02*
X5098735D01*
X5572760Y2355240D02*
X7249998Y678002D01*
X5572760Y2355240D02*
Y5770443D01*
X5537200Y5806003D02*
X5572760Y5770443D01*
X5474995Y5806003D02*
X5537200D01*
X3249996Y15576001D02*
X4953000Y13872997D01*
Y10445999D02*
Y13872997D01*
Y10445999D02*
X5024999D01*
X5628162Y2553838D02*
X7249998Y932002D01*
X5628162Y2553838D02*
Y5814538D01*
X5556697Y5886003D02*
X5628162Y5814538D01*
X5474995Y5886003D02*
X5556697D01*
X5024999Y9246001D02*
X5168900D01*
X4738959Y9726000D02*
X5024999D01*
X4711360Y9753600D02*
X4738959Y9726000D01*
X4790440Y9093200D02*
X4797638Y9086002D01*
X5024999D01*
X4820920Y8940800D02*
X4886122Y9006002D01*
X5024999D01*
Y10205999D02*
X5090439D01*
X5120640Y10236200D01*
Y10494264D01*
X5031887Y10583017D02*
X5120640Y10494264D01*
X5031887Y10583017D02*
Y14955373D01*
X4262120Y15725140D02*
X5031887Y14955373D01*
X3200400Y15725140D02*
X4262120D01*
X3134360Y15659100D02*
X3200400Y15725140D01*
X3134360Y14929637D02*
Y15659100D01*
Y14929637D02*
X3249996Y14814001D01*
X5087290Y12529490D02*
X5224780Y12666980D01*
X5087290Y10673410D02*
Y12529490D01*
Y10673410D02*
X5176520Y10584180D01*
Y9956800D02*
Y10584180D01*
X5105720Y9886000D02*
X5176520Y9956800D01*
X5024999Y9886000D02*
X5105720D01*
X5474995Y10365999D02*
X5582143D01*
X5623702Y10407559D01*
Y13645703D01*
X7249998Y15271999D01*
X5474995Y10445999D02*
X5547020D01*
X5568300Y10467279D01*
Y13844299D01*
X7249998Y15525999D01*
X5458460Y10744200D02*
Y13959840D01*
Y10744200D02*
X5512897Y10689763D01*
Y10572577D02*
Y10689763D01*
X5453380Y10513060D02*
X5512897Y10572577D01*
X5377180Y10513060D02*
X5453380D01*
X5377180Y9919020D02*
Y10513060D01*
Y9919020D02*
X5410200Y9886000D01*
X5474995D01*
Y10205999D02*
X5710199D01*
X6522720Y11018520D01*
Y14036720D01*
X7249998Y14763998D01*
X6378377Y8090002D02*
X7249998D01*
X6342380Y8125998D02*
X6378377Y8090002D01*
X5474995Y8125998D02*
X6342380D01*
D12*
X7249998Y15525999D02*
D03*
X3249996Y10750001D02*
D03*
X7249998Y10376002D02*
D03*
X3250001Y5624002D02*
D03*
X7249998Y5250002D02*
D03*
X3250001Y474000D02*
D03*
D13*
X7249998Y15271999D02*
D03*
Y15017999D02*
D03*
Y14763998D02*
D03*
Y14509999D02*
D03*
Y14256000D02*
D03*
Y14001999D02*
D03*
Y13748000D02*
D03*
Y13493999D02*
D03*
Y13239999D02*
D03*
Y12985999D02*
D03*
Y12731999D02*
D03*
Y12477999D02*
D03*
Y12223999D02*
D03*
Y11969999D02*
D03*
Y11715999D02*
D03*
Y11461999D02*
D03*
Y11207999D02*
D03*
Y10953999D02*
D03*
Y10699999D02*
D03*
X3249996Y11004001D02*
D03*
Y11258001D02*
D03*
Y11512001D02*
D03*
Y11766001D02*
D03*
Y12020001D02*
D03*
Y12274001D02*
D03*
Y12528001D02*
D03*
Y12782001D02*
D03*
Y13036002D02*
D03*
Y13290001D02*
D03*
Y13544000D02*
D03*
Y13798001D02*
D03*
Y14052000D02*
D03*
Y14306001D02*
D03*
Y14560001D02*
D03*
Y14814001D02*
D03*
Y15068001D02*
D03*
Y15322002D02*
D03*
Y15576001D02*
D03*
X7249998Y10122002D02*
D03*
Y9868002D02*
D03*
Y9614002D02*
D03*
Y9360002D02*
D03*
Y9106002D02*
D03*
Y8852002D02*
D03*
Y8598002D02*
D03*
Y8344002D02*
D03*
Y8090002D02*
D03*
Y7836002D02*
D03*
Y7582002D02*
D03*
Y7328002D02*
D03*
Y7074002D02*
D03*
Y6820002D02*
D03*
Y6566002D02*
D03*
Y6312002D02*
D03*
Y6058002D02*
D03*
Y5804002D02*
D03*
Y5550002D02*
D03*
X3250001Y5878002D02*
D03*
Y6132002D02*
D03*
Y6386002D02*
D03*
Y6640002D02*
D03*
Y6894002D02*
D03*
Y7148002D02*
D03*
Y7402002D02*
D03*
Y7656002D02*
D03*
Y7910002D02*
D03*
Y8164002D02*
D03*
Y8418002D02*
D03*
Y8672002D02*
D03*
Y8926002D02*
D03*
Y9180002D02*
D03*
Y9434002D02*
D03*
Y9688002D02*
D03*
Y9942002D02*
D03*
Y10196002D02*
D03*
Y10450002D02*
D03*
X7249998Y4996002D02*
D03*
Y4742002D02*
D03*
Y4488002D02*
D03*
Y4234002D02*
D03*
Y3980002D02*
D03*
Y3726002D02*
D03*
Y3472002D02*
D03*
Y3218002D02*
D03*
Y2964002D02*
D03*
Y2710002D02*
D03*
Y2456002D02*
D03*
Y2202002D02*
D03*
Y1948002D02*
D03*
Y1694002D02*
D03*
Y1440002D02*
D03*
Y1186002D02*
D03*
Y932002D02*
D03*
Y678002D02*
D03*
Y424002D02*
D03*
X3250001Y728000D02*
D03*
Y982000D02*
D03*
Y1236000D02*
D03*
Y1490000D02*
D03*
Y1744000D02*
D03*
Y1998000D02*
D03*
Y2252000D02*
D03*
Y2506000D02*
D03*
Y2760000D02*
D03*
Y3014000D02*
D03*
Y3268000D02*
D03*
Y3522000D02*
D03*
Y3776000D02*
D03*
Y4030000D02*
D03*
Y4284000D02*
D03*
Y4538000D02*
D03*
Y4792000D02*
D03*
Y5046000D02*
D03*
Y5300000D02*
D03*
D14*
X5399994Y5545999D02*
D03*
Y10625999D02*
D03*
D15*
X5249997Y5396001D02*
D03*
Y10776001D02*
D03*
D16*
X5328920Y13705840D02*
D03*
X5331460Y9766300D02*
D03*
X4363837Y9646001D02*
D03*
X5753100Y9720580D02*
D03*
X3868420Y9484330D02*
D03*
X4482658Y9359422D02*
D03*
X4848860Y9406001D02*
D03*
X7653020Y11566977D02*
D03*
X4126057Y8554720D02*
D03*
X5168900Y8986571D02*
D03*
X6731000Y10134600D02*
D03*
X5323840Y9433560D02*
D03*
X3134360Y7782560D02*
D03*
X5250180D02*
D03*
X5291282Y8766002D02*
D03*
X5247640Y7584222D02*
D03*
X3997960Y7193280D02*
D03*
X6017260Y6971909D02*
D03*
X5173980Y7327900D02*
D03*
X5331460Y7132320D02*
D03*
X6058332Y6733540D02*
D03*
X3647440Y4770120D02*
D03*
X4605498Y6216010D02*
D03*
X5623560Y6635201D02*
D03*
X4744720Y6151880D02*
D03*
X5321838Y6687820D02*
D03*
X5181600Y6542141D02*
D03*
X5188458Y6315202D02*
D03*
X4577080Y5849620D02*
D03*
X4686300Y5445760D02*
D03*
X3812540Y3141980D02*
D03*
X4663440Y5605780D02*
D03*
X4919980Y5456763D02*
D03*
X5328920Y7396480D02*
D03*
X5311699Y6852920D02*
D03*
X5214620Y7006001D02*
D03*
X5851083Y8735060D02*
D03*
X5983524Y8816340D02*
D03*
X6771640Y9448800D02*
D03*
X5621020Y8841740D02*
D03*
X5696382Y9006002D02*
D03*
X6830060Y10431780D02*
D03*
X5793740Y9466580D02*
D03*
X6382619Y9356806D02*
D03*
X4403090Y8710930D02*
D03*
X5232400Y8402320D02*
D03*
X4897120Y6286500D02*
D03*
X5135880Y1610360D02*
D03*
X5168900Y9246001D02*
D03*
X4711360Y9753600D02*
D03*
X4790440Y9093200D02*
D03*
X4820920Y8940800D02*
D03*
X5224780Y12666980D02*
D03*
X5458460Y13959840D02*
D03*
%TF.MD5,67ab81578681f32c26c6c354b55b8882*%
M02*
