M48
METRIC,LZ,000.000
;FILE_FORMAT=3:3
;TYPE=PLATED
;Layer: PTH_Through
;EasyEDA v6.5.9, 2022-10-13 02:00:02
;e360aac8450f43158dbdd5a42fdb8d84,1d9ebe74aaba41f0b176b6c48231f753,10
;Gerber Generator version 0.2
;Holesize 1 = 0.306 mm
T01C0.306
;Holesize 2 = 0.889 mm
T02C0.889
;Holesize 3 = 0.915 mm
T03C0.915
%
G05
G90
T01
X082296Y-001651
X084582Y-000889
X088900Y002921
X090932Y002286
X091186Y003683
X089281Y004572
X119888Y-006350
X117348Y-008001
X118745Y-008763
X123825Y-005588
X122682Y-004826
X121158Y-007239
X125222Y-003302
X126365Y-004064
X129032Y-002413
X131318Y-001651
X138303Y001524
X137414Y000762
X135636Y000000
X133604Y-000762
X142748Y000762
X143891Y001016
X145542Y004826
X144018Y004699
X115951Y031242
X116586Y033147
X115316Y038989
X119126Y089281
X119126Y090170
X125095Y088519
X126238Y087503
X117221Y083820
X116332Y083820
X036576Y-009144
X036703Y-007620
X035941Y-005588
X035941Y-004064
T02
X026670Y040640
X024130Y040640
X021590Y040640
X019050Y040640
X016510Y040640
X013970Y040640
X026670Y086360
X024130Y086360
X021590Y086360
X019050Y086360
X016510Y086360
X013970Y086360
X054610Y040640
X052070Y040640
X049530Y040640
X046990Y040640
X044450Y040640
X041910Y040640
X054610Y086360
X052070Y086360
X049530Y086360
X046990Y086360
X044450Y086360
X041910Y086360
X082550Y040640
X080010Y040640
X077470Y040640
X074930Y040640
X072390Y040640
X069850Y040640
X082550Y086360
X080010Y086360
X077470Y086360
X074930Y086360
X072390Y086360
X069850Y086360
X110490Y040640
X107950Y040640
X105410Y040640
X102870Y040640
X100330Y040640
X097790Y040640
X110490Y086360
X107950Y086360
X105410Y086360
X102870Y086360
X100330Y086360
X097790Y086360
X026670Y015240
X024130Y015240
X021590Y015240
X019050Y015240
X016510Y015240
X013970Y015240
X026670Y060960
X024130Y060960
X021590Y060960
X019050Y060960
X016510Y060960
X013970Y060960
X054610Y015240
X052070Y015240
X049530Y015240
X046990Y015240
X044450Y015240
X041910Y015240
X054610Y060960
X052070Y060960
X049530Y060960
X046990Y060960
X044450Y060960
X041910Y060960
X082550Y015240
X080010Y015240
X077470Y015240
X074930Y015240
X072390Y015240
X069850Y015240
X082296Y060960
X079756Y060960
X077216Y060960
X074676Y060960
X072136Y060960
X069596Y060960
X110490Y015240
X107950Y015240
X105410Y015240
X102870Y015240
X100330Y015240
X097790Y015240
X110490Y060960
X107950Y060960
X105410Y060960
X102870Y060960
X100330Y060960
X097790Y060960
X076454Y-003048
X073914Y-003048
X071374Y-003048
X068834Y-003048
X066294Y-003048
X063754Y-003048
X061214Y-003048
X058674Y-003048
X056134Y-003048
X053594Y-003048
X051054Y-003048
X048514Y-003048
X045974Y-003048
X043434Y-003048
X040894Y-003048
X122174Y047403
X122174Y044863
X122174Y042323
X122174Y039783
X122174Y037243
X122174Y034703
X122174Y032163
X122174Y029623
X122174Y027083
X122174Y024543
X122174Y022003
X122174Y019463
X122174Y016923
X122174Y014383
X122174Y011843
X142621Y011843
X142621Y014383
X142621Y016923
X142621Y019463
X142621Y022003
X142621Y024543
X142621Y027083
X142621Y029623
X142621Y032163
X142621Y034703
X142621Y037243
X142621Y039783
X142621Y042323
X142621Y044863
X142621Y047403
X122174Y050165
X122174Y052705
X122174Y055245
X122174Y057785
X122174Y060325
X122174Y062865
X122174Y065405
X122174Y067945
X122174Y070485
X122174Y073025
X122174Y075565
X122174Y078105
X122174Y080645
X122174Y083185
X122174Y085725
X142621Y085725
X142621Y083185
X142621Y080645
X142621Y078105
X142621Y075565
X142621Y073025
X142621Y070485
X142621Y067945
X142621Y065405
X142621Y062865
X142621Y060325
X142621Y057785
X142621Y055245
X142621Y052705
X142621Y050165
X054483Y094107
X057023Y094107
X059563Y094107
X062103Y094107
X064643Y094107
X067183Y094107
X069723Y094107
X072263Y094107
T03
X078994Y-003048
M30
