G04 Layer: TopSilkscreenLayer*
G04 EasyEDA v6.5.9, 2022-10-13 02:00:02*
G04 e360aac8450f43158dbdd5a42fdb8d84,1d9ebe74aaba41f0b176b6c48231f753,10*
G04 Gerber Generator version 0.2*
G04 Scale: 100 percent, Rotated: No, Reflected: No *
G04 Dimensions in millimeters *
G04 leading zeros omitted , absolute positions ,4 integer and 5 decimal *
%FSLAX45Y45*%
%MOMM*%

%ADD10C,0.2032*%
%ADD11C,0.1500*%
%ADD12C,0.1524*%
%ADD13C,0.2030*%
%ADD14C,0.2030*%
%ADD15C,0.0150*%

%LPD*%
D10*
X2237486Y9626092D02*
G01*
X2218943Y9644634D01*
X2191258Y9653778D01*
X2154427Y9653778D01*
X2126741Y9644634D01*
X2108200Y9626092D01*
X2108200Y9607550D01*
X2117343Y9589262D01*
X2126741Y9579863D01*
X2145029Y9570720D01*
X2200656Y9552178D01*
X2218943Y9543034D01*
X2228341Y9533889D01*
X2237486Y9515347D01*
X2237486Y9487662D01*
X2218943Y9469120D01*
X2191258Y9459976D01*
X2154427Y9459976D01*
X2126741Y9469120D01*
X2108200Y9487662D01*
X2326131Y9653778D02*
G01*
X2326131Y9496805D01*
X2335529Y9469120D01*
X2353818Y9459976D01*
X2372359Y9459976D01*
X2298445Y9589262D02*
G01*
X2363215Y9589262D01*
X2544063Y9589262D02*
G01*
X2544063Y9459976D01*
X2544063Y9561576D02*
G01*
X2525775Y9579863D01*
X2507234Y9589262D01*
X2479547Y9589262D01*
X2461006Y9579863D01*
X2442463Y9561576D01*
X2433320Y9533889D01*
X2433320Y9515347D01*
X2442463Y9487662D01*
X2461006Y9469120D01*
X2479547Y9459976D01*
X2507234Y9459976D01*
X2525775Y9469120D01*
X2544063Y9487662D01*
X2605024Y9653778D02*
G01*
X2605024Y9459976D01*
X2605024Y9561576D02*
G01*
X2623565Y9579863D01*
X2642108Y9589262D01*
X2669793Y9589262D01*
X2688336Y9579863D01*
X2706624Y9561576D01*
X2716022Y9533889D01*
X2716022Y9515347D01*
X2706624Y9487662D01*
X2688336Y9469120D01*
X2669793Y9459976D01*
X2642108Y9459976D01*
X2623565Y9469120D01*
X2605024Y9487662D01*
X2776981Y9653778D02*
G01*
X2786125Y9644634D01*
X2795270Y9653778D01*
X2786125Y9663176D01*
X2776981Y9653778D01*
X2786125Y9589262D02*
G01*
X2786125Y9459976D01*
X2856229Y9653778D02*
G01*
X2856229Y9459976D01*
X2917190Y9653778D02*
G01*
X2926588Y9644634D01*
X2935731Y9653778D01*
X2926588Y9663176D01*
X2917190Y9653778D01*
X2926588Y9589262D02*
G01*
X2926588Y9459976D01*
X3024377Y9653778D02*
G01*
X3024377Y9496805D01*
X3033775Y9469120D01*
X3052063Y9459976D01*
X3070606Y9459976D01*
X2996691Y9589262D02*
G01*
X3061461Y9589262D01*
X3140709Y9589262D02*
G01*
X3196336Y9459976D01*
X3251708Y9589262D02*
G01*
X3196336Y9459976D01*
X3177793Y9422892D01*
X3159252Y9404350D01*
X3140709Y9395205D01*
X3131565Y9395205D01*
X3584193Y9626092D02*
G01*
X3565652Y9644634D01*
X3537965Y9653778D01*
X3501136Y9653778D01*
X3473450Y9644634D01*
X3454908Y9626092D01*
X3454908Y9607550D01*
X3464052Y9589262D01*
X3473450Y9579863D01*
X3491738Y9570720D01*
X3547109Y9552178D01*
X3565652Y9543034D01*
X3575050Y9533889D01*
X3584193Y9515347D01*
X3584193Y9487662D01*
X3565652Y9469120D01*
X3537965Y9459976D01*
X3501136Y9459976D01*
X3473450Y9469120D01*
X3454908Y9487662D01*
X3645154Y9533889D02*
G01*
X3755897Y9533889D01*
X3755897Y9552178D01*
X3746754Y9570720D01*
X3737609Y9579863D01*
X3719068Y9589262D01*
X3691381Y9589262D01*
X3672840Y9579863D01*
X3654297Y9561576D01*
X3645154Y9533889D01*
X3645154Y9515347D01*
X3654297Y9487662D01*
X3672840Y9469120D01*
X3691381Y9459976D01*
X3719068Y9459976D01*
X3737609Y9469120D01*
X3755897Y9487662D01*
X3844543Y9653778D02*
G01*
X3844543Y9496805D01*
X3853941Y9469120D01*
X3872229Y9459976D01*
X3890772Y9459976D01*
X3816858Y9589262D02*
G01*
X3881627Y9589262D01*
X3951731Y9589262D02*
G01*
X3951731Y9496805D01*
X3961129Y9469120D01*
X3979418Y9459976D01*
X4007104Y9459976D01*
X4025645Y9469120D01*
X4053331Y9496805D01*
X4053331Y9589262D02*
G01*
X4053331Y9459976D01*
X4114291Y9589262D02*
G01*
X4114291Y9395205D01*
X4114291Y9561576D02*
G01*
X4132834Y9579863D01*
X4151375Y9589262D01*
X4179061Y9589262D01*
X4197350Y9579863D01*
X4215891Y9561576D01*
X4225290Y9533889D01*
X4225290Y9515347D01*
X4215891Y9487662D01*
X4197350Y9469120D01*
X4179061Y9459976D01*
X4151375Y9459976D01*
X4132834Y9469120D01*
X4114291Y9487662D01*
X4428490Y9653778D02*
G01*
X4502150Y9459976D01*
X4576063Y9653778D02*
G01*
X4502150Y9459976D01*
X4646422Y9607550D02*
G01*
X4646422Y9616947D01*
X4655565Y9635489D01*
X4664709Y9644634D01*
X4683252Y9653778D01*
X4720336Y9653778D01*
X4738624Y9644634D01*
X4748022Y9635489D01*
X4757165Y9616947D01*
X4757165Y9598405D01*
X4748022Y9579863D01*
X4729479Y9552178D01*
X4637024Y9459976D01*
X4766309Y9459976D01*
D11*
X5328665Y9239250D02*
G01*
X5328665Y9173718D01*
X5295900Y9206484D02*
G01*
X5361431Y9206484D01*
X5428995Y9250171D02*
G01*
X5392674Y9250171D01*
X5388863Y9217405D01*
X5392674Y9220962D01*
X5403595Y9224771D01*
X5414518Y9224771D01*
X5425440Y9220962D01*
X5432552Y9213850D01*
X5436361Y9202928D01*
X5436361Y9195562D01*
X5432552Y9184639D01*
X5425440Y9177274D01*
X5414518Y9173718D01*
X5403595Y9173718D01*
X5392674Y9177274D01*
X5388863Y9181084D01*
X5385308Y9188195D01*
X5460238Y9224771D02*
G01*
X5482081Y9173718D01*
X5503925Y9224771D02*
G01*
X5482081Y9173718D01*
X5583936Y9250171D02*
G01*
X5612891Y9173718D01*
X5642102Y9250171D02*
G01*
X5612891Y9173718D01*
X5720588Y9231884D02*
G01*
X5717031Y9239250D01*
X5709665Y9246615D01*
X5702554Y9250171D01*
X5687822Y9250171D01*
X5680709Y9246615D01*
X5673343Y9239250D01*
X5669788Y9231884D01*
X5665977Y9220962D01*
X5665977Y9202928D01*
X5669788Y9192005D01*
X5673343Y9184639D01*
X5680709Y9177274D01*
X5687822Y9173718D01*
X5702554Y9173718D01*
X5709665Y9177274D01*
X5717031Y9184639D01*
X5720588Y9192005D01*
X5799074Y9231884D02*
G01*
X5795518Y9239250D01*
X5788152Y9246615D01*
X5781040Y9250171D01*
X5766561Y9250171D01*
X5759195Y9246615D01*
X5751829Y9239250D01*
X5748274Y9231884D01*
X5744718Y9220962D01*
X5744718Y9202928D01*
X5748274Y9192005D01*
X5751829Y9184639D01*
X5759195Y9177274D01*
X5766561Y9173718D01*
X5781040Y9173718D01*
X5788152Y9177274D01*
X5795518Y9184639D01*
X5799074Y9192005D01*
X5933693Y9231884D02*
G01*
X5930138Y9239250D01*
X5922772Y9246615D01*
X5915659Y9250171D01*
X5900927Y9250171D01*
X5893815Y9246615D01*
X5886450Y9239250D01*
X5882893Y9231884D01*
X5879084Y9220962D01*
X5879084Y9202928D01*
X5882893Y9192005D01*
X5886450Y9184639D01*
X5893815Y9177274D01*
X5900927Y9173718D01*
X5915659Y9173718D01*
X5922772Y9177274D01*
X5930138Y9184639D01*
X5933693Y9192005D01*
X5933693Y9202928D01*
X5915659Y9202928D02*
G01*
X5933693Y9202928D01*
X5957824Y9250171D02*
G01*
X5957824Y9173718D01*
X5957824Y9250171D02*
G01*
X6008624Y9173718D01*
X6008624Y9250171D02*
G01*
X6008624Y9173718D01*
X6032500Y9250171D02*
G01*
X6032500Y9173718D01*
X6032500Y9250171D02*
G01*
X6058154Y9250171D01*
X6069075Y9246615D01*
X6076188Y9239250D01*
X6079997Y9231884D01*
X6083554Y9220962D01*
X6083554Y9202928D01*
X6079997Y9192005D01*
X6076188Y9184639D01*
X6069075Y9177274D01*
X6058154Y9173718D01*
X6032500Y9173718D01*
X6214363Y9239250D02*
G01*
X6207252Y9246615D01*
X6196329Y9250171D01*
X6181597Y9250171D01*
X6170929Y9246615D01*
X6163563Y9239250D01*
X6163563Y9231884D01*
X6167120Y9224771D01*
X6170929Y9220962D01*
X6178041Y9217405D01*
X6199886Y9210039D01*
X6207252Y9206484D01*
X6210808Y9202928D01*
X6214363Y9195562D01*
X6214363Y9184639D01*
X6207252Y9177274D01*
X6196329Y9173718D01*
X6181597Y9173718D01*
X6170929Y9177274D01*
X6163563Y9184639D01*
X6238493Y9250171D02*
G01*
X6238493Y9173718D01*
X6238493Y9250171D02*
G01*
X6263893Y9250171D01*
X6274815Y9246615D01*
X6282181Y9239250D01*
X6285738Y9231884D01*
X6289293Y9220962D01*
X6289293Y9202928D01*
X6285738Y9192005D01*
X6282181Y9184639D01*
X6274815Y9177274D01*
X6263893Y9173718D01*
X6238493Y9173718D01*
X6342379Y9250171D02*
G01*
X6313424Y9173718D01*
X6342379Y9250171D02*
G01*
X6371590Y9173718D01*
X6324345Y9199118D02*
G01*
X6360668Y9199118D01*
X6502400Y9239250D02*
G01*
X6495288Y9246615D01*
X6484365Y9250171D01*
X6469634Y9250171D01*
X6458711Y9246615D01*
X6451600Y9239250D01*
X6451600Y9231884D01*
X6455156Y9224771D01*
X6458711Y9220962D01*
X6466077Y9217405D01*
X6487922Y9210039D01*
X6495288Y9206484D01*
X6498843Y9202928D01*
X6502400Y9195562D01*
X6502400Y9184639D01*
X6495288Y9177274D01*
X6484365Y9173718D01*
X6469634Y9173718D01*
X6458711Y9177274D01*
X6451600Y9184639D01*
X6580886Y9231884D02*
G01*
X6577329Y9239250D01*
X6569963Y9246615D01*
X6562852Y9250171D01*
X6548374Y9250171D01*
X6541008Y9246615D01*
X6533641Y9239250D01*
X6530086Y9231884D01*
X6526529Y9220962D01*
X6526529Y9202928D01*
X6530086Y9192005D01*
X6533641Y9184639D01*
X6541008Y9177274D01*
X6548374Y9173718D01*
X6562852Y9173718D01*
X6569963Y9177274D01*
X6577329Y9184639D01*
X6580886Y9192005D01*
X6605015Y9250171D02*
G01*
X6605015Y9173718D01*
X6605015Y9173718D02*
G01*
X6648704Y9173718D01*
X6757670Y9250171D02*
G01*
X6728713Y9173718D01*
X6757670Y9250171D02*
G01*
X6786879Y9173718D01*
X6739636Y9199118D02*
G01*
X6775958Y9199118D01*
X6832600Y9250171D02*
G01*
X6821677Y9246615D01*
X6814565Y9235694D01*
X6810756Y9217405D01*
X6810756Y9206484D01*
X6814565Y9188195D01*
X6821677Y9177274D01*
X6832600Y9173718D01*
X6839965Y9173718D01*
X6850888Y9177274D01*
X6858000Y9188195D01*
X6861809Y9206484D01*
X6861809Y9217405D01*
X6858000Y9235694D01*
X6850888Y9246615D01*
X6839965Y9250171D01*
X6832600Y9250171D01*
X6970775Y9250171D02*
G01*
X6941820Y9173718D01*
X6970775Y9250171D02*
G01*
X6999986Y9173718D01*
X6952741Y9199118D02*
G01*
X6989063Y9199118D01*
X7023861Y9235694D02*
G01*
X7031227Y9239250D01*
X7042150Y9250171D01*
X7042150Y9173718D01*
X7151115Y9250171D02*
G01*
X7122159Y9173718D01*
X7151115Y9250171D02*
G01*
X7180325Y9173718D01*
X7133081Y9199118D02*
G01*
X7169404Y9199118D01*
X7208011Y9231884D02*
G01*
X7208011Y9235694D01*
X7211568Y9242805D01*
X7215124Y9246615D01*
X7222490Y9250171D01*
X7236968Y9250171D01*
X7244334Y9246615D01*
X7247890Y9242805D01*
X7251445Y9235694D01*
X7251445Y9228328D01*
X7247890Y9220962D01*
X7240524Y9210039D01*
X7204202Y9173718D01*
X7255256Y9173718D01*
X952500Y8686037D02*
G01*
X988821Y8590534D01*
X1025144Y8686037D02*
G01*
X988821Y8590534D01*
X1123442Y8663431D02*
G01*
X1118870Y8672576D01*
X1109726Y8681465D01*
X1100581Y8686037D01*
X1082547Y8686037D01*
X1073404Y8681465D01*
X1064260Y8672576D01*
X1059687Y8663431D01*
X1055115Y8649715D01*
X1055115Y8627110D01*
X1059687Y8613394D01*
X1064260Y8604250D01*
X1073404Y8595105D01*
X1082547Y8590534D01*
X1100581Y8590534D01*
X1109726Y8595105D01*
X1118870Y8604250D01*
X1123442Y8613394D01*
X1221486Y8663431D02*
G01*
X1217168Y8672576D01*
X1208023Y8681465D01*
X1198879Y8686037D01*
X1180592Y8686037D01*
X1171702Y8681465D01*
X1162557Y8672576D01*
X1157986Y8663431D01*
X1153413Y8649715D01*
X1153413Y8627110D01*
X1157986Y8613394D01*
X1162557Y8604250D01*
X1171702Y8595105D01*
X1180592Y8590534D01*
X1198879Y8590534D01*
X1208023Y8595105D01*
X1217168Y8604250D01*
X1221486Y8613394D01*
X927100Y6158737D02*
G01*
X963421Y6063234D01*
X999744Y6158737D02*
G01*
X963421Y6063234D01*
X1098042Y6136131D02*
G01*
X1093470Y6145276D01*
X1084326Y6154165D01*
X1075181Y6158737D01*
X1057147Y6158737D01*
X1048004Y6154165D01*
X1038860Y6145276D01*
X1034287Y6136131D01*
X1029715Y6122415D01*
X1029715Y6099810D01*
X1034287Y6086094D01*
X1038860Y6076950D01*
X1048004Y6067805D01*
X1057147Y6063234D01*
X1075181Y6063234D01*
X1084326Y6067805D01*
X1093470Y6076950D01*
X1098042Y6086094D01*
X1196086Y6136131D02*
G01*
X1191768Y6145276D01*
X1182623Y6154165D01*
X1173479Y6158737D01*
X1155192Y6158737D01*
X1146302Y6154165D01*
X1137157Y6145276D01*
X1132586Y6136131D01*
X1128013Y6122415D01*
X1128013Y6099810D01*
X1132586Y6086094D01*
X1137157Y6076950D01*
X1146302Y6067805D01*
X1155192Y6063234D01*
X1173479Y6063234D01*
X1182623Y6067805D01*
X1191768Y6076950D01*
X1196086Y6086094D01*
X11826493Y8545576D02*
G01*
X11826493Y8463534D01*
X11785600Y8504681D02*
G01*
X11867388Y8504681D01*
X11951970Y8559037D02*
G01*
X11906504Y8559037D01*
X11901931Y8518144D01*
X11906504Y8522715D01*
X11920220Y8527287D01*
X11933681Y8527287D01*
X11947397Y8522715D01*
X11956541Y8513571D01*
X11961113Y8500110D01*
X11961113Y8490965D01*
X11956541Y8477250D01*
X11947397Y8468105D01*
X11933681Y8463534D01*
X11920220Y8463534D01*
X11906504Y8468105D01*
X11901931Y8472678D01*
X11897359Y8481821D01*
X11991086Y8527287D02*
G01*
X12018263Y8463534D01*
X12045695Y8527287D02*
G01*
X12018263Y8463534D01*
X11801093Y1192276D02*
G01*
X11801093Y1110234D01*
X11760200Y1151381D02*
G01*
X11841988Y1151381D01*
X11926570Y1205737D02*
G01*
X11881104Y1205737D01*
X11876531Y1164844D01*
X11881104Y1169415D01*
X11894820Y1173987D01*
X11908281Y1173987D01*
X11921997Y1169415D01*
X11931141Y1160271D01*
X11935713Y1146810D01*
X11935713Y1137665D01*
X11931141Y1123950D01*
X11921997Y1114805D01*
X11908281Y1110234D01*
X11894820Y1110234D01*
X11881104Y1114805D01*
X11876531Y1119378D01*
X11871959Y1128521D01*
X11965686Y1173987D02*
G01*
X11992863Y1110234D01*
X12020295Y1173987D02*
G01*
X11992863Y1110234D01*
D12*
X2019300Y4344415D02*
G01*
X2019300Y4235450D01*
X2053590Y4344415D02*
G01*
X2053590Y4235450D01*
X2053590Y4344415D02*
G01*
X2126234Y4235450D01*
X2126234Y4344415D02*
G01*
X2126234Y4235450D01*
X2202179Y4344415D02*
G01*
X2160524Y4235450D01*
X2202179Y4344415D02*
G01*
X2243836Y4235450D01*
X2176272Y4271771D02*
G01*
X2228088Y4271771D01*
X2283206Y4318507D02*
G01*
X2283206Y4323587D01*
X2288540Y4334002D01*
X2293620Y4339336D01*
X2304034Y4344415D01*
X2324861Y4344415D01*
X2335275Y4339336D01*
X2340356Y4334002D01*
X2345690Y4323587D01*
X2345690Y4313173D01*
X2340356Y4302760D01*
X2329941Y4287265D01*
X2278125Y4235450D01*
X2350770Y4235450D01*
X2385059Y4323587D02*
G01*
X2395474Y4328921D01*
X2410968Y4344415D01*
X2410968Y4235450D01*
X2512822Y4308094D02*
G01*
X2507741Y4292600D01*
X2497327Y4282186D01*
X2481579Y4276852D01*
X2476500Y4276852D01*
X2461006Y4282186D01*
X2450591Y4292600D01*
X2445258Y4308094D01*
X2445258Y4313173D01*
X2450591Y4328921D01*
X2461006Y4339336D01*
X2476500Y4344415D01*
X2481579Y4344415D01*
X2497327Y4339336D01*
X2507741Y4328921D01*
X2512822Y4308094D01*
X2512822Y4282186D01*
X2507741Y4256023D01*
X2497327Y4240529D01*
X2481579Y4235450D01*
X2471420Y4235450D01*
X2455672Y4240529D01*
X2450591Y4250944D01*
X2547111Y4198873D02*
G01*
X2640584Y4198873D01*
X2706115Y4344415D02*
G01*
X2690622Y4339336D01*
X2680208Y4323587D01*
X2674874Y4297679D01*
X2674874Y4282186D01*
X2680208Y4256023D01*
X2690622Y4240529D01*
X2706115Y4235450D01*
X2716529Y4235450D01*
X2732024Y4240529D01*
X2742438Y4256023D01*
X2747772Y4282186D01*
X2747772Y4297679D01*
X2742438Y4323587D01*
X2732024Y4339336D01*
X2716529Y4344415D01*
X2706115Y4344415D01*
X2006600Y8903715D02*
G01*
X2006600Y8794750D01*
X2040890Y8903715D02*
G01*
X2040890Y8794750D01*
X2040890Y8903715D02*
G01*
X2113534Y8794750D01*
X2113534Y8903715D02*
G01*
X2113534Y8794750D01*
X2189479Y8903715D02*
G01*
X2147824Y8794750D01*
X2189479Y8903715D02*
G01*
X2231136Y8794750D01*
X2163572Y8831071D02*
G01*
X2215388Y8831071D01*
X2270506Y8877808D02*
G01*
X2270506Y8882887D01*
X2275840Y8893302D01*
X2280920Y8898636D01*
X2291334Y8903715D01*
X2312161Y8903715D01*
X2322575Y8898636D01*
X2327656Y8893302D01*
X2332990Y8882887D01*
X2332990Y8872474D01*
X2327656Y8862060D01*
X2317241Y8846565D01*
X2265425Y8794750D01*
X2338070Y8794750D01*
X2372359Y8882887D02*
G01*
X2382774Y8888221D01*
X2398268Y8903715D01*
X2398268Y8794750D01*
X2500122Y8867394D02*
G01*
X2495041Y8851900D01*
X2484627Y8841486D01*
X2468879Y8836152D01*
X2463800Y8836152D01*
X2448306Y8841486D01*
X2437891Y8851900D01*
X2432558Y8867394D01*
X2432558Y8872474D01*
X2437891Y8888221D01*
X2448306Y8898636D01*
X2463800Y8903715D01*
X2468879Y8903715D01*
X2484627Y8898636D01*
X2495041Y8888221D01*
X2500122Y8867394D01*
X2500122Y8841486D01*
X2495041Y8815324D01*
X2484627Y8799829D01*
X2468879Y8794750D01*
X2458720Y8794750D01*
X2442972Y8799829D01*
X2437891Y8810244D01*
X2534411Y8758174D02*
G01*
X2627884Y8758174D01*
X2662174Y8882887D02*
G01*
X2672588Y8888221D01*
X2688336Y8903715D01*
X2688336Y8794750D01*
X4800600Y4331715D02*
G01*
X4800600Y4222750D01*
X4834890Y4331715D02*
G01*
X4834890Y4222750D01*
X4834890Y4331715D02*
G01*
X4907534Y4222750D01*
X4907534Y4331715D02*
G01*
X4907534Y4222750D01*
X4983479Y4331715D02*
G01*
X4941824Y4222750D01*
X4983479Y4331715D02*
G01*
X5025136Y4222750D01*
X4957572Y4259071D02*
G01*
X5009388Y4259071D01*
X5064506Y4305807D02*
G01*
X5064506Y4310887D01*
X5069840Y4321302D01*
X5074920Y4326636D01*
X5085334Y4331715D01*
X5106161Y4331715D01*
X5116575Y4326636D01*
X5121656Y4321302D01*
X5126990Y4310887D01*
X5126990Y4300473D01*
X5121656Y4290060D01*
X5111241Y4274565D01*
X5059425Y4222750D01*
X5132070Y4222750D01*
X5166359Y4310887D02*
G01*
X5176774Y4316221D01*
X5192268Y4331715D01*
X5192268Y4222750D01*
X5294122Y4295394D02*
G01*
X5289041Y4279900D01*
X5278627Y4269486D01*
X5262879Y4264152D01*
X5257800Y4264152D01*
X5242306Y4269486D01*
X5231891Y4279900D01*
X5226558Y4295394D01*
X5226558Y4300473D01*
X5231891Y4316221D01*
X5242306Y4326636D01*
X5257800Y4331715D01*
X5262879Y4331715D01*
X5278627Y4326636D01*
X5289041Y4316221D01*
X5294122Y4295394D01*
X5294122Y4269486D01*
X5289041Y4243323D01*
X5278627Y4227829D01*
X5262879Y4222750D01*
X5252720Y4222750D01*
X5236972Y4227829D01*
X5231891Y4238244D01*
X5328411Y4186173D02*
G01*
X5421884Y4186173D01*
X5461508Y4305807D02*
G01*
X5461508Y4310887D01*
X5466588Y4321302D01*
X5471922Y4326636D01*
X5482336Y4331715D01*
X5502909Y4331715D01*
X5513324Y4326636D01*
X5518658Y4321302D01*
X5523738Y4310887D01*
X5523738Y4300473D01*
X5518658Y4290060D01*
X5508243Y4274565D01*
X5456174Y4222750D01*
X5529072Y4222750D01*
X4800600Y8903715D02*
G01*
X4800600Y8794750D01*
X4834890Y8903715D02*
G01*
X4834890Y8794750D01*
X4834890Y8903715D02*
G01*
X4907534Y8794750D01*
X4907534Y8903715D02*
G01*
X4907534Y8794750D01*
X4983479Y8903715D02*
G01*
X4941824Y8794750D01*
X4983479Y8903715D02*
G01*
X5025136Y8794750D01*
X4957572Y8831071D02*
G01*
X5009388Y8831071D01*
X5064506Y8877808D02*
G01*
X5064506Y8882887D01*
X5069840Y8893302D01*
X5074920Y8898636D01*
X5085334Y8903715D01*
X5106161Y8903715D01*
X5116575Y8898636D01*
X5121656Y8893302D01*
X5126990Y8882887D01*
X5126990Y8872474D01*
X5121656Y8862060D01*
X5111241Y8846565D01*
X5059425Y8794750D01*
X5132070Y8794750D01*
X5166359Y8882887D02*
G01*
X5176774Y8888221D01*
X5192268Y8903715D01*
X5192268Y8794750D01*
X5294122Y8867394D02*
G01*
X5289041Y8851900D01*
X5278627Y8841486D01*
X5262879Y8836152D01*
X5257800Y8836152D01*
X5242306Y8841486D01*
X5231891Y8851900D01*
X5226558Y8867394D01*
X5226558Y8872474D01*
X5231891Y8888221D01*
X5242306Y8898636D01*
X5257800Y8903715D01*
X5262879Y8903715D01*
X5278627Y8898636D01*
X5289041Y8888221D01*
X5294122Y8867394D01*
X5294122Y8841486D01*
X5289041Y8815324D01*
X5278627Y8799829D01*
X5262879Y8794750D01*
X5252720Y8794750D01*
X5236972Y8799829D01*
X5231891Y8810244D01*
X5328411Y8758174D02*
G01*
X5421884Y8758174D01*
X5466588Y8903715D02*
G01*
X5523738Y8903715D01*
X5492750Y8862060D01*
X5508243Y8862060D01*
X5518658Y8856979D01*
X5523738Y8851900D01*
X5529072Y8836152D01*
X5529072Y8825737D01*
X5523738Y8810244D01*
X5513324Y8799829D01*
X5497829Y8794750D01*
X5482336Y8794750D01*
X5466588Y8799829D01*
X5461508Y8804910D01*
X5456174Y8815324D01*
X7594600Y4331715D02*
G01*
X7594600Y4222750D01*
X7628890Y4331715D02*
G01*
X7628890Y4222750D01*
X7628890Y4331715D02*
G01*
X7701534Y4222750D01*
X7701534Y4331715D02*
G01*
X7701534Y4222750D01*
X7777479Y4331715D02*
G01*
X7735824Y4222750D01*
X7777479Y4331715D02*
G01*
X7819136Y4222750D01*
X7751572Y4259071D02*
G01*
X7803388Y4259071D01*
X7858506Y4305807D02*
G01*
X7858506Y4310887D01*
X7863840Y4321302D01*
X7868920Y4326636D01*
X7879334Y4331715D01*
X7900161Y4331715D01*
X7910575Y4326636D01*
X7915656Y4321302D01*
X7920990Y4310887D01*
X7920990Y4300473D01*
X7915656Y4290060D01*
X7905241Y4274565D01*
X7853425Y4222750D01*
X7926070Y4222750D01*
X7960359Y4310887D02*
G01*
X7970774Y4316221D01*
X7986268Y4331715D01*
X7986268Y4222750D01*
X8088122Y4295394D02*
G01*
X8083041Y4279900D01*
X8072627Y4269486D01*
X8056879Y4264152D01*
X8051800Y4264152D01*
X8036306Y4269486D01*
X8025891Y4279900D01*
X8020558Y4295394D01*
X8020558Y4300473D01*
X8025891Y4316221D01*
X8036306Y4326636D01*
X8051800Y4331715D01*
X8056879Y4331715D01*
X8072627Y4326636D01*
X8083041Y4316221D01*
X8088122Y4295394D01*
X8088122Y4269486D01*
X8083041Y4243323D01*
X8072627Y4227829D01*
X8056879Y4222750D01*
X8046720Y4222750D01*
X8030972Y4227829D01*
X8025891Y4238244D01*
X8122411Y4186173D02*
G01*
X8215884Y4186173D01*
X8302243Y4331715D02*
G01*
X8250174Y4259071D01*
X8328152Y4259071D01*
X8302243Y4331715D02*
G01*
X8302243Y4222750D01*
X7594600Y8903715D02*
G01*
X7594600Y8794750D01*
X7628890Y8903715D02*
G01*
X7628890Y8794750D01*
X7628890Y8903715D02*
G01*
X7701534Y8794750D01*
X7701534Y8903715D02*
G01*
X7701534Y8794750D01*
X7777479Y8903715D02*
G01*
X7735824Y8794750D01*
X7777479Y8903715D02*
G01*
X7819136Y8794750D01*
X7751572Y8831071D02*
G01*
X7803388Y8831071D01*
X7858506Y8877808D02*
G01*
X7858506Y8882887D01*
X7863840Y8893302D01*
X7868920Y8898636D01*
X7879334Y8903715D01*
X7900161Y8903715D01*
X7910575Y8898636D01*
X7915656Y8893302D01*
X7920990Y8882887D01*
X7920990Y8872474D01*
X7915656Y8862060D01*
X7905241Y8846565D01*
X7853425Y8794750D01*
X7926070Y8794750D01*
X7960359Y8882887D02*
G01*
X7970774Y8888221D01*
X7986268Y8903715D01*
X7986268Y8794750D01*
X8088122Y8867394D02*
G01*
X8083041Y8851900D01*
X8072627Y8841486D01*
X8056879Y8836152D01*
X8051800Y8836152D01*
X8036306Y8841486D01*
X8025891Y8851900D01*
X8020558Y8867394D01*
X8020558Y8872474D01*
X8025891Y8888221D01*
X8036306Y8898636D01*
X8051800Y8903715D01*
X8056879Y8903715D01*
X8072627Y8898636D01*
X8083041Y8888221D01*
X8088122Y8867394D01*
X8088122Y8841486D01*
X8083041Y8815324D01*
X8072627Y8799829D01*
X8056879Y8794750D01*
X8046720Y8794750D01*
X8030972Y8799829D01*
X8025891Y8810244D01*
X8122411Y8758174D02*
G01*
X8215884Y8758174D01*
X8312658Y8903715D02*
G01*
X8260588Y8903715D01*
X8255508Y8856979D01*
X8260588Y8862060D01*
X8276336Y8867394D01*
X8291829Y8867394D01*
X8307324Y8862060D01*
X8317738Y8851900D01*
X8323072Y8836152D01*
X8323072Y8825737D01*
X8317738Y8810244D01*
X8307324Y8799829D01*
X8291829Y8794750D01*
X8276336Y8794750D01*
X8260588Y8799829D01*
X8255508Y8804910D01*
X8250174Y8815324D01*
X10388600Y4331715D02*
G01*
X10388600Y4222750D01*
X10422890Y4331715D02*
G01*
X10422890Y4222750D01*
X10422890Y4331715D02*
G01*
X10495534Y4222750D01*
X10495534Y4331715D02*
G01*
X10495534Y4222750D01*
X10571479Y4331715D02*
G01*
X10529824Y4222750D01*
X10571479Y4331715D02*
G01*
X10613136Y4222750D01*
X10545572Y4259071D02*
G01*
X10597388Y4259071D01*
X10652506Y4305807D02*
G01*
X10652506Y4310887D01*
X10657840Y4321302D01*
X10662920Y4326636D01*
X10673334Y4331715D01*
X10694161Y4331715D01*
X10704575Y4326636D01*
X10709656Y4321302D01*
X10714990Y4310887D01*
X10714990Y4300473D01*
X10709656Y4290060D01*
X10699241Y4274565D01*
X10647425Y4222750D01*
X10720070Y4222750D01*
X10754359Y4310887D02*
G01*
X10764774Y4316221D01*
X10780268Y4331715D01*
X10780268Y4222750D01*
X10882122Y4295394D02*
G01*
X10877041Y4279900D01*
X10866627Y4269486D01*
X10850879Y4264152D01*
X10845800Y4264152D01*
X10830306Y4269486D01*
X10819891Y4279900D01*
X10814558Y4295394D01*
X10814558Y4300473D01*
X10819891Y4316221D01*
X10830306Y4326636D01*
X10845800Y4331715D01*
X10850879Y4331715D01*
X10866627Y4326636D01*
X10877041Y4316221D01*
X10882122Y4295394D01*
X10882122Y4269486D01*
X10877041Y4243323D01*
X10866627Y4227829D01*
X10850879Y4222750D01*
X10840720Y4222750D01*
X10824972Y4227829D01*
X10819891Y4238244D01*
X10916411Y4186173D02*
G01*
X11009884Y4186173D01*
X11106658Y4316221D02*
G01*
X11101324Y4326636D01*
X11085829Y4331715D01*
X11075415Y4331715D01*
X11059922Y4326636D01*
X11049508Y4310887D01*
X11044174Y4284979D01*
X11044174Y4259071D01*
X11049508Y4238244D01*
X11059922Y4227829D01*
X11075415Y4222750D01*
X11080750Y4222750D01*
X11096243Y4227829D01*
X11106658Y4238244D01*
X11111738Y4253737D01*
X11111738Y4259071D01*
X11106658Y4274565D01*
X11096243Y4284979D01*
X11080750Y4290060D01*
X11075415Y4290060D01*
X11059922Y4284979D01*
X11049508Y4274565D01*
X11044174Y4259071D01*
X10388600Y8903715D02*
G01*
X10388600Y8794750D01*
X10422890Y8903715D02*
G01*
X10422890Y8794750D01*
X10422890Y8903715D02*
G01*
X10495534Y8794750D01*
X10495534Y8903715D02*
G01*
X10495534Y8794750D01*
X10571479Y8903715D02*
G01*
X10529824Y8794750D01*
X10571479Y8903715D02*
G01*
X10613136Y8794750D01*
X10545572Y8831071D02*
G01*
X10597388Y8831071D01*
X10652506Y8877808D02*
G01*
X10652506Y8882887D01*
X10657840Y8893302D01*
X10662920Y8898636D01*
X10673334Y8903715D01*
X10694161Y8903715D01*
X10704575Y8898636D01*
X10709656Y8893302D01*
X10714990Y8882887D01*
X10714990Y8872474D01*
X10709656Y8862060D01*
X10699241Y8846565D01*
X10647425Y8794750D01*
X10720070Y8794750D01*
X10754359Y8882887D02*
G01*
X10764774Y8888221D01*
X10780268Y8903715D01*
X10780268Y8794750D01*
X10882122Y8867394D02*
G01*
X10877041Y8851900D01*
X10866627Y8841486D01*
X10850879Y8836152D01*
X10845800Y8836152D01*
X10830306Y8841486D01*
X10819891Y8851900D01*
X10814558Y8867394D01*
X10814558Y8872474D01*
X10819891Y8888221D01*
X10830306Y8898636D01*
X10845800Y8903715D01*
X10850879Y8903715D01*
X10866627Y8898636D01*
X10877041Y8888221D01*
X10882122Y8867394D01*
X10882122Y8841486D01*
X10877041Y8815324D01*
X10866627Y8799829D01*
X10850879Y8794750D01*
X10840720Y8794750D01*
X10824972Y8799829D01*
X10819891Y8810244D01*
X10916411Y8758174D02*
G01*
X11009884Y8758174D01*
X11117072Y8903715D02*
G01*
X11065002Y8794750D01*
X11044174Y8903715D02*
G01*
X11117072Y8903715D01*
X2006600Y1791715D02*
G01*
X2006600Y1682750D01*
X2006600Y1791715D02*
G01*
X2048256Y1682750D01*
X2089658Y1791715D02*
G01*
X2048256Y1682750D01*
X2089658Y1791715D02*
G01*
X2089658Y1682750D01*
X2201925Y1765807D02*
G01*
X2196845Y1776221D01*
X2186431Y1786636D01*
X2176018Y1791715D01*
X2155190Y1791715D01*
X2144775Y1786636D01*
X2134361Y1776221D01*
X2129281Y1765807D01*
X2123947Y1750060D01*
X2123947Y1724152D01*
X2129281Y1708657D01*
X2134361Y1698244D01*
X2144775Y1687829D01*
X2155190Y1682750D01*
X2176018Y1682750D01*
X2186431Y1687829D01*
X2196845Y1698244D01*
X2201925Y1708657D01*
X2236215Y1791715D02*
G01*
X2236215Y1682750D01*
X2236215Y1791715D02*
G01*
X2282952Y1791715D01*
X2298700Y1786636D01*
X2303779Y1781302D01*
X2308859Y1770887D01*
X2308859Y1755394D01*
X2303779Y1744979D01*
X2298700Y1739900D01*
X2282952Y1734565D01*
X2236215Y1734565D01*
X2395220Y1791715D02*
G01*
X2343150Y1719071D01*
X2421127Y1719071D01*
X2395220Y1791715D02*
G01*
X2395220Y1682750D01*
X2528315Y1791715D02*
G01*
X2476245Y1682750D01*
X2455418Y1791715D02*
G01*
X2528315Y1791715D01*
X2624836Y1791715D02*
G01*
X2573020Y1791715D01*
X2567686Y1744979D01*
X2573020Y1750060D01*
X2588513Y1755394D01*
X2604008Y1755394D01*
X2619756Y1750060D01*
X2630170Y1739900D01*
X2635250Y1724152D01*
X2635250Y1713737D01*
X2630170Y1698244D01*
X2619756Y1687829D01*
X2604008Y1682750D01*
X2588513Y1682750D01*
X2573020Y1687829D01*
X2567686Y1692910D01*
X2562606Y1703323D01*
X2669540Y1646173D02*
G01*
X2763011Y1646173D01*
X2828543Y1791715D02*
G01*
X2813050Y1786636D01*
X2802636Y1770887D01*
X2797302Y1744979D01*
X2797302Y1729486D01*
X2802636Y1703323D01*
X2813050Y1687829D01*
X2828543Y1682750D01*
X2838958Y1682750D01*
X2854452Y1687829D01*
X2864865Y1703323D01*
X2870200Y1729486D01*
X2870200Y1744979D01*
X2864865Y1770887D01*
X2854452Y1786636D01*
X2838958Y1791715D01*
X2828543Y1791715D01*
X2006600Y6363715D02*
G01*
X2006600Y6254750D01*
X2006600Y6363715D02*
G01*
X2048256Y6254750D01*
X2089658Y6363715D02*
G01*
X2048256Y6254750D01*
X2089658Y6363715D02*
G01*
X2089658Y6254750D01*
X2201925Y6337807D02*
G01*
X2196845Y6348221D01*
X2186431Y6358636D01*
X2176018Y6363715D01*
X2155190Y6363715D01*
X2144775Y6358636D01*
X2134361Y6348221D01*
X2129281Y6337807D01*
X2123947Y6322060D01*
X2123947Y6296152D01*
X2129281Y6280657D01*
X2134361Y6270244D01*
X2144775Y6259829D01*
X2155190Y6254750D01*
X2176018Y6254750D01*
X2186431Y6259829D01*
X2196845Y6270244D01*
X2201925Y6280657D01*
X2236215Y6363715D02*
G01*
X2236215Y6254750D01*
X2236215Y6363715D02*
G01*
X2282952Y6363715D01*
X2298700Y6358636D01*
X2303779Y6353302D01*
X2308859Y6342887D01*
X2308859Y6327394D01*
X2303779Y6316979D01*
X2298700Y6311900D01*
X2282952Y6306565D01*
X2236215Y6306565D01*
X2395220Y6363715D02*
G01*
X2343150Y6291071D01*
X2421127Y6291071D01*
X2395220Y6363715D02*
G01*
X2395220Y6254750D01*
X2528315Y6363715D02*
G01*
X2476245Y6254750D01*
X2455418Y6363715D02*
G01*
X2528315Y6363715D01*
X2624836Y6363715D02*
G01*
X2573020Y6363715D01*
X2567686Y6316979D01*
X2573020Y6322060D01*
X2588513Y6327394D01*
X2604008Y6327394D01*
X2619756Y6322060D01*
X2630170Y6311900D01*
X2635250Y6296152D01*
X2635250Y6285737D01*
X2630170Y6270244D01*
X2619756Y6259829D01*
X2604008Y6254750D01*
X2588513Y6254750D01*
X2573020Y6259829D01*
X2567686Y6264910D01*
X2562606Y6275323D01*
X2669540Y6218173D02*
G01*
X2763011Y6218173D01*
X2797302Y6342887D02*
G01*
X2807715Y6348221D01*
X2823209Y6363715D01*
X2823209Y6254750D01*
X4800600Y1791715D02*
G01*
X4800600Y1682750D01*
X4800600Y1791715D02*
G01*
X4842256Y1682750D01*
X4883658Y1791715D02*
G01*
X4842256Y1682750D01*
X4883658Y1791715D02*
G01*
X4883658Y1682750D01*
X4995925Y1765807D02*
G01*
X4990845Y1776221D01*
X4980431Y1786636D01*
X4970018Y1791715D01*
X4949190Y1791715D01*
X4938775Y1786636D01*
X4928361Y1776221D01*
X4923281Y1765807D01*
X4917947Y1750060D01*
X4917947Y1724152D01*
X4923281Y1708657D01*
X4928361Y1698244D01*
X4938775Y1687829D01*
X4949190Y1682750D01*
X4970018Y1682750D01*
X4980431Y1687829D01*
X4990845Y1698244D01*
X4995925Y1708657D01*
X5030215Y1791715D02*
G01*
X5030215Y1682750D01*
X5030215Y1791715D02*
G01*
X5076952Y1791715D01*
X5092700Y1786636D01*
X5097779Y1781302D01*
X5102859Y1770887D01*
X5102859Y1755394D01*
X5097779Y1744979D01*
X5092700Y1739900D01*
X5076952Y1734565D01*
X5030215Y1734565D01*
X5189220Y1791715D02*
G01*
X5137150Y1719071D01*
X5215127Y1719071D01*
X5189220Y1791715D02*
G01*
X5189220Y1682750D01*
X5322315Y1791715D02*
G01*
X5270245Y1682750D01*
X5249418Y1791715D02*
G01*
X5322315Y1791715D01*
X5418836Y1791715D02*
G01*
X5367020Y1791715D01*
X5361686Y1744979D01*
X5367020Y1750060D01*
X5382513Y1755394D01*
X5398008Y1755394D01*
X5413756Y1750060D01*
X5424170Y1739900D01*
X5429250Y1724152D01*
X5429250Y1713737D01*
X5424170Y1698244D01*
X5413756Y1687829D01*
X5398008Y1682750D01*
X5382513Y1682750D01*
X5367020Y1687829D01*
X5361686Y1692910D01*
X5356606Y1703323D01*
X5463540Y1646173D02*
G01*
X5557011Y1646173D01*
X5596636Y1765807D02*
G01*
X5596636Y1770887D01*
X5601715Y1781302D01*
X5607050Y1786636D01*
X5617209Y1791715D01*
X5638038Y1791715D01*
X5648452Y1786636D01*
X5653786Y1781302D01*
X5658865Y1770887D01*
X5658865Y1760473D01*
X5653786Y1750060D01*
X5643372Y1734565D01*
X5591302Y1682750D01*
X5664200Y1682750D01*
X4800600Y6363715D02*
G01*
X4800600Y6254750D01*
X4800600Y6363715D02*
G01*
X4842256Y6254750D01*
X4883658Y6363715D02*
G01*
X4842256Y6254750D01*
X4883658Y6363715D02*
G01*
X4883658Y6254750D01*
X4995925Y6337807D02*
G01*
X4990845Y6348221D01*
X4980431Y6358636D01*
X4970018Y6363715D01*
X4949190Y6363715D01*
X4938775Y6358636D01*
X4928361Y6348221D01*
X4923281Y6337807D01*
X4917947Y6322060D01*
X4917947Y6296152D01*
X4923281Y6280657D01*
X4928361Y6270244D01*
X4938775Y6259829D01*
X4949190Y6254750D01*
X4970018Y6254750D01*
X4980431Y6259829D01*
X4990845Y6270244D01*
X4995925Y6280657D01*
X5030215Y6363715D02*
G01*
X5030215Y6254750D01*
X5030215Y6363715D02*
G01*
X5076952Y6363715D01*
X5092700Y6358636D01*
X5097779Y6353302D01*
X5102859Y6342887D01*
X5102859Y6327394D01*
X5097779Y6316979D01*
X5092700Y6311900D01*
X5076952Y6306565D01*
X5030215Y6306565D01*
X5189220Y6363715D02*
G01*
X5137150Y6291071D01*
X5215127Y6291071D01*
X5189220Y6363715D02*
G01*
X5189220Y6254750D01*
X5322315Y6363715D02*
G01*
X5270245Y6254750D01*
X5249418Y6363715D02*
G01*
X5322315Y6363715D01*
X5418836Y6363715D02*
G01*
X5367020Y6363715D01*
X5361686Y6316979D01*
X5367020Y6322060D01*
X5382513Y6327394D01*
X5398008Y6327394D01*
X5413756Y6322060D01*
X5424170Y6311900D01*
X5429250Y6296152D01*
X5429250Y6285737D01*
X5424170Y6270244D01*
X5413756Y6259829D01*
X5398008Y6254750D01*
X5382513Y6254750D01*
X5367020Y6259829D01*
X5361686Y6264910D01*
X5356606Y6275323D01*
X5463540Y6218173D02*
G01*
X5557011Y6218173D01*
X5601715Y6363715D02*
G01*
X5658865Y6363715D01*
X5627624Y6322060D01*
X5643372Y6322060D01*
X5653786Y6316979D01*
X5658865Y6311900D01*
X5664200Y6296152D01*
X5664200Y6285737D01*
X5658865Y6270244D01*
X5648452Y6259829D01*
X5632958Y6254750D01*
X5617209Y6254750D01*
X5601715Y6259829D01*
X5596636Y6264910D01*
X5591302Y6275323D01*
X7594600Y1791715D02*
G01*
X7594600Y1682750D01*
X7594600Y1791715D02*
G01*
X7636256Y1682750D01*
X7677658Y1791715D02*
G01*
X7636256Y1682750D01*
X7677658Y1791715D02*
G01*
X7677658Y1682750D01*
X7789925Y1765807D02*
G01*
X7784845Y1776221D01*
X7774431Y1786636D01*
X7764018Y1791715D01*
X7743190Y1791715D01*
X7732775Y1786636D01*
X7722361Y1776221D01*
X7717281Y1765807D01*
X7711947Y1750060D01*
X7711947Y1724152D01*
X7717281Y1708657D01*
X7722361Y1698244D01*
X7732775Y1687829D01*
X7743190Y1682750D01*
X7764018Y1682750D01*
X7774431Y1687829D01*
X7784845Y1698244D01*
X7789925Y1708657D01*
X7824215Y1791715D02*
G01*
X7824215Y1682750D01*
X7824215Y1791715D02*
G01*
X7870952Y1791715D01*
X7886700Y1786636D01*
X7891779Y1781302D01*
X7896859Y1770887D01*
X7896859Y1755394D01*
X7891779Y1744979D01*
X7886700Y1739900D01*
X7870952Y1734565D01*
X7824215Y1734565D01*
X7983220Y1791715D02*
G01*
X7931150Y1719071D01*
X8009127Y1719071D01*
X7983220Y1791715D02*
G01*
X7983220Y1682750D01*
X8116315Y1791715D02*
G01*
X8064245Y1682750D01*
X8043418Y1791715D02*
G01*
X8116315Y1791715D01*
X8212836Y1791715D02*
G01*
X8161020Y1791715D01*
X8155686Y1744979D01*
X8161020Y1750060D01*
X8176513Y1755394D01*
X8192008Y1755394D01*
X8207756Y1750060D01*
X8218170Y1739900D01*
X8223250Y1724152D01*
X8223250Y1713737D01*
X8218170Y1698244D01*
X8207756Y1687829D01*
X8192008Y1682750D01*
X8176513Y1682750D01*
X8161020Y1687829D01*
X8155686Y1692910D01*
X8150606Y1703323D01*
X8257540Y1646173D02*
G01*
X8351011Y1646173D01*
X8437372Y1791715D02*
G01*
X8385302Y1719071D01*
X8463279Y1719071D01*
X8437372Y1791715D02*
G01*
X8437372Y1682750D01*
X7569200Y6363715D02*
G01*
X7569200Y6254750D01*
X7569200Y6363715D02*
G01*
X7610856Y6254750D01*
X7652258Y6363715D02*
G01*
X7610856Y6254750D01*
X7652258Y6363715D02*
G01*
X7652258Y6254750D01*
X7764525Y6337807D02*
G01*
X7759445Y6348221D01*
X7749031Y6358636D01*
X7738618Y6363715D01*
X7717790Y6363715D01*
X7707375Y6358636D01*
X7696961Y6348221D01*
X7691881Y6337807D01*
X7686547Y6322060D01*
X7686547Y6296152D01*
X7691881Y6280657D01*
X7696961Y6270244D01*
X7707375Y6259829D01*
X7717790Y6254750D01*
X7738618Y6254750D01*
X7749031Y6259829D01*
X7759445Y6270244D01*
X7764525Y6280657D01*
X7798815Y6363715D02*
G01*
X7798815Y6254750D01*
X7798815Y6363715D02*
G01*
X7845552Y6363715D01*
X7861300Y6358636D01*
X7866379Y6353302D01*
X7871459Y6342887D01*
X7871459Y6327394D01*
X7866379Y6316979D01*
X7861300Y6311900D01*
X7845552Y6306565D01*
X7798815Y6306565D01*
X7957820Y6363715D02*
G01*
X7905750Y6291071D01*
X7983727Y6291071D01*
X7957820Y6363715D02*
G01*
X7957820Y6254750D01*
X8090915Y6363715D02*
G01*
X8038845Y6254750D01*
X8018018Y6363715D02*
G01*
X8090915Y6363715D01*
X8187436Y6363715D02*
G01*
X8135620Y6363715D01*
X8130286Y6316979D01*
X8135620Y6322060D01*
X8151113Y6327394D01*
X8166608Y6327394D01*
X8182356Y6322060D01*
X8192770Y6311900D01*
X8197850Y6296152D01*
X8197850Y6285737D01*
X8192770Y6270244D01*
X8182356Y6259829D01*
X8166608Y6254750D01*
X8151113Y6254750D01*
X8135620Y6259829D01*
X8130286Y6264910D01*
X8125206Y6275323D01*
X8232140Y6218173D02*
G01*
X8325611Y6218173D01*
X8422386Y6363715D02*
G01*
X8370315Y6363715D01*
X8365236Y6316979D01*
X8370315Y6322060D01*
X8385809Y6327394D01*
X8401558Y6327394D01*
X8417052Y6322060D01*
X8427465Y6311900D01*
X8432800Y6296152D01*
X8432800Y6285737D01*
X8427465Y6270244D01*
X8417052Y6259829D01*
X8401558Y6254750D01*
X8385809Y6254750D01*
X8370315Y6259829D01*
X8365236Y6264910D01*
X8359902Y6275323D01*
X10388600Y1791715D02*
G01*
X10388600Y1682750D01*
X10388600Y1791715D02*
G01*
X10430256Y1682750D01*
X10471658Y1791715D02*
G01*
X10430256Y1682750D01*
X10471658Y1791715D02*
G01*
X10471658Y1682750D01*
X10583925Y1765807D02*
G01*
X10578845Y1776221D01*
X10568431Y1786636D01*
X10558018Y1791715D01*
X10537190Y1791715D01*
X10526775Y1786636D01*
X10516361Y1776221D01*
X10511281Y1765807D01*
X10505947Y1750060D01*
X10505947Y1724152D01*
X10511281Y1708657D01*
X10516361Y1698244D01*
X10526775Y1687829D01*
X10537190Y1682750D01*
X10558018Y1682750D01*
X10568431Y1687829D01*
X10578845Y1698244D01*
X10583925Y1708657D01*
X10618215Y1791715D02*
G01*
X10618215Y1682750D01*
X10618215Y1791715D02*
G01*
X10664952Y1791715D01*
X10680700Y1786636D01*
X10685779Y1781302D01*
X10690859Y1770887D01*
X10690859Y1755394D01*
X10685779Y1744979D01*
X10680700Y1739900D01*
X10664952Y1734565D01*
X10618215Y1734565D01*
X10777220Y1791715D02*
G01*
X10725150Y1719071D01*
X10803127Y1719071D01*
X10777220Y1791715D02*
G01*
X10777220Y1682750D01*
X10910315Y1791715D02*
G01*
X10858245Y1682750D01*
X10837418Y1791715D02*
G01*
X10910315Y1791715D01*
X11006836Y1791715D02*
G01*
X10955020Y1791715D01*
X10949686Y1744979D01*
X10955020Y1750060D01*
X10970513Y1755394D01*
X10986008Y1755394D01*
X11001756Y1750060D01*
X11012170Y1739900D01*
X11017250Y1724152D01*
X11017250Y1713737D01*
X11012170Y1698244D01*
X11001756Y1687829D01*
X10986008Y1682750D01*
X10970513Y1682750D01*
X10955020Y1687829D01*
X10949686Y1692910D01*
X10944606Y1703323D01*
X11051540Y1646173D02*
G01*
X11145011Y1646173D01*
X11241786Y1776221D02*
G01*
X11236452Y1786636D01*
X11220958Y1791715D01*
X11210543Y1791715D01*
X11195050Y1786636D01*
X11184636Y1770887D01*
X11179302Y1744979D01*
X11179302Y1719071D01*
X11184636Y1698244D01*
X11195050Y1687829D01*
X11210543Y1682750D01*
X11215624Y1682750D01*
X11231372Y1687829D01*
X11241786Y1698244D01*
X11246865Y1713737D01*
X11246865Y1719071D01*
X11241786Y1734565D01*
X11231372Y1744979D01*
X11215624Y1750060D01*
X11210543Y1750060D01*
X11195050Y1744979D01*
X11184636Y1734565D01*
X11179302Y1719071D01*
X10388600Y6363715D02*
G01*
X10388600Y6254750D01*
X10388600Y6363715D02*
G01*
X10430256Y6254750D01*
X10471658Y6363715D02*
G01*
X10430256Y6254750D01*
X10471658Y6363715D02*
G01*
X10471658Y6254750D01*
X10583925Y6337807D02*
G01*
X10578845Y6348221D01*
X10568431Y6358636D01*
X10558018Y6363715D01*
X10537190Y6363715D01*
X10526775Y6358636D01*
X10516361Y6348221D01*
X10511281Y6337807D01*
X10505947Y6322060D01*
X10505947Y6296152D01*
X10511281Y6280657D01*
X10516361Y6270244D01*
X10526775Y6259829D01*
X10537190Y6254750D01*
X10558018Y6254750D01*
X10568431Y6259829D01*
X10578845Y6270244D01*
X10583925Y6280657D01*
X10618215Y6363715D02*
G01*
X10618215Y6254750D01*
X10618215Y6363715D02*
G01*
X10664952Y6363715D01*
X10680700Y6358636D01*
X10685779Y6353302D01*
X10690859Y6342887D01*
X10690859Y6327394D01*
X10685779Y6316979D01*
X10680700Y6311900D01*
X10664952Y6306565D01*
X10618215Y6306565D01*
X10777220Y6363715D02*
G01*
X10725150Y6291071D01*
X10803127Y6291071D01*
X10777220Y6363715D02*
G01*
X10777220Y6254750D01*
X10910315Y6363715D02*
G01*
X10858245Y6254750D01*
X10837418Y6363715D02*
G01*
X10910315Y6363715D01*
X11006836Y6363715D02*
G01*
X10955020Y6363715D01*
X10949686Y6316979D01*
X10955020Y6322060D01*
X10970513Y6327394D01*
X10986008Y6327394D01*
X11001756Y6322060D01*
X11012170Y6311900D01*
X11017250Y6296152D01*
X11017250Y6285737D01*
X11012170Y6270244D01*
X11001756Y6259829D01*
X10986008Y6254750D01*
X10970513Y6254750D01*
X10955020Y6259829D01*
X10949686Y6264910D01*
X10944606Y6275323D01*
X11051540Y6218173D02*
G01*
X11145011Y6218173D01*
X11252200Y6363715D02*
G01*
X11200129Y6254750D01*
X11179302Y6363715D02*
G01*
X11252200Y6363715D01*
X6000241Y-37084D02*
G01*
X5989827Y-42163D01*
X5979413Y-52578D01*
X5974079Y-62992D01*
X5969000Y-78739D01*
X5969000Y-104647D01*
X5974079Y-120142D01*
X5979413Y-130555D01*
X5989827Y-140970D01*
X6000241Y-146050D01*
X6021070Y-146050D01*
X6031229Y-140970D01*
X6041643Y-130555D01*
X6046977Y-120142D01*
X6052058Y-104647D01*
X6052058Y-78739D01*
X6046977Y-62992D01*
X6041643Y-52578D01*
X6031229Y-42163D01*
X6021070Y-37084D01*
X6000241Y-37084D01*
X6086347Y-37084D02*
G01*
X6086347Y-115062D01*
X6091681Y-130555D01*
X6102095Y-140970D01*
X6117590Y-146050D01*
X6128004Y-146050D01*
X6143497Y-140970D01*
X6153911Y-130555D01*
X6159245Y-115062D01*
X6159245Y-37084D01*
X6229858Y-37084D02*
G01*
X6229858Y-146050D01*
X6193536Y-37084D02*
G01*
X6266179Y-37084D01*
X6300470Y-37084D02*
G01*
X6300470Y-146050D01*
X6300470Y-37084D02*
G01*
X6347206Y-37084D01*
X6362700Y-42163D01*
X6368034Y-47497D01*
X6373113Y-57912D01*
X6373113Y-73405D01*
X6368034Y-83820D01*
X6362700Y-88900D01*
X6347206Y-94234D01*
X6300470Y-94234D01*
X6407404Y-37084D02*
G01*
X6407404Y-115062D01*
X6412738Y-130555D01*
X6423152Y-140970D01*
X6438645Y-146050D01*
X6449059Y-146050D01*
X6464554Y-140970D01*
X6474968Y-130555D01*
X6480302Y-115062D01*
X6480302Y-37084D01*
X6550913Y-37084D02*
G01*
X6550913Y-146050D01*
X6514591Y-37084D02*
G01*
X6587236Y-37084D01*
X6714997Y-16255D02*
G01*
X6621525Y-182626D01*
X6749288Y-37084D02*
G01*
X6749288Y-146050D01*
X6783577Y-37084D02*
G01*
X6783577Y-146050D01*
X6783577Y-37084D02*
G01*
X6856475Y-146050D01*
X6856475Y-37084D02*
G01*
X6856475Y-146050D01*
X6890765Y-37084D02*
G01*
X6890765Y-146050D01*
X6890765Y-37084D02*
G01*
X6937502Y-37084D01*
X6952995Y-42163D01*
X6958329Y-47497D01*
X6963409Y-57912D01*
X6963409Y-73405D01*
X6958329Y-83820D01*
X6952995Y-88900D01*
X6937502Y-94234D01*
X6890765Y-94234D01*
X6997700Y-37084D02*
G01*
X6997700Y-115062D01*
X7002779Y-130555D01*
X7013193Y-140970D01*
X7028941Y-146050D01*
X7039356Y-146050D01*
X7054850Y-140970D01*
X7065263Y-130555D01*
X7070343Y-115062D01*
X7070343Y-37084D01*
X7141209Y-37084D02*
G01*
X7141209Y-146050D01*
X7104634Y-37084D02*
G01*
X7177531Y-37084D01*
X11886184Y2360421D02*
G01*
X11995150Y2360421D01*
X11886184Y2324100D02*
G01*
X11886184Y2396744D01*
X11912091Y2509012D02*
G01*
X11901677Y2503931D01*
X11891263Y2493518D01*
X11886184Y2483104D01*
X11886184Y2462276D01*
X11891263Y2451862D01*
X11901677Y2441447D01*
X11912091Y2436368D01*
X11927840Y2431034D01*
X11953747Y2431034D01*
X11969241Y2436368D01*
X11979656Y2441447D01*
X11990070Y2451862D01*
X11995150Y2462276D01*
X11995150Y2483104D01*
X11990070Y2493518D01*
X11979656Y2503931D01*
X11969241Y2509012D01*
X11886184Y2584957D02*
G01*
X11995150Y2543302D01*
X11886184Y2584957D02*
G01*
X11995150Y2626360D01*
X11958827Y2559050D02*
G01*
X11958827Y2610865D01*
X12031725Y2660650D02*
G01*
X12031725Y2754376D01*
X11886184Y2788665D02*
G01*
X11995150Y2788665D01*
X11886184Y2822955D02*
G01*
X11995150Y2822955D01*
X11886184Y2822955D02*
G01*
X11995150Y2895600D01*
X11886184Y2895600D02*
G01*
X11995150Y2895600D01*
X11886184Y2971545D02*
G01*
X11995150Y2929889D01*
X11886184Y2971545D02*
G01*
X11995150Y3012947D01*
X11958827Y2945384D02*
G01*
X11958827Y2997454D01*
X12031725Y3047237D02*
G01*
X12031725Y3140710D01*
X11907011Y3175000D02*
G01*
X11901677Y3185413D01*
X11886184Y3201162D01*
X11995150Y3201162D01*
X13968984Y2935096D02*
G01*
X14077950Y2935096D01*
X13968984Y2898775D02*
G01*
X13968984Y2971419D01*
X13994891Y3083687D02*
G01*
X13984477Y3078606D01*
X13974063Y3068193D01*
X13968984Y3057779D01*
X13968984Y3036951D01*
X13974063Y3026537D01*
X13984477Y3016122D01*
X13994891Y3011043D01*
X14010640Y3005709D01*
X14036547Y3005709D01*
X14052041Y3011043D01*
X14062456Y3016122D01*
X14072870Y3026537D01*
X14077950Y3036951D01*
X14077950Y3057779D01*
X14072870Y3068193D01*
X14062456Y3078606D01*
X14052041Y3083687D01*
X13968984Y3159632D02*
G01*
X14077950Y3117977D01*
X13968984Y3159632D02*
G01*
X14077950Y3201035D01*
X14041627Y3133725D02*
G01*
X14041627Y3185540D01*
X14114525Y3235325D02*
G01*
X14114525Y3329051D01*
X13968984Y3363340D02*
G01*
X14077950Y3363340D01*
X13968984Y3397630D02*
G01*
X14077950Y3397630D01*
X13968984Y3397630D02*
G01*
X14077950Y3470275D01*
X13968984Y3470275D02*
G01*
X14077950Y3470275D01*
X13968984Y3546220D02*
G01*
X14077950Y3504564D01*
X13968984Y3546220D02*
G01*
X14077950Y3587622D01*
X14041627Y3520059D02*
G01*
X14041627Y3572129D01*
X14114525Y3621912D02*
G01*
X14114525Y3715385D01*
X13994891Y3755009D02*
G01*
X13989811Y3755009D01*
X13979397Y3760088D01*
X13974063Y3765422D01*
X13968984Y3775837D01*
X13968984Y3796664D01*
X13974063Y3806825D01*
X13979397Y3812159D01*
X13989811Y3817238D01*
X14000225Y3817238D01*
X14010640Y3812159D01*
X14026134Y3801745D01*
X14077950Y3749675D01*
X14077950Y3822572D01*
X11898884Y6830821D02*
G01*
X12007850Y6830821D01*
X11898884Y6794500D02*
G01*
X11898884Y6867144D01*
X11924791Y6979412D02*
G01*
X11914377Y6974331D01*
X11903963Y6963918D01*
X11898884Y6953504D01*
X11898884Y6932676D01*
X11903963Y6922262D01*
X11914377Y6911847D01*
X11924791Y6906768D01*
X11940540Y6901434D01*
X11966447Y6901434D01*
X11981941Y6906768D01*
X11992356Y6911847D01*
X12002770Y6922262D01*
X12007850Y6932676D01*
X12007850Y6953504D01*
X12002770Y6963918D01*
X11992356Y6974331D01*
X11981941Y6979412D01*
X11898884Y7055358D02*
G01*
X12007850Y7013702D01*
X11898884Y7055358D02*
G01*
X12007850Y7096760D01*
X11971527Y7029450D02*
G01*
X11971527Y7081265D01*
X12044425Y7131050D02*
G01*
X12044425Y7224776D01*
X11898884Y7259065D02*
G01*
X12007850Y7259065D01*
X11898884Y7259065D02*
G01*
X12007850Y7300468D01*
X11898884Y7342123D02*
G01*
X12007850Y7300468D01*
X11898884Y7342123D02*
G01*
X12007850Y7342123D01*
X11924791Y7454392D02*
G01*
X11914377Y7449058D01*
X11903963Y7438644D01*
X11898884Y7428229D01*
X11898884Y7407655D01*
X11903963Y7397242D01*
X11914377Y7386828D01*
X11924791Y7381494D01*
X11940540Y7376413D01*
X11966447Y7376413D01*
X11981941Y7381494D01*
X11992356Y7386828D01*
X12002770Y7397242D01*
X12007850Y7407655D01*
X12007850Y7428229D01*
X12002770Y7438644D01*
X11992356Y7449058D01*
X11981941Y7454392D01*
X11898884Y7488681D02*
G01*
X12007850Y7488681D01*
X11898884Y7488681D02*
G01*
X11898884Y7535418D01*
X11903963Y7550912D01*
X11909297Y7556245D01*
X11919711Y7561326D01*
X11935206Y7561326D01*
X11945620Y7556245D01*
X11950700Y7550912D01*
X11956034Y7535418D01*
X11956034Y7488681D01*
X12044425Y7595615D02*
G01*
X12044425Y7689087D01*
X11919711Y7723378D02*
G01*
X11914377Y7733792D01*
X11898884Y7749539D01*
X12007850Y7749539D01*
X13968984Y6805421D02*
G01*
X14077950Y6805421D01*
X13968984Y6769100D02*
G01*
X13968984Y6841744D01*
X13994891Y6954012D02*
G01*
X13984477Y6948931D01*
X13974063Y6938518D01*
X13968984Y6928104D01*
X13968984Y6907276D01*
X13974063Y6896862D01*
X13984477Y6886447D01*
X13994891Y6881368D01*
X14010640Y6876034D01*
X14036547Y6876034D01*
X14052041Y6881368D01*
X14062456Y6886447D01*
X14072870Y6896862D01*
X14077950Y6907276D01*
X14077950Y6928104D01*
X14072870Y6938518D01*
X14062456Y6948931D01*
X14052041Y6954012D01*
X13968984Y7029958D02*
G01*
X14077950Y6988302D01*
X13968984Y7029958D02*
G01*
X14077950Y7071360D01*
X14041627Y7004050D02*
G01*
X14041627Y7055865D01*
X14114525Y7105650D02*
G01*
X14114525Y7199376D01*
X13968984Y7233665D02*
G01*
X14077950Y7233665D01*
X13968984Y7233665D02*
G01*
X14077950Y7275068D01*
X13968984Y7316723D02*
G01*
X14077950Y7275068D01*
X13968984Y7316723D02*
G01*
X14077950Y7316723D01*
X13994891Y7428992D02*
G01*
X13984477Y7423658D01*
X13974063Y7413244D01*
X13968984Y7402829D01*
X13968984Y7382255D01*
X13974063Y7371842D01*
X13984477Y7361428D01*
X13994891Y7356094D01*
X14010640Y7351013D01*
X14036547Y7351013D01*
X14052041Y7356094D01*
X14062456Y7361428D01*
X14072870Y7371842D01*
X14077950Y7382255D01*
X14077950Y7402829D01*
X14072870Y7413244D01*
X14062456Y7423658D01*
X14052041Y7428992D01*
X13968984Y7463281D02*
G01*
X14077950Y7463281D01*
X13968984Y7463281D02*
G01*
X13968984Y7510018D01*
X13974063Y7525512D01*
X13979397Y7530845D01*
X13989811Y7535926D01*
X14005306Y7535926D01*
X14015720Y7530845D01*
X14020800Y7525512D01*
X14026134Y7510018D01*
X14026134Y7463281D01*
X14114525Y7570215D02*
G01*
X14114525Y7663687D01*
X13994891Y7703312D02*
G01*
X13989811Y7703312D01*
X13979397Y7708392D01*
X13974063Y7713726D01*
X13968984Y7724139D01*
X13968984Y7744713D01*
X13974063Y7755128D01*
X13979397Y7760462D01*
X13989811Y7765542D01*
X14000225Y7765542D01*
X14010640Y7760462D01*
X14026134Y7750047D01*
X14077950Y7697978D01*
X14077950Y7770876D01*
X5197856Y9691115D02*
G01*
X5156200Y9582150D01*
X5197856Y9691115D02*
G01*
X5239258Y9582150D01*
X5171693Y9618471D02*
G01*
X5223763Y9618471D01*
X5273547Y9691115D02*
G01*
X5273547Y9582150D01*
X5273547Y9691115D02*
G01*
X5320284Y9691115D01*
X5336031Y9686036D01*
X5341111Y9680702D01*
X5346445Y9670287D01*
X5346445Y9659874D01*
X5341111Y9649460D01*
X5336031Y9644379D01*
X5320284Y9639300D01*
X5273547Y9639300D01*
X5309870Y9639300D02*
G01*
X5346445Y9582150D01*
X5380736Y9691115D02*
G01*
X5380736Y9582150D01*
X5380736Y9691115D02*
G01*
X5417058Y9691115D01*
X5432552Y9686036D01*
X5442965Y9675621D01*
X5448300Y9665208D01*
X5453379Y9649460D01*
X5453379Y9623552D01*
X5448300Y9608058D01*
X5442965Y9597644D01*
X5432552Y9587229D01*
X5417058Y9582150D01*
X5380736Y9582150D01*
X5487670Y9691115D02*
G01*
X5487670Y9613137D01*
X5492750Y9597644D01*
X5503163Y9587229D01*
X5518911Y9582150D01*
X5529325Y9582150D01*
X5544820Y9587229D01*
X5555234Y9597644D01*
X5560313Y9613137D01*
X5560313Y9691115D01*
X5594604Y9691115D02*
G01*
X5594604Y9582150D01*
X5628893Y9691115D02*
G01*
X5628893Y9582150D01*
X5628893Y9691115D02*
G01*
X5701791Y9582150D01*
X5701791Y9691115D02*
G01*
X5701791Y9582150D01*
X5767070Y9691115D02*
G01*
X5756909Y9686036D01*
X5746495Y9675621D01*
X5741161Y9665208D01*
X5736081Y9649460D01*
X5736081Y9623552D01*
X5741161Y9608058D01*
X5746495Y9597644D01*
X5756909Y9587229D01*
X5767070Y9582150D01*
X5787897Y9582150D01*
X5798311Y9587229D01*
X5808725Y9597644D01*
X5814059Y9608058D01*
X5819140Y9623552D01*
X5819140Y9649460D01*
X5814059Y9665208D01*
X5808725Y9675621D01*
X5798311Y9686036D01*
X5787897Y9691115D01*
X5767070Y9691115D01*
X5853429Y9545574D02*
G01*
X5946902Y9545574D01*
X5981191Y9691115D02*
G01*
X5981191Y9582150D01*
X6015481Y9691115D02*
G01*
X6015481Y9582150D01*
X6015481Y9691115D02*
G01*
X6088379Y9582150D01*
X6088379Y9691115D02*
G01*
X6088379Y9582150D01*
X6122670Y9691115D02*
G01*
X6122670Y9582150D01*
X6122670Y9691115D02*
G01*
X6169406Y9691115D01*
X6184900Y9686036D01*
X6189979Y9680702D01*
X6195313Y9670287D01*
X6195313Y9654794D01*
X6189979Y9644379D01*
X6184900Y9639300D01*
X6169406Y9633965D01*
X6122670Y9633965D01*
X6229604Y9691115D02*
G01*
X6229604Y9613137D01*
X6234684Y9597644D01*
X6245097Y9587229D01*
X6260845Y9582150D01*
X6271259Y9582150D01*
X6286754Y9587229D01*
X6297168Y9597644D01*
X6302247Y9613137D01*
X6302247Y9691115D01*
X6372859Y9691115D02*
G01*
X6372859Y9582150D01*
X6336538Y9691115D02*
G01*
X6409436Y9691115D01*
D10*
X1460500Y4191000D02*
G01*
X1270000Y4191000D01*
X1270000Y3937000D01*
X2794000Y3937000D01*
X2794000Y4191000D01*
D13*
X2794000Y4191000D02*
G01*
X1460500Y4191000D01*
D10*
X1460500Y8763000D02*
G01*
X1270000Y8763000D01*
X1270000Y8509000D01*
X2794000Y8509000D01*
X2794000Y8763000D01*
D13*
X2794000Y8763000D02*
G01*
X1460500Y8763000D01*
D10*
X4254500Y4191000D02*
G01*
X4064000Y4191000D01*
X4064000Y3937000D01*
X5588000Y3937000D01*
X5588000Y4191000D01*
D13*
X5588000Y4191000D02*
G01*
X4254500Y4191000D01*
D10*
X4254500Y8763000D02*
G01*
X4064000Y8763000D01*
X4064000Y8509000D01*
X5588000Y8509000D01*
X5588000Y8763000D01*
D13*
X5588000Y8763000D02*
G01*
X4254500Y8763000D01*
D10*
X7048500Y4191000D02*
G01*
X6858000Y4191000D01*
X6858000Y3937000D01*
X8382000Y3937000D01*
X8382000Y4191000D01*
D13*
X8382000Y4191000D02*
G01*
X7048500Y4191000D01*
D10*
X7048500Y8763000D02*
G01*
X6858000Y8763000D01*
X6858000Y8509000D01*
X8382000Y8509000D01*
X8382000Y8763000D01*
D13*
X8382000Y8763000D02*
G01*
X7048500Y8763000D01*
D10*
X9842500Y4191000D02*
G01*
X9652000Y4191000D01*
X9652000Y3937000D01*
X11176000Y3937000D01*
X11176000Y4191000D01*
D13*
X11176000Y4191000D02*
G01*
X9842500Y4191000D01*
D10*
X9842500Y8763000D02*
G01*
X9652000Y8763000D01*
X9652000Y8509000D01*
X11176000Y8509000D01*
X11176000Y8763000D01*
D13*
X11176000Y8763000D02*
G01*
X9842500Y8763000D01*
D10*
X1460500Y1651000D02*
G01*
X1270000Y1651000D01*
X1270000Y1397000D01*
X2794000Y1397000D01*
X2794000Y1651000D01*
D13*
X2794000Y1651000D02*
G01*
X1460500Y1651000D01*
D10*
X1460500Y6223000D02*
G01*
X1270000Y6223000D01*
X1270000Y5969000D01*
X2794000Y5969000D01*
X2794000Y6223000D01*
D13*
X2794000Y6223000D02*
G01*
X1460500Y6223000D01*
D10*
X4254500Y1651000D02*
G01*
X4064000Y1651000D01*
X4064000Y1397000D01*
X5588000Y1397000D01*
X5588000Y1651000D01*
D13*
X5588000Y1651000D02*
G01*
X4254500Y1651000D01*
D10*
X4254500Y6223000D02*
G01*
X4064000Y6223000D01*
X4064000Y5969000D01*
X5588000Y5969000D01*
X5588000Y6223000D01*
D13*
X5588000Y6223000D02*
G01*
X4254500Y6223000D01*
D10*
X7048500Y1651000D02*
G01*
X6858000Y1651000D01*
X6858000Y1397000D01*
X8382000Y1397000D01*
X8382000Y1651000D01*
D13*
X8382000Y1651000D02*
G01*
X7048500Y1651000D01*
D10*
X7023100Y6223000D02*
G01*
X6832600Y6223000D01*
X6832600Y5969000D01*
X8356600Y5969000D01*
X8356600Y6223000D01*
D13*
X8356600Y6223000D02*
G01*
X7023100Y6223000D01*
D10*
X9842500Y1651000D02*
G01*
X9652000Y1651000D01*
X9652000Y1397000D01*
X11176000Y1397000D01*
X11176000Y1651000D01*
D13*
X11176000Y1651000D02*
G01*
X9842500Y1651000D01*
D10*
X9842500Y6223000D02*
G01*
X9652000Y6223000D01*
X9652000Y5969000D01*
X11176000Y5969000D01*
X11176000Y6223000D01*
D13*
X11176000Y6223000D02*
G01*
X9842500Y6223000D01*
D10*
X4152900Y-177800D02*
G01*
X3962400Y-177800D01*
X3962400Y-431800D01*
X8026400Y-431800D01*
X8026400Y-177800D01*
X7772400Y-177800D01*
D13*
X7772400Y-177800D02*
G01*
X4152900Y-177800D01*
D10*
X12090400Y4867275D02*
G01*
X12090400Y4867275D01*
X12344400Y4867275D01*
X12344400Y1057275D01*
X12090400Y1057275D01*
X12090400Y1247775D01*
D14*
X12090400Y4867275D02*
G01*
X12090400Y1247775D01*
D10*
X14389100Y1057275D02*
G01*
X14389100Y1057275D01*
X14135100Y1057275D01*
X14135100Y4867275D01*
X14389100Y4867275D01*
X14389100Y4676775D01*
D14*
X14389100Y1057275D02*
G01*
X14389100Y4676775D01*
D10*
X12344400Y4889500D02*
G01*
X12344400Y4889500D01*
X12090400Y4889500D01*
X12090400Y8699500D01*
X12344400Y8699500D01*
X12344400Y8509000D01*
D14*
X12344400Y4889500D02*
G01*
X12344400Y8509000D01*
D10*
X14135100Y8699500D02*
G01*
X14135100Y8699500D01*
X14389100Y8699500D01*
X14389100Y4889500D01*
X14135100Y4889500D01*
X14135100Y5080000D01*
D14*
X14135100Y8699500D02*
G01*
X14135100Y5080000D01*
D13*
X7353300Y9537700D02*
G01*
X5511800Y9537700D01*
D10*
X7353300Y9537700D02*
G01*
X7353300Y9283700D01*
X5321300Y9283700D01*
X5321300Y9537700D01*
X5511800Y9537700D01*
M02*
